<?xml version="1.0" encoding="utf-8"?>
<!-- Generator: Adobe Illustrator 16.0.0, SVG Export Plug-In . SVG Version: 6.00 Build 0)  -->
<!DOCTYPE svg PUBLIC "-//W3C//DTD SVG 1.1//EN" "http://www.w3.org/Graphics/SVG/1.1/DTD/svg11.dtd">
<svg version="1.1" id="Layer_1" xmlns="http://www.w3.org/2000/svg" xmlns:xlink="http://www.w3.org/1999/xlink" x="0px" y="0px"
	 width="1125px" height="600px" viewBox="0 0 1125 600" enable-background="new 0 0 1125 600" xml:space="preserve">
<rect x="875.799" y="7.287" fill="#3991C3" stroke="#FFFFFF" stroke-width="3" stroke-miterlimit="10" width="239" height="139"/>
<rect x="875.799" y="146.287" fill="#3991C3" stroke="#FFFFFF" stroke-width="3" stroke-miterlimit="10" width="239" height="139"/>
<rect x="638.799" y="7.287" fill="#3991C3" stroke="#FFFFFF" stroke-width="3" stroke-miterlimit="10" width="238" height="139"/>
<rect x="638.799" y="146.287" fill="#67ADDA" stroke="#FFFFFF" stroke-width="3" stroke-miterlimit="10" width="238" height="139"/>
<rect x="398.799" y="146.287" fill="#67ADDA" stroke="#FFFFFF" stroke-width="3" stroke-miterlimit="10" width="240" height="139"/>
<rect x="398.799" y="7.287" fill="#67ADDA" stroke="#FFFFFF" stroke-width="3" stroke-miterlimit="10" width="240" height="139"/>
<rect x="159.799" y="7.287" fill="#67ADDA" stroke="#FFFFFF" stroke-width="3" stroke-miterlimit="10" width="239" height="139"/>
<rect x="875.799" y="424.287" fill="#67ADDA" stroke="#FFFFFF" stroke-width="3" stroke-miterlimit="10" width="239" height="138"/>
<rect x="398.799" y="285.287" fill="#A3CDE8" stroke="#FFFFFF" stroke-width="3" stroke-miterlimit="10" width="240" height="139"/>
<rect x="159.799" y="146.287" fill="#A3CDE8" stroke="#FFFFFF" stroke-width="3" stroke-miterlimit="10" width="239" height="139"/>
<rect x="398.799" y="424.287" fill="#C1DBEE" stroke="#FFFFFF" stroke-width="3" stroke-miterlimit="10" width="240" height="138"/>
<rect x="159.799" y="285.287" fill="#C1DBEE" stroke="#FFFFFF" stroke-width="3" stroke-miterlimit="10" width="239" height="139"/>
<rect x="159.799" y="424.287" fill="#C1DBEE" stroke="#FFFFFF" stroke-width="3" stroke-miterlimit="10" width="239" height="138"/>
<g>
	<path d="M220.274,585.966c-0.812-0.544-1.373-1.305-1.68-2.28c-0.308-0.976-0.462-2.2-0.462-3.672v-12.889h2.771v13.009
		c0,1.472,0.184,2.592,0.552,3.359c0.368,0.769,1.107,1.152,2.219,1.152s1.851-0.384,2.219-1.152
		c0.368-0.768,0.552-1.888,0.552-3.359v-13.009h2.745v12.889c0,1.472-0.154,2.696-0.461,3.672c-0.308,0.976-0.864,1.736-1.667,2.28
		c-0.804,0.544-1.933,0.815-3.387,0.815S221.086,586.51,220.274,585.966z"/>
	<path d="M233.152,585.27c-0.915-1.008-1.424-2.392-1.526-4.152l2.565-0.647c0.085,1.248,0.346,2.256,0.782,3.023
		c0.436,0.769,1.159,1.152,2.168,1.152c0.752,0,1.321-0.196,1.706-0.588s0.577-0.956,0.577-1.692c0-0.783-0.18-1.436-0.539-1.956
		c-0.359-0.52-0.932-1.116-1.719-1.788l-3.489-2.88c-0.702-0.592-1.21-1.22-1.526-1.884s-0.475-1.468-0.475-2.412
		c0-1.439,0.444-2.548,1.334-3.324c0.889-0.775,2.112-1.164,3.668-1.164c1.625,0,2.839,0.408,3.643,1.225
		c0.804,0.815,1.291,2.08,1.462,3.792l-2.462,0.624c-0.086-1.104-0.308-1.972-0.667-2.604c-0.359-0.632-0.992-0.947-1.898-0.947
		c-1.659,0-2.489,0.712-2.489,2.136c0,0.576,0.103,1.052,0.308,1.428s0.556,0.78,1.052,1.212l3.515,2.88
		c0.906,0.784,1.629,1.612,2.167,2.484c0.539,0.872,0.808,1.86,0.808,2.964c0,1.424-0.461,2.553-1.385,3.384
		c-0.923,0.832-2.121,1.248-3.591,1.248C235.397,586.781,234.067,586.277,233.152,585.27z"/>
	<path d="M244.375,586.565v-19.44h8.055v2.017h-5.156v6.432h4.182v1.92h-4.182v7.128h5.208v1.944H244.375z"/>
	<path d="M254.816,567.125h4.515c2.24,0,3.826,0.48,4.759,1.44c0.932,0.96,1.398,2.456,1.398,4.488v7.151
		c0,2.145-0.458,3.74-1.373,4.788c-0.915,1.049-2.433,1.572-4.553,1.572h-4.746V567.125z M259.357,584.621
		c1.009,0,1.74-0.184,2.193-0.552s0.735-0.867,0.847-1.5c0.111-0.632,0.167-1.588,0.167-2.868v-6.312
		c0-1.104-0.073-1.948-0.218-2.532c-0.146-0.584-0.449-1.016-0.911-1.296s-1.18-0.42-2.155-0.42h-1.565v15.479H259.357z"/>
	<path d="M274.21,567.125h4.771c1.881,0,3.275,0.396,4.182,1.188c0.906,0.792,1.359,2.021,1.359,3.684
		c0,2.48-0.992,3.849-2.976,4.104c1.231,0.272,2.129,0.812,2.694,1.62c0.564,0.808,0.846,1.908,0.846,3.3
		c0,1.744-0.44,3.104-1.321,4.08c-0.881,0.976-2.219,1.464-4.015,1.464h-5.541V567.125z M278.828,575.237
		c1.197,0,2.026-0.243,2.488-0.731s0.693-1.324,0.693-2.509c0-0.863-0.141-1.5-0.423-1.907c-0.282-0.408-0.706-0.668-1.27-0.78
		s-1.402-0.168-2.514-0.168h-0.692v6.096H278.828z M279.059,584.621c0.855,0,1.518-0.123,1.988-0.372
		c0.47-0.247,0.799-0.627,0.988-1.14c0.188-0.512,0.282-1.208,0.282-2.088c0-1.248-0.274-2.18-0.821-2.796
		c-0.547-0.616-1.437-0.924-2.668-0.924h-1.719v7.319H279.059z"/>
	<path d="M290.833,586.565v-6.864l-4.49-12.576h2.694l3.181,9.385l3.13-9.385h2.719l-4.464,12.576v6.864H290.833z"/>
	<path d="M305.865,586.565v-19.44h8.03v1.944h-5.131v6.48h3.976v1.92h-3.976v9.096H305.865z"/>
	<path d="M315.896,586.565v-19.44h8.055v2.017h-5.156v6.432h4.182v1.92h-4.182v7.128h5.208v1.944H315.896z"/>
	<path d="M329.03,586.565l-3.386-19.44h2.412l2.232,13.969l2.796-13.896h2.052l2.822,13.968l2.181-14.04h2.36l-3.335,19.44h-2.104
		l-2.899-14.4l-2.924,14.4H329.03z"/>
</g>
<g>
	<path d="M452.077,585.966c-0.812-0.544-1.373-1.305-1.68-2.28c-0.308-0.976-0.462-2.2-0.462-3.672v-12.889h2.771v13.009
		c0,1.472,0.184,2.592,0.552,3.359c0.368,0.769,1.107,1.152,2.219,1.152s1.851-0.384,2.219-1.152
		c0.368-0.768,0.552-1.888,0.552-3.359v-13.009h2.745v12.889c0,1.472-0.154,2.696-0.461,3.672c-0.308,0.976-0.864,1.736-1.667,2.28
		c-0.804,0.544-1.933,0.815-3.387,0.815S452.889,586.51,452.077,585.966z"/>
	<path d="M464.955,585.27c-0.915-1.008-1.424-2.392-1.526-4.152l2.565-0.647c0.085,1.248,0.346,2.256,0.782,3.023
		c0.436,0.769,1.159,1.152,2.168,1.152c0.752,0,1.321-0.196,1.706-0.588s0.577-0.956,0.577-1.692c0-0.783-0.18-1.436-0.539-1.956
		c-0.359-0.52-0.932-1.116-1.719-1.788l-3.489-2.88c-0.702-0.592-1.21-1.22-1.526-1.884s-0.475-1.468-0.475-2.412
		c0-1.439,0.444-2.548,1.334-3.324c0.889-0.775,2.112-1.164,3.668-1.164c1.625,0,2.839,0.408,3.643,1.225
		c0.804,0.815,1.291,2.08,1.462,3.792l-2.462,0.624c-0.086-1.104-0.308-1.972-0.667-2.604c-0.359-0.632-0.992-0.947-1.898-0.947
		c-1.659,0-2.489,0.712-2.489,2.136c0,0.576,0.103,1.052,0.308,1.428s0.556,0.78,1.052,1.212l3.515,2.88
		c0.906,0.784,1.629,1.612,2.167,2.484c0.539,0.872,0.808,1.86,0.808,2.964c0,1.424-0.461,2.553-1.385,3.384
		c-0.923,0.832-2.121,1.248-3.591,1.248C467.199,586.781,465.869,586.277,464.955,585.27z"/>
	<path d="M476.178,586.565v-19.44h8.055v2.017h-5.156v6.432h4.182v1.92h-4.182v7.128h5.208v1.944H476.178z"/>
	<path d="M486.619,567.125h4.515c2.24,0,3.826,0.48,4.759,1.44c0.932,0.96,1.398,2.456,1.398,4.488v7.151
		c0,2.145-0.458,3.74-1.373,4.788c-0.915,1.049-2.433,1.572-4.553,1.572h-4.746V567.125z M491.159,584.621
		c1.009,0,1.74-0.184,2.193-0.552s0.735-0.867,0.847-1.5c0.111-0.632,0.167-1.588,0.167-2.868v-6.312
		c0-1.104-0.073-1.948-0.218-2.532c-0.146-0.584-0.449-1.016-0.911-1.296s-1.18-0.42-2.155-0.42h-1.565v15.479H491.159z"/>
	<path d="M506.012,567.125h4.771c1.881,0,3.275,0.396,4.182,1.188c0.906,0.792,1.359,2.021,1.359,3.684
		c0,2.48-0.992,3.849-2.976,4.104c1.231,0.272,2.129,0.812,2.694,1.62c0.564,0.808,0.846,1.908,0.846,3.3
		c0,1.744-0.44,3.104-1.321,4.08c-0.881,0.976-2.219,1.464-4.015,1.464h-5.541V567.125z M510.63,575.237
		c1.197,0,2.026-0.243,2.488-0.731s0.693-1.324,0.693-2.509c0-0.863-0.141-1.5-0.423-1.907c-0.282-0.408-0.706-0.668-1.27-0.78
		s-1.402-0.168-2.514-0.168h-0.692v6.096H510.63z M510.861,584.621c0.855,0,1.518-0.123,1.988-0.372
		c0.47-0.247,0.799-0.627,0.988-1.14c0.188-0.512,0.282-1.208,0.282-2.088c0-1.248-0.274-2.18-0.821-2.796
		c-0.547-0.616-1.437-0.924-2.668-0.924h-1.719v7.319H510.861z"/>
	<path d="M522.635,586.565v-6.864l-4.49-12.576h2.694l3.181,9.385l3.13-9.385h2.719l-4.464,12.576v6.864H522.635z"/>
	<path d="M538.578,585.27c-0.915-1.008-1.424-2.392-1.526-4.152l2.565-0.647c0.085,1.248,0.346,2.256,0.782,3.023
		c0.436,0.769,1.159,1.152,2.168,1.152c0.752,0,1.321-0.196,1.706-0.588s0.577-0.956,0.577-1.692c0-0.783-0.18-1.436-0.539-1.956
		c-0.359-0.52-0.932-1.116-1.719-1.788l-3.489-2.88c-0.702-0.592-1.21-1.22-1.526-1.884s-0.475-1.468-0.475-2.412
		c0-1.439,0.444-2.548,1.334-3.324c0.889-0.775,2.112-1.164,3.668-1.164c1.625,0,2.839,0.408,3.643,1.225
		c0.804,0.815,1.291,2.08,1.462,3.792l-2.462,0.624c-0.086-1.104-0.308-1.972-0.667-2.604c-0.359-0.632-0.992-0.947-1.898-0.947
		c-1.659,0-2.489,0.712-2.489,2.136c0,0.576,0.103,1.052,0.308,1.428s0.556,0.78,1.052,1.212l3.515,2.88
		c0.906,0.784,1.629,1.612,2.167,2.484c0.539,0.872,0.808,1.86,0.808,2.964c0,1.424-0.461,2.553-1.385,3.384
		c-0.923,0.832-2.121,1.248-3.591,1.248C540.823,586.781,539.493,586.277,538.578,585.27z"/>
	<path d="M550.738,585.161c-0.881-1.08-1.321-2.644-1.321-4.691v-7.368c0-2.017,0.444-3.544,1.334-4.584
		c0.889-1.04,2.343-1.561,4.361-1.561s3.467,0.524,4.349,1.572c0.88,1.048,1.321,2.572,1.321,4.572v7.392
		c0,2.017-0.445,3.568-1.334,4.656c-0.89,1.088-2.335,1.632-4.336,1.632C553.076,586.781,551.618,586.241,550.738,585.161z
		 M557.292,583.758c0.376-0.592,0.564-1.488,0.564-2.688v-8.52c0-1.185-0.188-2.061-0.564-2.628
		c-0.376-0.568-1.103-0.853-2.181-0.853c-1.095,0-1.83,0.284-2.206,0.853c-0.376,0.567-0.564,1.443-0.564,2.628v8.52
		c0,1.2,0.188,2.097,0.564,2.688s1.111,0.888,2.206,0.888C556.189,584.646,556.916,584.35,557.292,583.758z"/>
	<path d="M563.577,586.565l0.385-19.44h2.848l3.669,15.769l3.693-15.769h2.822l0.385,19.44h-2.334l-0.231-14.112l-3.515,14.112
		h-1.643l-3.488-14.112l-0.23,14.112H563.577z"/>
	<path d="M580.56,586.565v-19.44h8.056v2.017h-5.156v6.432h4.182v1.92h-4.182v7.128h5.207v1.944H580.56z"/>
</g>
<g>
	<path d="M693.162,585.967c-0.812-0.544-1.372-1.305-1.68-2.28c-0.309-0.976-0.462-2.2-0.462-3.672v-12.889h2.771v13.009
		c0,1.472,0.184,2.592,0.552,3.359c0.368,0.769,1.106,1.152,2.219,1.152s1.851-0.384,2.22-1.152
		c0.367-0.768,0.551-1.888,0.551-3.359v-13.009h2.745v12.889c0,1.472-0.153,2.696-0.462,3.672c-0.308,0.976-0.863,1.736-1.667,2.28
		s-1.933,0.815-3.387,0.815S693.975,586.511,693.162,585.967z"/>
	<path d="M706.041,585.271c-0.916-1.008-1.424-2.392-1.527-4.152l2.566-0.647c0.085,1.248,0.346,2.256,0.781,3.023
		c0.437,0.769,1.159,1.152,2.168,1.152c0.753,0,1.322-0.196,1.707-0.588s0.576-0.956,0.576-1.692c0-0.783-0.18-1.436-0.539-1.956
		c-0.358-0.52-0.932-1.116-1.719-1.788l-3.488-2.88c-0.701-0.592-1.21-1.22-1.526-1.884s-0.475-1.468-0.475-2.412
		c0-1.439,0.444-2.548,1.334-3.324c0.89-0.775,2.112-1.164,3.669-1.164c1.624,0,2.838,0.408,3.643,1.225
		c0.804,0.815,1.291,2.08,1.462,3.792l-2.462,0.624c-0.086-1.104-0.309-1.972-0.668-2.604c-0.359-0.632-0.992-0.947-1.898-0.947
		c-1.658,0-2.488,0.712-2.488,2.136c0,0.576,0.104,1.052,0.309,1.428s0.555,0.78,1.051,1.212l3.516,2.88
		c0.906,0.784,1.629,1.612,2.167,2.484c0.539,0.872,0.808,1.86,0.808,2.964c0,1.424-0.461,2.553-1.385,3.384
		c-0.924,0.832-2.121,1.248-3.592,1.248C708.285,586.782,706.955,586.278,706.041,585.271z"/>
	<path d="M717.264,586.566v-19.44h8.055v2.017h-5.156v6.432h4.182v1.92h-4.182v7.128h5.208v1.944H717.264z"/>
	<path d="M727.705,567.126h4.515c2.24,0,3.826,0.48,4.759,1.44c0.932,0.96,1.398,2.456,1.398,4.488v7.151
		c0,2.145-0.459,3.74-1.373,4.788c-0.915,1.049-2.434,1.572-4.553,1.572h-4.746V567.126z M732.245,584.622
		c1.009,0,1.74-0.184,2.193-0.552s0.735-0.867,0.847-1.5c0.111-0.632,0.167-1.588,0.167-2.868v-6.312
		c0-1.104-0.073-1.948-0.218-2.532c-0.146-0.584-0.449-1.016-0.911-1.296s-1.181-0.42-2.155-0.42h-1.564v15.479H732.245z"/>
	<path d="M747.098,567.126h4.771c1.882,0,3.275,0.396,4.182,1.188s1.359,2.021,1.359,3.684c0,2.48-0.991,3.849-2.975,4.104
		c1.23,0.272,2.129,0.812,2.693,1.62s0.846,1.908,0.846,3.3c0,1.744-0.439,3.104-1.32,4.08s-2.219,1.464-4.016,1.464h-5.541V567.126
		z M751.716,575.238c1.196,0,2.026-0.243,2.488-0.731s0.692-1.324,0.692-2.509c0-0.863-0.141-1.5-0.423-1.907
		c-0.282-0.408-0.706-0.668-1.271-0.78s-1.402-0.168-2.514-0.168h-0.692v6.096H751.716z M751.947,584.622
		c0.854,0,1.518-0.123,1.987-0.372c0.47-0.247,0.8-0.627,0.987-1.14c0.188-0.512,0.283-1.208,0.283-2.088
		c0-1.248-0.274-2.18-0.821-2.796c-0.548-0.616-1.437-0.924-2.668-0.924h-1.719v7.319H751.947z"/>
	<path d="M763.721,586.566v-6.864l-4.489-12.576h2.694l3.181,9.385l3.13-9.385h2.719l-4.463,12.576v6.864H763.721z"/>
	<path d="M778.702,586.566l0.385-19.44h2.848l3.669,15.769l3.693-15.769h2.822l0.385,19.44h-2.334l-0.231-14.112l-3.515,14.112
		h-1.643l-3.488-14.112l-0.23,14.112H778.702z"/>
	<path d="M794.556,586.566l4.413-19.44h2.796l4.438,19.44h-2.746l-0.949-4.896h-4.232l-1,4.896H794.556z M798.66,579.727h3.463
		l-1.744-8.76L798.66,579.727z"/>
	<path d="M808.306,586.566v-19.44h1.976l5.9,12.912v-12.912h2.411v19.44h-1.847l-5.978-13.272v13.272H808.306z"/>
	<path d="M825.031,586.566v-6.864l-4.489-12.576h2.694l3.181,9.385l3.13-9.385h2.719l-4.463,12.576v6.864H825.031z"/>
</g>
<g>
	<path d="M943.561,585.967c-0.812-0.544-1.372-1.305-1.68-2.28c-0.309-0.976-0.462-2.2-0.462-3.672v-12.889h2.771v13.009
		c0,1.472,0.184,2.592,0.552,3.359c0.368,0.769,1.106,1.152,2.219,1.152s1.851-0.384,2.22-1.152
		c0.367-0.768,0.551-1.888,0.551-3.359v-13.009h2.745v12.889c0,1.472-0.153,2.696-0.462,3.672c-0.308,0.976-0.863,1.736-1.667,2.28
		s-1.933,0.815-3.387,0.815S944.373,586.511,943.561,585.967z"/>
	<path d="M956.439,585.271c-0.916-1.008-1.424-2.392-1.527-4.152l2.566-0.647c0.085,1.248,0.346,2.256,0.781,3.023
		c0.437,0.769,1.159,1.152,2.168,1.152c0.753,0,1.322-0.196,1.707-0.588s0.576-0.956,0.576-1.692c0-0.783-0.18-1.436-0.539-1.956
		c-0.358-0.52-0.932-1.116-1.719-1.788l-3.488-2.88c-0.701-0.592-1.21-1.22-1.526-1.884s-0.475-1.468-0.475-2.412
		c0-1.439,0.444-2.548,1.334-3.324c0.89-0.775,2.112-1.164,3.669-1.164c1.624,0,2.838,0.408,3.643,1.225
		c0.804,0.815,1.291,2.08,1.462,3.792l-2.462,0.624c-0.086-1.104-0.309-1.972-0.668-2.604c-0.359-0.632-0.992-0.947-1.898-0.947
		c-1.658,0-2.488,0.712-2.488,2.136c0,0.576,0.104,1.052,0.309,1.428s0.555,0.78,1.051,1.212l3.516,2.88
		c0.906,0.784,1.629,1.612,2.167,2.484c0.539,0.872,0.808,1.86,0.808,2.964c0,1.424-0.461,2.553-1.385,3.384
		c-0.924,0.832-2.121,1.248-3.592,1.248C958.684,586.782,957.354,586.278,956.439,585.271z"/>
	<path d="M967.662,586.566v-19.44h8.055v2.017h-5.156v6.432h4.182v1.92h-4.182v7.128h5.208v1.944H967.662z"/>
	<path d="M978.104,567.126h4.515c2.24,0,3.826,0.48,4.759,1.44c0.932,0.96,1.398,2.456,1.398,4.488v7.151
		c0,2.145-0.459,3.74-1.373,4.788c-0.915,1.049-2.434,1.572-4.553,1.572h-4.746V567.126z M982.644,584.622
		c1.009,0,1.74-0.184,2.193-0.552s0.735-0.867,0.847-1.5c0.111-0.632,0.167-1.588,0.167-2.868v-6.312
		c0-1.104-0.073-1.948-0.218-2.532c-0.146-0.584-0.449-1.016-0.911-1.296s-1.181-0.42-2.155-0.42h-1.564v15.479H982.644z"/>
	<path d="M997.496,567.126h4.771c1.882,0,3.275,0.396,4.182,1.188s1.359,2.021,1.359,3.684c0,2.48-0.991,3.849-2.975,4.104
		c1.23,0.272,2.129,0.812,2.693,1.62s0.846,1.908,0.846,3.3c0,1.744-0.439,3.104-1.32,4.08s-2.219,1.464-4.016,1.464h-5.541V567.126
		z M1002.114,575.238c1.196,0,2.026-0.243,2.488-0.731s0.692-1.324,0.692-2.509c0-0.863-0.141-1.5-0.423-1.907
		c-0.282-0.408-0.706-0.668-1.271-0.78s-1.402-0.168-2.514-0.168h-0.692v6.096H1002.114z M1002.346,584.622
		c0.854,0,1.518-0.123,1.987-0.372c0.47-0.247,0.8-0.627,0.987-1.14c0.188-0.512,0.283-1.208,0.283-2.088
		c0-1.248-0.274-2.18-0.821-2.796c-0.548-0.616-1.437-0.924-2.668-0.924h-1.719v7.319H1002.346z"/>
	<path d="M1014.119,586.566v-6.864l-4.489-12.576h2.694l3.181,9.385l3.13-9.385h2.719l-4.463,12.576v6.864H1014.119z"/>
	<path d="M1028.023,586.566l4.412-19.44h2.797l4.438,19.44h-2.745l-0.949-4.896h-4.233l-1,4.896H1028.023z M1032.127,579.727h3.464
		l-1.745-8.76L1032.127,579.727z"/>
	<path d="M1041.773,586.566v-19.44h2.898v17.496h5.311v1.944H1041.773z"/>
	<path d="M1051.957,586.566v-19.44h2.898v17.496h5.311v1.944H1051.957z"/>
</g>
<g>
	<path d="M103.257,490.688c-0.812-0.544-1.373-1.305-1.68-2.28c-0.308-0.976-0.462-2.2-0.462-3.672v-12.889h2.771v13.009
		c0,1.472,0.184,2.592,0.552,3.359c0.368,0.769,1.107,1.152,2.219,1.152s1.851-0.384,2.219-1.152
		c0.368-0.768,0.552-1.888,0.552-3.359v-13.009h2.745v12.889c0,1.472-0.154,2.696-0.461,3.672c-0.308,0.976-0.864,1.736-1.667,2.28
		c-0.804,0.544-1.933,0.815-3.387,0.815S104.069,491.231,103.257,490.688z"/>
	<path d="M116.135,489.991c-0.915-1.008-1.424-2.392-1.526-4.152l2.565-0.647c0.085,1.248,0.346,2.256,0.782,3.023
		c0.436,0.769,1.159,1.152,2.168,1.152c0.752,0,1.321-0.196,1.706-0.588s0.577-0.956,0.577-1.692c0-0.783-0.18-1.436-0.539-1.956
		c-0.359-0.52-0.932-1.116-1.719-1.788l-3.489-2.88c-0.702-0.592-1.21-1.22-1.526-1.884s-0.475-1.468-0.475-2.412
		c0-1.439,0.444-2.548,1.334-3.324c0.889-0.775,2.112-1.164,3.668-1.164c1.625,0,2.839,0.408,3.643,1.225
		c0.804,0.815,1.291,2.08,1.462,3.792l-2.462,0.624c-0.086-1.104-0.308-1.972-0.667-2.604c-0.359-0.632-0.992-0.947-1.898-0.947
		c-1.659,0-2.489,0.712-2.489,2.136c0,0.576,0.103,1.052,0.308,1.428s0.556,0.78,1.052,1.212l3.515,2.88
		c0.906,0.784,1.629,1.612,2.167,2.484c0.539,0.872,0.808,1.86,0.808,2.964c0,1.424-0.461,2.553-1.385,3.384
		c-0.923,0.832-2.121,1.248-3.591,1.248C118.379,491.503,117.049,490.999,116.135,489.991z"/>
	<path d="M127.358,491.287v-19.44h8.055v2.017h-5.156v6.432h4.182v1.92h-4.182v7.128h5.208v1.944H127.358z"/>
	<path d="M137.799,471.847h4.515c2.24,0,3.826,0.48,4.759,1.44c0.932,0.96,1.398,2.456,1.398,4.488v7.151
		c0,2.145-0.458,3.74-1.373,4.788c-0.915,1.049-2.433,1.572-4.553,1.572h-4.746V471.847z M142.339,489.343
		c1.009,0,1.74-0.184,2.193-0.552s0.735-0.867,0.847-1.5c0.111-0.632,0.167-1.588,0.167-2.868v-6.312
		c0-1.104-0.073-1.948-0.218-2.532c-0.146-0.584-0.449-1.016-0.911-1.296s-1.18-0.42-2.155-0.42h-1.565v15.479H142.339z"/>
	<path d="M79.848,500.646h4.182c2.104,0,3.646,0.404,4.63,1.213c0.983,0.808,1.475,2.124,1.475,3.947
		c0,2.496-0.855,4.008-2.565,4.536l2.95,9.744h-2.796l-2.719-9.12h-2.257v9.12h-2.899V500.646z M83.85,509.022
		c1.248,0,2.142-0.231,2.681-0.695c0.539-0.464,0.808-1.304,0.808-2.521c0-0.8-0.094-1.428-0.282-1.884
		c-0.188-0.456-0.522-0.792-1-1.008c-0.479-0.216-1.154-0.324-2.026-0.324h-1.283v6.432H83.85z"/>
	<path d="M92.033,520.087l4.413-19.44h2.796l4.438,19.44h-2.745l-0.949-4.896h-4.233l-1,4.896H92.033z M96.138,513.247h3.463
		l-1.745-8.76L96.138,513.247z"/>
	<path d="M105.783,500.646h4.182c2.104,0,3.646,0.404,4.63,1.213c0.983,0.808,1.475,2.124,1.475,3.947
		c0,2.496-0.855,4.008-2.565,4.536l2.95,9.744h-2.796l-2.719-9.12h-2.257v9.12h-2.899V500.646z M109.785,509.022
		c1.248,0,2.142-0.231,2.681-0.695c0.539-0.464,0.808-1.304,0.808-2.521c0-0.8-0.094-1.428-0.282-1.884
		c-0.188-0.456-0.522-0.792-1-1.008c-0.479-0.216-1.154-0.324-2.026-0.324h-1.283v6.432H109.785z"/>
	<path d="M119.097,520.087v-19.44h8.055v2.017h-5.156v6.432h4.182v1.92h-4.182v7.128h5.208v1.944H119.097z"/>
	<path d="M129.538,520.087v-19.44h2.899v17.496h5.31v1.944H129.538z"/>
	<path d="M142.16,520.087v-6.864l-4.49-12.576h2.694l3.181,9.385l3.13-9.385h2.719l-4.464,12.576v6.864H142.16z"/>
</g>
<g>
	<path d="M103.258,74.188c-0.812-0.544-1.373-1.305-1.68-2.28c-0.308-0.976-0.462-2.2-0.462-3.672V55.347h2.771v13.009
		c0,1.472,0.184,2.592,0.552,3.359c0.368,0.769,1.107,1.152,2.219,1.152s1.851-0.384,2.219-1.152
		c0.368-0.768,0.552-1.888,0.552-3.359V55.347h2.745v12.889c0,1.472-0.154,2.696-0.461,3.672c-0.308,0.976-0.864,1.736-1.667,2.28
		c-0.804,0.544-1.933,0.815-3.387,0.815S104.07,74.731,103.258,74.188z"/>
	<path d="M116.136,73.491c-0.915-1.008-1.424-2.392-1.526-4.152l2.565-0.647c0.085,1.248,0.346,2.256,0.782,3.023
		c0.436,0.769,1.159,1.152,2.168,1.152c0.752,0,1.321-0.196,1.706-0.588s0.577-0.956,0.577-1.692c0-0.783-0.18-1.436-0.539-1.956
		c-0.359-0.52-0.932-1.116-1.719-1.788l-3.489-2.88c-0.702-0.592-1.21-1.22-1.526-1.884s-0.475-1.468-0.475-2.412
		c0-1.439,0.444-2.548,1.334-3.324c0.889-0.775,2.112-1.164,3.668-1.164c1.625,0,2.839,0.408,3.643,1.225
		c0.804,0.815,1.291,2.08,1.462,3.792l-2.462,0.624c-0.086-1.104-0.308-1.972-0.667-2.604c-0.359-0.632-0.992-0.947-1.898-0.947
		c-1.659,0-2.489,0.712-2.489,2.136c0,0.576,0.103,1.052,0.308,1.428s0.556,0.78,1.052,1.212l3.515,2.88
		c0.906,0.784,1.629,1.612,2.167,2.484c0.539,0.872,0.808,1.86,0.808,2.964c0,1.424-0.461,2.553-1.385,3.384
		c-0.923,0.832-2.121,1.248-3.591,1.248C118.38,75.003,117.05,74.499,116.136,73.491z"/>
	<path d="M127.359,74.787v-19.44h8.055v2.017h-5.156v6.432h4.182v1.92h-4.182v7.128h5.208v1.944H127.359z"/>
	<path d="M137.8,55.347h4.515c2.24,0,3.826,0.48,4.759,1.44c0.932,0.96,1.398,2.456,1.398,4.488v7.151
		c0,2.145-0.458,3.74-1.373,4.788c-0.915,1.049-2.433,1.572-4.553,1.572H137.8V55.347z M142.34,72.843
		c1.009,0,1.74-0.184,2.193-0.552s0.735-0.867,0.847-1.5c0.111-0.632,0.167-1.588,0.167-2.868v-6.312
		c0-1.104-0.073-1.948-0.218-2.532c-0.146-0.584-0.449-1.016-0.911-1.296s-1.18-0.42-2.155-0.42h-1.565v15.479H142.34z"/>
	<path d="M73.487,103.587l4.413-19.44h2.796l4.438,19.44h-2.745L81.44,98.69h-4.233l-1,4.896H73.487z M77.592,96.747h3.463
		l-1.745-8.76L77.592,96.747z"/>
	<path d="M87.237,103.587v-19.44h2.899v17.496h5.31v1.944H87.237z"/>
	<path d="M99.5,103.587l-3.386-19.44h2.412l2.232,13.969l2.796-13.896h2.052l2.822,13.968l2.181-14.04h2.36l-3.335,19.44h-2.104
		l-2.899-14.4l-2.924,14.4H99.5z"/>
	<path d="M113.635,103.587l4.413-19.44h2.796l4.438,19.44h-2.745l-0.949-4.896h-4.233l-1,4.896H113.635z M117.739,96.747h3.463
		l-1.745-8.76L117.739,96.747z"/>
	<path d="M130.027,103.587v-6.864l-4.49-12.576h2.694l3.181,9.385l3.13-9.385h2.719l-4.464,12.576v6.864H130.027z"/>
	<path d="M140.096,102.291c-0.915-1.008-1.424-2.392-1.526-4.152l2.565-0.647c0.085,1.248,0.346,2.256,0.782,3.023
		c0.436,0.769,1.159,1.152,2.168,1.152c0.752,0,1.321-0.196,1.706-0.588s0.577-0.956,0.577-1.692c0-0.783-0.18-1.436-0.539-1.956
		c-0.359-0.52-0.932-1.116-1.719-1.788l-3.489-2.88c-0.702-0.592-1.21-1.22-1.526-1.884s-0.475-1.468-0.475-2.412
		c0-1.439,0.444-2.548,1.334-3.324c0.889-0.775,2.112-1.164,3.668-1.164c1.625,0,2.839,0.408,3.643,1.225
		c0.804,0.815,1.291,2.08,1.462,3.792l-2.462,0.624c-0.086-1.104-0.308-1.972-0.667-2.604c-0.359-0.632-0.992-0.947-1.898-0.947
		c-1.659,0-2.489,0.712-2.489,2.136c0,0.576,0.103,1.052,0.308,1.428s0.556,0.78,1.052,1.212l3.515,2.88
		c0.906,0.784,1.629,1.612,2.167,2.484c0.539,0.872,0.808,1.86,0.808,2.964c0,1.424-0.461,2.553-1.385,3.384
		c-0.923,0.832-2.121,1.248-3.591,1.248C142.34,103.803,141.01,103.299,140.096,102.291z"/>
</g>
<g>
	<path d="M103.258,206.203c-0.812-0.544-1.373-1.305-1.68-2.28c-0.308-0.976-0.462-2.2-0.462-3.672v-12.889h2.771v13.009
		c0,1.472,0.184,2.592,0.552,3.359c0.368,0.769,1.107,1.152,2.219,1.152s1.851-0.384,2.219-1.152
		c0.368-0.768,0.552-1.888,0.552-3.359v-13.009h2.745v12.889c0,1.472-0.154,2.696-0.461,3.672c-0.308,0.976-0.864,1.736-1.667,2.28
		c-0.804,0.544-1.933,0.815-3.387,0.815S104.07,206.747,103.258,206.203z"/>
	<path d="M116.136,205.507c-0.915-1.008-1.424-2.392-1.526-4.152l2.565-0.647c0.085,1.248,0.346,2.256,0.782,3.023
		c0.436,0.769,1.159,1.152,2.168,1.152c0.752,0,1.321-0.196,1.706-0.588s0.577-0.956,0.577-1.692c0-0.783-0.18-1.436-0.539-1.956
		c-0.359-0.52-0.932-1.116-1.719-1.788l-3.489-2.88c-0.702-0.592-1.21-1.22-1.526-1.884s-0.475-1.468-0.475-2.412
		c0-1.439,0.444-2.548,1.334-3.324c0.889-0.775,2.112-1.164,3.668-1.164c1.625,0,2.839,0.408,3.643,1.225
		c0.804,0.815,1.291,2.08,1.462,3.792l-2.462,0.624c-0.086-1.104-0.308-1.972-0.667-2.604c-0.359-0.632-0.992-0.947-1.898-0.947
		c-1.659,0-2.489,0.712-2.489,2.136c0,0.576,0.103,1.052,0.308,1.428s0.556,0.78,1.052,1.212l3.515,2.88
		c0.906,0.784,1.629,1.612,2.167,2.484c0.539,0.872,0.808,1.86,0.808,2.964c0,1.424-0.461,2.553-1.385,3.384
		c-0.923,0.832-2.121,1.248-3.591,1.248C118.38,207.019,117.05,206.515,116.136,205.507z"/>
	<path d="M127.359,206.803v-19.44h8.055v2.017h-5.156v6.432h4.182v1.92h-4.182v7.128h5.208v1.944H127.359z"/>
	<path d="M137.8,187.362h4.515c2.24,0,3.826,0.48,4.759,1.44c0.932,0.96,1.398,2.456,1.398,4.488v7.151
		c0,2.145-0.458,3.74-1.373,4.788c-0.915,1.049-2.433,1.572-4.553,1.572H137.8V187.362z M142.34,204.858
		c1.009,0,1.74-0.184,2.193-0.552s0.735-0.867,0.847-1.5c0.111-0.632,0.167-1.588,0.167-2.868v-6.312
		c0-1.104-0.073-1.948-0.218-2.532c-0.146-0.584-0.449-1.016-0.911-1.296s-1.18-0.42-2.155-0.42h-1.565v15.479H142.34z"/>
	<path d="M33.699,235.603v-19.44h8.03v1.944h-5.131v6.48h3.976v1.92h-3.976v9.096H33.699z"/>
	<path d="M43.729,216.162h4.182c2.104,0,3.646,0.404,4.63,1.213c0.983,0.808,1.475,2.124,1.475,3.947
		c0,2.496-0.855,4.008-2.565,4.536l2.95,9.744h-2.796l-2.719-9.12h-2.257v9.12h-2.899V216.162z M47.731,224.538
		c1.248,0,2.142-0.231,2.681-0.695c0.539-0.464,0.808-1.304,0.808-2.521c0-0.8-0.094-1.428-0.282-1.884
		c-0.188-0.456-0.522-0.792-1-1.008c-0.479-0.216-1.154-0.324-2.026-0.324h-1.283v6.432H47.731z"/>
	<path d="M57.043,235.603v-19.44h8.055v2.017h-5.156v6.432h4.182v1.92h-4.182v7.128h5.208v1.944H57.043z"/>
	<path d="M73.282,235.795l-0.488,0.023c-2.035,0-3.493-0.54-4.374-1.62c-0.881-1.08-1.321-2.644-1.321-4.691v-7.368
		c0-2.017,0.444-3.544,1.334-4.584c0.889-1.04,2.343-1.561,4.361-1.561s3.472,0.524,4.361,1.572
		c0.889,1.048,1.334,2.572,1.334,4.572v7.392c0,3.089-1.018,5.032-3.053,5.832c0.855,1.04,1.539,1.72,2.052,2.04l-0.462,2.136
		C75.983,239.059,74.735,237.811,73.282,235.795z M75,232.795c0.376-0.592,0.564-1.488,0.564-2.688v-8.52
		c0-1.185-0.188-2.061-0.564-2.628c-0.376-0.568-1.112-0.853-2.207-0.853s-1.83,0.284-2.206,0.853
		c-0.376,0.567-0.564,1.443-0.564,2.628v8.52c0,1.2,0.188,2.097,0.564,2.688c0.376,0.592,1.111,0.888,2.206,0.888
		S74.624,233.387,75,232.795z"/>
	<path d="M83.325,235.003c-0.812-0.544-1.373-1.305-1.68-2.28c-0.308-0.976-0.462-2.2-0.462-3.672v-12.889h2.771v13.009
		c0,1.472,0.184,2.592,0.552,3.359c0.368,0.769,1.107,1.152,2.219,1.152s1.851-0.384,2.219-1.152
		c0.368-0.768,0.552-1.888,0.552-3.359v-13.009h2.745v12.889c0,1.472-0.154,2.696-0.461,3.672c-0.308,0.976-0.864,1.736-1.667,2.28
		c-0.804,0.544-1.933,0.815-3.387,0.815S84.137,235.547,83.325,235.003z"/>
	<path d="M95.292,235.603v-19.44h8.055v2.017h-5.156v6.432h4.182v1.92h-4.182v7.128h5.208v1.944H95.292z"/>
	<path d="M105.733,235.603v-19.44h1.975l5.9,12.912v-12.912h2.412v19.44h-1.847l-5.977-13.272v13.272H105.733z"/>
	<path d="M121.407,235.603v-17.424h-3.771v-2.017h10.339v2.017h-3.669v17.424H121.407z"/>
	<path d="M129.539,235.603v-19.44h2.899v17.496h5.31v1.944H129.539z"/>
	<path d="M142.161,235.603v-6.864l-4.49-12.576h2.694l3.181,9.385l3.13-9.385h2.719l-4.464,12.576v6.864H142.161z"/>
</g>
<g>
	<path d="M103.257,339.574c-0.812-0.544-1.373-1.305-1.68-2.28c-0.308-0.976-0.462-2.2-0.462-3.672v-12.889h2.771v13.009
		c0,1.472,0.184,2.592,0.552,3.359c0.368,0.769,1.107,1.152,2.219,1.152s1.851-0.384,2.219-1.152
		c0.368-0.768,0.552-1.888,0.552-3.359v-13.009h2.745v12.889c0,1.472-0.154,2.696-0.461,3.672c-0.308,0.976-0.864,1.736-1.667,2.28
		c-0.804,0.544-1.933,0.815-3.387,0.815S104.069,340.118,103.257,339.574z"/>
	<path d="M116.135,338.878c-0.915-1.008-1.424-2.392-1.526-4.152l2.565-0.647c0.085,1.248,0.346,2.256,0.782,3.023
		c0.436,0.769,1.159,1.152,2.168,1.152c0.752,0,1.321-0.196,1.706-0.588s0.577-0.956,0.577-1.692c0-0.783-0.18-1.436-0.539-1.956
		c-0.359-0.52-0.932-1.116-1.719-1.788l-3.489-2.88c-0.702-0.592-1.21-1.22-1.526-1.884s-0.475-1.468-0.475-2.412
		c0-1.439,0.444-2.548,1.334-3.324c0.889-0.775,2.112-1.164,3.668-1.164c1.625,0,2.839,0.408,3.643,1.225
		c0.804,0.815,1.291,2.08,1.462,3.792l-2.462,0.624c-0.086-1.104-0.308-1.972-0.667-2.604c-0.359-0.632-0.992-0.947-1.898-0.947
		c-1.659,0-2.489,0.712-2.489,2.136c0,0.576,0.103,1.052,0.308,1.428s0.556,0.78,1.052,1.212l3.515,2.88
		c0.906,0.784,1.629,1.612,2.167,2.484c0.539,0.872,0.808,1.86,0.808,2.964c0,1.424-0.461,2.553-1.385,3.384
		c-0.923,0.832-2.121,1.248-3.591,1.248C118.379,340.39,117.049,339.886,116.135,338.878z"/>
	<path d="M127.358,340.174v-19.44h8.055v2.017h-5.156v6.432h4.182v1.92h-4.182v7.128h5.208v1.944H127.358z"/>
	<path d="M137.799,320.733h4.515c2.24,0,3.826,0.48,4.759,1.44c0.932,0.96,1.398,2.456,1.398,4.488v7.151
		c0,2.145-0.458,3.74-1.373,4.788c-0.915,1.049-2.433,1.572-4.553,1.572h-4.746V320.733z M142.339,338.229
		c1.009,0,1.74-0.184,2.193-0.552s0.735-0.867,0.847-1.5c0.111-0.632,0.167-1.588,0.167-2.868v-6.312
		c0-1.104-0.073-1.948-0.218-2.532c-0.146-0.584-0.449-1.016-0.911-1.296s-1.18-0.42-2.155-0.42h-1.565v15.479H142.339z"/>
	<path d="M8.931,367.569c-0.881-1.08-1.321-2.644-1.321-4.691v-7.368c0-2.017,0.444-3.544,1.334-4.584
		c0.889-1.04,2.343-1.561,4.361-1.561s3.467,0.524,4.349,1.572c0.88,1.048,1.321,2.572,1.321,4.572v7.392
		c0,2.017-0.445,3.568-1.334,4.656s-2.334,1.632-4.335,1.632C11.269,369.189,9.811,368.649,8.931,367.569z M15.485,366.166
		c0.376-0.592,0.564-1.488,0.564-2.688v-8.52c0-1.185-0.188-2.061-0.564-2.628c-0.376-0.568-1.103-0.853-2.181-0.853
		c-1.095,0-1.83,0.284-2.206,0.853c-0.376,0.567-0.564,1.443-0.564,2.628v8.52c0,1.2,0.188,2.097,0.564,2.688
		c0.376,0.592,1.111,0.888,2.206,0.888C14.382,367.054,15.108,366.758,15.485,366.166z"/>
	<path d="M22.693,367.474c-0.838-1.144-1.257-2.724-1.257-4.74v-6.863c0-2.128,0.41-3.744,1.231-4.849
		c0.821-1.104,2.274-1.656,4.361-1.656c1.864,0,3.203,0.473,4.015,1.416c0.812,0.944,1.218,2.337,1.218,4.177v1.535h-2.745v-1.367
		c0-0.896-0.043-1.584-0.128-2.064c-0.086-0.479-0.304-0.864-0.654-1.152c-0.351-0.287-0.911-0.432-1.68-0.432
		c-0.787,0-1.373,0.156-1.757,0.468c-0.385,0.312-0.637,0.744-0.757,1.296c-0.12,0.553-0.18,1.293-0.18,2.221v7.704
		c0,0.992,0.085,1.768,0.257,2.327c0.17,0.561,0.449,0.961,0.833,1.2c0.385,0.24,0.919,0.36,1.604,0.36
		c0.735,0,1.283-0.152,1.642-0.456c0.359-0.304,0.586-0.72,0.68-1.248c0.094-0.528,0.141-1.248,0.141-2.16v-1.439h2.745v1.439
		c0,1.937-0.389,3.42-1.167,4.452c-0.779,1.032-2.134,1.548-4.066,1.548C24.977,369.189,23.531,368.618,22.693,367.474z"/>
	<path d="M35.905,367.474c-0.838-1.144-1.257-2.724-1.257-4.74v-6.863c0-2.128,0.41-3.744,1.231-4.849
		c0.821-1.104,2.274-1.656,4.361-1.656c1.864,0,3.203,0.473,4.015,1.416c0.812,0.944,1.218,2.337,1.218,4.177v1.535h-2.745v-1.367
		c0-0.896-0.043-1.584-0.128-2.064c-0.086-0.479-0.304-0.864-0.654-1.152c-0.351-0.287-0.911-0.432-1.68-0.432
		c-0.787,0-1.373,0.156-1.757,0.468c-0.385,0.312-0.637,0.744-0.757,1.296c-0.12,0.553-0.18,1.293-0.18,2.221v7.704
		c0,0.992,0.085,1.768,0.257,2.327c0.17,0.561,0.449,0.961,0.833,1.2c0.385,0.24,0.919,0.36,1.604,0.36
		c0.735,0,1.283-0.152,1.642-0.456c0.359-0.304,0.586-0.72,0.68-1.248c0.094-0.528,0.141-1.248,0.141-2.16v-1.439h2.745v1.439
		c0,1.937-0.389,3.42-1.167,4.452c-0.779,1.032-2.134,1.548-4.066,1.548C38.188,369.189,36.743,368.618,35.905,367.474z"/>
	<path d="M47.115,368.974l4.413-19.44h2.796l4.438,19.44h-2.745l-0.949-4.896h-4.233l-1,4.896H47.115z M51.22,362.134h3.463
		l-1.745-8.76L51.22,362.134z"/>
	<path d="M61.776,367.678c-0.915-1.008-1.424-2.392-1.526-4.152l2.565-0.647c0.085,1.248,0.346,2.256,0.782,3.023
		c0.436,0.769,1.159,1.152,2.168,1.152c0.752,0,1.321-0.196,1.706-0.588s0.577-0.956,0.577-1.692c0-0.783-0.18-1.436-0.539-1.956
		c-0.359-0.52-0.932-1.116-1.719-1.788l-3.489-2.88c-0.702-0.592-1.21-1.22-1.526-1.884s-0.475-1.468-0.475-2.412
		c0-1.439,0.444-2.548,1.334-3.324c0.889-0.775,2.112-1.164,3.668-1.164c1.625,0,2.839,0.408,3.643,1.225
		c0.804,0.815,1.291,2.08,1.462,3.792l-2.462,0.624c-0.086-1.104-0.308-1.972-0.667-2.604c-0.359-0.632-0.992-0.947-1.898-0.947
		c-1.659,0-2.489,0.712-2.489,2.136c0,0.576,0.103,1.052,0.308,1.428s0.556,0.78,1.052,1.212l3.515,2.88
		c0.906,0.784,1.629,1.612,2.167,2.484c0.539,0.872,0.808,1.86,0.808,2.964c0,1.424-0.461,2.553-1.385,3.384
		c-0.923,0.832-2.121,1.248-3.591,1.248C64.021,369.189,62.69,368.686,61.776,367.678z"/>
	<path d="M73.153,368.974v-19.44H76v19.44H73.153z"/>
	<path d="M80.297,367.569c-0.881-1.08-1.321-2.644-1.321-4.691v-7.368c0-2.017,0.444-3.544,1.334-4.584
		c0.889-1.04,2.343-1.561,4.361-1.561s3.467,0.524,4.349,1.572c0.88,1.048,1.321,2.572,1.321,4.572v7.392
		c0,2.017-0.445,3.568-1.334,4.656s-2.334,1.632-4.335,1.632C82.636,369.189,81.178,368.649,80.297,367.569z M86.852,366.166
		c0.376-0.592,0.564-1.488,0.564-2.688v-8.52c0-1.185-0.188-2.061-0.564-2.628c-0.376-0.568-1.103-0.853-2.181-0.853
		c-1.095,0-1.83,0.284-2.206,0.853c-0.376,0.567-0.564,1.443-0.564,2.628v8.52c0,1.2,0.188,2.097,0.564,2.688
		c0.376,0.592,1.111,0.888,2.206,0.888C85.749,367.054,86.475,366.758,86.852,366.166z"/>
	<path d="M93.188,368.974v-19.44h1.975l5.9,12.912v-12.912h2.412v19.44h-1.847l-5.977-13.272v13.272H93.188z"/>
	<path d="M105.604,368.974l4.413-19.44h2.796l4.438,19.44h-2.745l-0.949-4.896h-4.233l-1,4.896H105.604z M109.708,362.134h3.463
		l-1.745-8.76L109.708,362.134z"/>
	<path d="M119.354,368.974v-19.44h2.899v17.496h5.31v1.944H119.354z"/>
	<path d="M129.538,368.974v-19.44h2.899v17.496h5.31v1.944H129.538z"/>
	<path d="M142.16,368.974v-6.864l-4.49-12.576h2.694l3.181,9.385l3.13-9.385h2.719l-4.464,12.576v6.864H142.16z"/>
</g>
<g>
	<path fill="#FFFFFF" d="M908.9,64.871l0.36-19.44h2.664l3.432,15.768l3.456-15.768h2.64l0.36,19.44h-2.184l-0.217-14.112
		l-3.287,14.112h-1.536l-3.265-14.112l-0.216,14.112H908.9z"/>
	<path fill="#FFFFFF" d="M924.74,48.935v-2.688h2.568v2.688H924.74z M924.74,64.871V50.999h2.568v13.872H924.74z"/>
	<path fill="#FFFFFF" d="M931.341,64.403c-0.593-0.44-0.996-1.056-1.212-1.848c-0.217-0.792-0.324-1.796-0.324-3.012v-3.192
		c0-1.248,0.107-2.272,0.324-3.072c0.216-0.8,0.619-1.412,1.212-1.836c0.592-0.423,1.432-0.636,2.52-0.636
		c0.992,0,1.764,0.16,2.316,0.48c0.552,0.32,0.936,0.796,1.151,1.428c0.217,0.632,0.324,1.452,0.324,2.46v0.816h-2.328v-0.84
		c0-0.912-0.1-1.548-0.3-1.908s-0.58-0.54-1.14-0.54c-0.433,0-0.753,0.096-0.96,0.288c-0.208,0.192-0.353,0.504-0.433,0.936
		c-0.08,0.432-0.12,1.064-0.12,1.896v4.368c0,0.8,0.049,1.413,0.145,1.836c0.096,0.424,0.252,0.72,0.468,0.888
		s0.524,0.252,0.924,0.252c0.592,0,0.976-0.196,1.152-0.588c0.176-0.392,0.264-0.996,0.264-1.812v-1.128h2.328v0.96
		c0,1.504-0.276,2.624-0.828,3.36c-0.552,0.736-1.54,1.104-2.964,1.104C932.772,65.062,931.933,64.843,931.341,64.403z"/>
	<path fill="#FFFFFF" d="M940.005,50.999h2.567v1.968c0.48-0.784,0.973-1.336,1.477-1.656c0.504-0.32,1.035-0.48,1.596-0.48
		c0.145,0,0.28,0.008,0.408,0.024v2.832c-0.513-0.192-0.984-0.288-1.416-0.288c-0.416,0-0.788,0.1-1.116,0.3
		s-0.644,0.548-0.948,1.044v10.128h-2.567V50.999z"/>
	<path fill="#FFFFFF" d="M948.297,63.754c-0.616-0.872-0.924-2.14-0.924-3.804v-4.032c0-1.664,0.308-2.932,0.924-3.804
		c0.615-0.872,1.66-1.308,3.132-1.308c1.456,0,2.492,0.436,3.108,1.308c0.615,0.872,0.924,2.14,0.924,3.804v4.032
		c0,1.664-0.309,2.932-0.924,3.804c-0.616,0.873-1.652,1.308-3.108,1.308C949.957,65.062,948.912,64.627,948.297,63.754z
		 M952.437,62.759c0.208-0.272,0.336-0.608,0.385-1.008c0.048-0.399,0.071-0.944,0.071-1.632v-4.344
		c0-0.688-0.023-1.236-0.071-1.644c-0.049-0.408-0.177-0.748-0.385-1.02s-0.544-0.408-1.008-0.408s-0.804,0.136-1.02,0.408
		c-0.217,0.272-0.349,0.612-0.396,1.02c-0.048,0.408-0.072,0.957-0.072,1.644v4.344c0,0.688,0.024,1.232,0.072,1.632
		c0.048,0.4,0.18,0.736,0.396,1.008c0.216,0.272,0.556,0.408,1.02,0.408S952.229,63.031,952.437,62.759z"/>
	<path fill="#FFFFFF" d="M958.305,64.007c-0.696-0.704-1.092-1.648-1.188-2.832l2.137-0.648c0.111,0.896,0.315,1.56,0.611,1.992
		s0.716,0.648,1.261,0.648c0.447,0,0.815-0.14,1.104-0.42c0.288-0.28,0.432-0.636,0.432-1.068c0-0.72-0.376-1.4-1.128-2.04
		l-2.376-2.04c-0.544-0.464-0.964-0.948-1.26-1.452s-0.444-1.124-0.444-1.86c0-1.104,0.32-1.96,0.961-2.568
		c0.64-0.608,1.512-0.912,2.615-0.912c1.057,0,1.885,0.34,2.484,1.02c0.6,0.68,0.948,1.556,1.044,2.628l-1.729,0.648
		c-0.111-0.784-0.296-1.38-0.552-1.788c-0.256-0.408-0.64-0.612-1.151-0.612c-0.417,0-0.753,0.136-1.009,0.408
		s-0.376,0.608-0.359,1.008c0,0.528,0.231,0.992,0.695,1.392l2.448,2.256c0.608,0.544,1.088,1.104,1.44,1.68
		c0.352,0.576,0.527,1.264,0.527,2.064c0,1.152-0.344,2.032-1.031,2.64c-0.688,0.608-1.624,0.912-2.809,0.912
		C959.908,65.062,959.001,64.711,958.305,64.007z"/>
	<path fill="#FFFFFF" d="M967.448,63.754c-0.616-0.872-0.924-2.14-0.924-3.804v-4.032c0-1.664,0.308-2.932,0.924-3.804
		c0.615-0.872,1.66-1.308,3.132-1.308c1.456,0,2.492,0.436,3.108,1.308c0.615,0.872,0.924,2.14,0.924,3.804v4.032
		c0,1.664-0.309,2.932-0.924,3.804c-0.616,0.873-1.652,1.308-3.108,1.308C969.108,65.062,968.063,64.627,967.448,63.754z
		 M971.588,62.759c0.208-0.272,0.336-0.608,0.385-1.008c0.048-0.399,0.071-0.944,0.071-1.632v-4.344
		c0-0.688-0.023-1.236-0.071-1.644c-0.049-0.408-0.177-0.748-0.385-1.02s-0.544-0.408-1.008-0.408s-0.804,0.136-1.02,0.408
		c-0.217,0.272-0.349,0.612-0.396,1.02c-0.048,0.408-0.072,0.957-0.072,1.644v4.344c0,0.688,0.024,1.232,0.072,1.632
		c0.048,0.4,0.18,0.736,0.396,1.008c0.216,0.272,0.556,0.408,1.02,0.408S971.38,63.031,971.588,62.759z"/>
	<path fill="#FFFFFF" d="M977.78,52.895h-1.656v-1.896h1.656v-0.72c0-0.96,0.071-1.732,0.216-2.316
		c0.144-0.583,0.436-1.036,0.876-1.356c0.439-0.32,1.076-0.48,1.908-0.48c0.367,0,0.928,0.04,1.68,0.12v1.92
		c-0.128-0.016-0.292-0.04-0.492-0.072s-0.356-0.048-0.468-0.048c-0.464,0-0.772,0.148-0.924,0.444
		c-0.152,0.296-0.229,0.748-0.229,1.356v1.152h2.112v1.896h-2.112v11.976h-2.567V52.895z"/>
	<path fill="#FFFFFF" d="M985.268,64.234c-0.464-0.552-0.704-1.38-0.72-2.484v-9.048h-1.464v-1.704h1.464v-4.056h2.567v4.056h2.232
		v1.704h-2.232v8.88c0,0.561,0.088,0.952,0.265,1.176c0.176,0.224,0.512,0.336,1.008,0.336c0.32,0,0.632-0.024,0.936-0.072v1.896
		c-0.64,0.096-1.231,0.144-1.775,0.144C986.491,65.062,985.731,64.787,985.268,64.234z"/>
	<path fill="#FFFFFF" d="M997.808,63.575c-0.856-1.008-1.332-2.392-1.429-4.152l2.4-0.648c0.08,1.248,0.324,2.256,0.732,3.024
		c0.407,0.768,1.083,1.152,2.027,1.152c0.704,0,1.236-0.196,1.597-0.588c0.359-0.392,0.54-0.956,0.54-1.692
		c0-0.784-0.168-1.436-0.505-1.956c-0.336-0.52-0.872-1.116-1.607-1.788l-3.264-2.88c-0.656-0.591-1.133-1.22-1.429-1.884
		c-0.296-0.664-0.443-1.468-0.443-2.412c0-1.44,0.415-2.548,1.248-3.324c0.831-0.776,1.976-1.164,3.432-1.164
		c1.52,0,2.655,0.408,3.408,1.224c0.752,0.816,1.208,2.08,1.368,3.792l-2.305,0.624c-0.08-1.104-0.288-1.972-0.624-2.604
		c-0.336-0.632-0.928-0.948-1.775-0.948c-1.553,0-2.328,0.712-2.328,2.136c0,0.576,0.096,1.052,0.288,1.428
		c0.191,0.376,0.52,0.78,0.983,1.212l3.288,2.88c0.848,0.784,1.524,1.612,2.028,2.484s0.756,1.86,0.756,2.964
		c0,1.424-0.432,2.552-1.296,3.384c-0.864,0.833-1.984,1.248-3.36,1.248C999.907,65.086,998.663,64.583,997.808,63.575z"/>
	<path fill="#FFFFFF" d="M1008.163,45.431h2.567v7.008c1.152-1.088,2.312-1.632,3.48-1.632c0.752,0,1.284,0.272,1.596,0.816
		c0.312,0.544,0.469,1.216,0.469,2.016v11.232h-2.568V54.383c0-0.528-0.08-0.92-0.24-1.176c-0.16-0.256-0.448-0.384-0.864-0.384
		c-0.56,0-1.184,0.304-1.872,0.912v11.136h-2.567V45.431z"/>
	<path fill="#FFFFFF" d="M1019.839,64.606c-0.425-0.304-0.756-0.704-0.996-1.2s-0.36-1.016-0.36-1.56
		c0-1.088,0.232-1.972,0.696-2.652s1.052-1.216,1.764-1.608c0.712-0.392,1.716-0.852,3.013-1.38v-0.984
		c0-0.912-0.093-1.556-0.276-1.932c-0.185-0.375-0.557-0.564-1.116-0.564c-0.976,0-1.464,0.656-1.464,1.968v0.696l-2.544-0.096
		l0.023-0.504c0.08-1.392,0.469-2.404,1.164-3.036c0.696-0.632,1.692-0.948,2.988-0.948c1.328,0,2.292,0.364,2.893,1.092
		c0.6,0.729,0.899,1.828,0.899,3.3v6.336c0,1.04,0.08,2.152,0.24,3.336h-2.353c-0.176-0.912-0.287-1.592-0.336-2.04
		c-0.191,0.624-0.523,1.152-0.996,1.584c-0.472,0.432-1.076,0.648-1.812,0.648C1020.738,65.062,1020.263,64.91,1019.839,64.606z
		 M1023.259,62.458c0.319-0.264,0.552-0.516,0.696-0.756v-3.936c-0.705,0.416-1.232,0.74-1.584,0.972
		c-0.353,0.232-0.66,0.544-0.925,0.936c-0.264,0.392-0.396,0.852-0.396,1.38c0,0.576,0.104,1.02,0.312,1.332
		s0.512,0.468,0.912,0.468C1022.61,62.854,1022.938,62.723,1023.259,62.458z"/>
	<path fill="#FFFFFF" d="M1029.066,50.999h2.567v1.968c0.48-0.784,0.973-1.336,1.477-1.656c0.504-0.32,1.035-0.48,1.596-0.48
		c0.145,0,0.28,0.008,0.408,0.024v2.832c-0.513-0.192-0.984-0.288-1.416-0.288c-0.416,0-0.788,0.1-1.116,0.3
		s-0.644,0.548-0.948,1.044v10.128h-2.567V50.999z"/>
	<path fill="#FFFFFF" d="M1038.042,64.451c-0.592-0.408-1.008-1.012-1.248-1.812c-0.239-0.8-0.359-1.84-0.359-3.12v-3.168
		c0-1.92,0.3-3.324,0.899-4.212c0.601-0.888,1.668-1.332,3.204-1.332c1.12,0,1.964,0.232,2.532,0.696
		c0.567,0.464,0.944,1.116,1.128,1.956c0.184,0.84,0.276,1.972,0.276,3.396v1.128h-5.473v1.848c0,0.832,0.021,1.456,0.061,1.872
		s0.168,0.764,0.384,1.044c0.216,0.28,0.572,0.42,1.068,0.42c0.56,0,0.939-0.188,1.14-0.564c0.2-0.375,0.3-0.948,0.3-1.716v-0.84
		h2.496v0.528c0,1.456-0.312,2.568-0.936,3.336s-1.616,1.152-2.977,1.152C1039.466,65.062,1038.634,64.858,1038.042,64.451z
		 M1041.954,56.591v-1.248c0-0.944-0.092-1.62-0.275-2.028c-0.185-0.408-0.572-0.612-1.164-0.612c-0.417,0-0.732,0.096-0.948,0.288
		s-0.364,0.508-0.444,0.948c-0.08,0.44-0.12,1.076-0.12,1.908v0.744H1041.954z"/>
	<path fill="#FFFFFF" d="M1047.018,45.431h4.824c1.68,0,2.9,0.456,3.66,1.368c0.76,0.912,1.14,2.248,1.14,4.008
		c0,1.584-0.408,2.816-1.224,3.696c-0.816,0.88-2,1.32-3.552,1.32h-2.137v9.048h-2.712V45.431z M1050.978,53.878
		c0.8,0,1.42-0.087,1.86-0.264c0.439-0.176,0.756-0.48,0.948-0.912c0.191-0.432,0.288-1.056,0.288-1.872
		c0-0.992-0.072-1.72-0.217-2.184c-0.144-0.464-0.428-0.792-0.852-0.984s-1.092-0.288-2.004-0.288h-1.272v6.504H1050.978z"/>
	<path fill="#FFFFFF" d="M1058.861,63.754c-0.616-0.872-0.924-2.14-0.924-3.804v-4.032c0-1.664,0.308-2.932,0.924-3.804
		c0.615-0.872,1.66-1.308,3.132-1.308c1.456,0,2.492,0.436,3.108,1.308c0.615,0.872,0.924,2.14,0.924,3.804v4.032
		c0,1.664-0.309,2.932-0.924,3.804c-0.616,0.873-1.652,1.308-3.108,1.308C1060.521,65.062,1059.477,64.627,1058.861,63.754z
		 M1063.001,62.759c0.208-0.272,0.336-0.608,0.385-1.008c0.048-0.399,0.071-0.944,0.071-1.632v-4.344
		c0-0.688-0.023-1.236-0.071-1.644c-0.049-0.408-0.177-0.748-0.385-1.02s-0.544-0.408-1.008-0.408s-0.804,0.136-1.02,0.408
		c-0.217,0.272-0.349,0.612-0.396,1.02c-0.048,0.408-0.072,0.957-0.072,1.644v4.344c0,0.688,0.024,1.232,0.072,1.632
		c0.048,0.4,0.18,0.736,0.396,1.008c0.216,0.272,0.556,0.408,1.02,0.408S1062.793,63.031,1063.001,62.759z"/>
	<path fill="#FFFFFF" d="M1068.545,48.935v-2.688h2.568v2.688H1068.545z M1068.545,64.871V50.999h2.568v13.872H1068.545z"/>
	<path fill="#FFFFFF" d="M1073.873,50.999h2.568v1.368c1.104-1.04,2.231-1.56,3.384-1.56c0.752,0,1.288,0.272,1.608,0.816
		c0.319,0.544,0.479,1.216,0.479,2.016v11.232h-2.568V54.383c0-0.528-0.08-0.92-0.239-1.176c-0.16-0.256-0.448-0.384-0.864-0.384
		c-0.513,0-1.112,0.288-1.8,0.864v11.184h-2.568V50.999z"/>
	<path fill="#FFFFFF" d="M1085.825,64.234c-0.464-0.552-0.704-1.38-0.72-2.484v-9.048h-1.464v-1.704h1.464v-4.056h2.567v4.056h2.232
		v1.704h-2.232v8.88c0,0.561,0.088,0.952,0.265,1.176c0.176,0.224,0.512,0.336,1.008,0.336c0.32,0,0.632-0.024,0.936-0.072v1.896
		c-0.64,0.096-1.231,0.144-1.775,0.144C1087.049,65.062,1086.289,64.787,1085.825,64.234z"/>
</g>
<g>
	<path fill="#FFFFFF" d="M459.915,359.325v-19.44h7.536v2.017h-4.824v6.432h3.912v1.921h-3.912v7.127h4.872v1.944H459.915z"/>
	<path fill="#FFFFFF" d="M469.467,345.453h2.376v1.32c0.464-0.512,0.972-0.9,1.524-1.164c0.552-0.264,1.132-0.396,1.739-0.396
		c1.185,0,1.937,0.584,2.257,1.752c0.96-1.168,2.111-1.752,3.456-1.752c0.72,0,1.308,0.264,1.764,0.793
		c0.456,0.527,0.684,1.336,0.684,2.424v10.896h-2.352v-10.728c0-0.608-0.096-1.045-0.288-1.309s-0.473-0.396-0.84-0.396
		c-0.368,0-0.748,0.101-1.141,0.301c-0.392,0.2-0.756,0.477-1.092,0.828v0.408v10.896h-2.352v-10.728
		c0-0.608-0.097-1.045-0.288-1.309c-0.192-0.264-0.473-0.396-0.84-0.396c-0.368,0-0.744,0.101-1.128,0.301
		c-0.385,0.2-0.753,0.477-1.104,0.828v11.304h-2.376V345.453z"/>
	<path fill="#FFFFFF" d="M486.854,359.061c-0.425-0.303-0.756-0.703-0.996-1.199s-0.36-1.016-0.36-1.561
		c0-1.088,0.232-1.971,0.696-2.651s1.052-1.216,1.764-1.608c0.712-0.392,1.716-0.852,3.013-1.38v-0.983
		c0-0.912-0.093-1.557-0.276-1.933c-0.185-0.376-0.557-0.563-1.116-0.563c-0.976,0-1.464,0.656-1.464,1.968v0.696l-2.544-0.097
		l0.023-0.504c0.08-1.392,0.469-2.403,1.164-3.036c0.696-0.632,1.692-0.947,2.988-0.947c1.328,0,2.292,0.363,2.893,1.092
		c0.6,0.729,0.899,1.828,0.899,3.3v6.336c0,1.04,0.08,2.151,0.24,3.336h-2.353c-0.176-0.912-0.287-1.592-0.336-2.04
		c-0.191,0.624-0.523,1.152-0.996,1.584c-0.472,0.432-1.076,0.648-1.812,0.648C487.754,359.518,487.278,359.365,486.854,359.061z
		 M490.274,356.913c0.319-0.264,0.552-0.517,0.696-0.756v-3.937c-0.705,0.416-1.232,0.74-1.584,0.973
		c-0.353,0.232-0.66,0.544-0.925,0.936c-0.264,0.393-0.396,0.852-0.396,1.381c0,0.575,0.104,1.02,0.312,1.332
		c0.208,0.312,0.512,0.467,0.912,0.467C489.626,357.309,489.954,357.178,490.274,356.913z"/>
	<path fill="#FFFFFF" d="M496.178,343.389v-2.688h2.568v2.688H496.178z M496.178,359.325v-13.872h2.568v13.872H496.178z"/>
	<path fill="#FFFFFF" d="M501.746,359.325v-19.44h2.567v19.44H501.746z"/>
	<path fill="#FFFFFF" d="M513.53,357.825c-0.784-1.144-1.176-2.724-1.176-4.74v-6.864c0-2.127,0.384-3.744,1.151-4.848
		c0.769-1.104,2.128-1.656,4.08-1.656c1.744,0,2.996,0.473,3.756,1.416c0.76,0.945,1.141,2.336,1.141,4.176v1.537h-2.568v-1.369
		c0-0.895-0.04-1.584-0.12-2.063s-0.284-0.864-0.611-1.151c-0.328-0.289-0.853-0.433-1.572-0.433c-0.736,0-1.284,0.156-1.645,0.468
		c-0.359,0.312-0.596,0.744-0.708,1.297c-0.111,0.551-0.168,1.291-0.168,2.219v7.705c0,0.992,0.08,1.768,0.24,2.328
		c0.16,0.56,0.42,0.959,0.78,1.199c0.359,0.24,0.859,0.36,1.5,0.36c0.688,0,1.2-0.151,1.536-0.456
		c0.336-0.304,0.548-0.721,0.636-1.248s0.132-1.248,0.132-2.16v-1.439h2.568v1.439c0,1.937-0.364,3.42-1.092,4.452
		c-0.729,1.032-1.997,1.548-3.805,1.548C515.666,359.541,514.313,358.969,513.53,357.825z"/>
	<path fill="#FFFFFF" d="M525.927,359.061c-0.425-0.303-0.756-0.703-0.996-1.199s-0.36-1.016-0.36-1.561
		c0-1.088,0.232-1.971,0.696-2.651s1.052-1.216,1.764-1.608c0.712-0.392,1.716-0.852,3.013-1.38v-0.983
		c0-0.912-0.093-1.557-0.276-1.933c-0.185-0.376-0.557-0.563-1.116-0.563c-0.976,0-1.464,0.656-1.464,1.968v0.696l-2.544-0.097
		l0.023-0.504c0.08-1.392,0.469-2.403,1.164-3.036c0.696-0.632,1.692-0.947,2.988-0.947c1.328,0,2.292,0.363,2.893,1.092
		c0.6,0.729,0.899,1.828,0.899,3.3v6.336c0,1.04,0.08,2.151,0.24,3.336h-2.353c-0.176-0.912-0.287-1.592-0.336-2.04
		c-0.191,0.624-0.523,1.152-0.996,1.584c-0.472,0.432-1.076,0.648-1.812,0.648C526.826,359.518,526.351,359.365,525.927,359.061z
		 M529.347,356.913c0.319-0.264,0.552-0.517,0.696-0.756v-3.937c-0.705,0.416-1.232,0.74-1.584,0.973
		c-0.353,0.232-0.66,0.544-0.925,0.936c-0.264,0.393-0.396,0.852-0.396,1.381c0,0.575,0.104,1.02,0.312,1.332
		c0.208,0.312,0.512,0.467,0.912,0.467C528.698,357.309,529.026,357.178,529.347,356.913z"/>
	<path fill="#FFFFFF" d="M535.322,359.325v-19.44h2.567v19.44H535.322z"/>
	<path fill="#FFFFFF" d="M541.922,358.905c-0.592-0.408-1.008-1.012-1.248-1.812c-0.239-0.801-0.359-1.84-0.359-3.121v-3.168
		c0-1.92,0.3-3.324,0.899-4.211c0.601-0.889,1.668-1.332,3.204-1.332c1.12,0,1.964,0.231,2.532,0.695
		c0.567,0.465,0.944,1.116,1.128,1.956c0.184,0.841,0.276,1.972,0.276,3.396v1.129h-5.473v1.848c0,0.832,0.021,1.456,0.061,1.872
		s0.168,0.765,0.384,1.044c0.216,0.28,0.572,0.42,1.068,0.42c0.56,0,0.939-0.188,1.14-0.564c0.2-0.375,0.3-0.947,0.3-1.715v-0.841
		h2.496v0.528c0,1.456-0.312,2.568-0.936,3.336s-1.616,1.152-2.977,1.152C543.346,359.518,542.514,359.312,541.922,358.905z
		 M545.834,351.045v-1.248c0-0.943-0.092-1.619-0.275-2.027c-0.185-0.408-0.572-0.612-1.164-0.612c-0.417,0-0.732,0.097-0.948,0.288
		s-0.364,0.508-0.444,0.947c-0.08,0.441-0.12,1.076-0.12,1.908v0.744H545.834z"/>
	<path fill="#FFFFFF" d="M550.682,345.453h2.568v1.368c1.104-1.04,2.231-1.56,3.384-1.56c0.752,0,1.288,0.271,1.608,0.815
		c0.319,0.544,0.479,1.216,0.479,2.017v11.231h-2.568v-10.487c0-0.529-0.08-0.92-0.239-1.177c-0.16-0.256-0.448-0.384-0.864-0.384
		c-0.513,0-1.112,0.288-1.8,0.863v11.185h-2.568V345.453z"/>
	<path fill="#FFFFFF" d="M561.782,358.197c-0.553-0.88-0.828-2.32-0.828-4.32v-2.688c0-1.84,0.243-3.288,0.731-4.344
		c0.488-1.057,1.38-1.584,2.677-1.584c0.815,0,1.584,0.359,2.304,1.08v-6.457h2.567v19.44h-2.567v-0.888
		c-0.672,0.72-1.433,1.08-2.28,1.08C563.201,359.518,562.334,359.077,561.782,358.197z M566.666,356.973v-9.096
		c-0.592-0.399-1.137-0.6-1.632-0.6c-1.009,0-1.513,0.969-1.513,2.904v3.912c0,1.119,0.104,1.967,0.312,2.543
		s0.624,0.864,1.248,0.864C565.594,357.501,566.122,357.325,566.666,356.973z"/>
	<path fill="#FFFFFF" d="M572.894,359.061c-0.425-0.303-0.756-0.703-0.996-1.199s-0.36-1.016-0.36-1.561
		c0-1.088,0.232-1.971,0.696-2.651s1.052-1.216,1.764-1.608c0.712-0.392,1.716-0.852,3.013-1.38v-0.983
		c0-0.912-0.093-1.557-0.276-1.933c-0.185-0.376-0.557-0.563-1.116-0.563c-0.976,0-1.464,0.656-1.464,1.968v0.696l-2.544-0.097
		l0.023-0.504c0.08-1.392,0.469-2.403,1.164-3.036c0.696-0.632,1.692-0.947,2.988-0.947c1.328,0,2.292,0.363,2.893,1.092
		c0.6,0.729,0.899,1.828,0.899,3.3v6.336c0,1.04,0.08,2.151,0.24,3.336h-2.353c-0.176-0.912-0.287-1.592-0.336-2.04
		c-0.191,0.624-0.523,1.152-0.996,1.584c-0.472,0.432-1.076,0.648-1.812,0.648C573.793,359.518,573.317,359.365,572.894,359.061z
		 M576.313,356.913c0.319-0.264,0.552-0.517,0.696-0.756v-3.937c-0.705,0.416-1.232,0.74-1.584,0.973
		c-0.353,0.232-0.66,0.544-0.925,0.936c-0.264,0.393-0.396,0.852-0.396,1.381c0,0.575,0.104,1.02,0.312,1.332
		c0.208,0.312,0.512,0.467,0.912,0.467C575.665,357.309,575.993,357.178,576.313,356.913z"/>
	<path fill="#FFFFFF" d="M582.121,345.453h2.567v1.969c0.48-0.785,0.973-1.336,1.477-1.656s1.035-0.48,1.596-0.48
		c0.145,0,0.28,0.008,0.408,0.023v2.832c-0.513-0.191-0.984-0.287-1.416-0.287c-0.416,0-0.788,0.1-1.116,0.3
		s-0.644,0.548-0.948,1.044v10.128h-2.567V345.453z"/>
</g>
<g>
	<path fill="#FFFFFF" d="M723.475,223.082v-19.44h7.536v2.016h-4.824v6.432h3.912v1.92h-3.912v7.128h4.872v1.944H723.475z"/>
	<path fill="#FFFFFF" d="M731.946,223.082l3.12-7.296l-3.048-6.576h2.448l2.04,4.392l1.8-4.392h2.52l-3.168,6.888l3.216,6.984
		h-2.447l-2.185-4.704l-1.872,4.704H731.946z"/>
	<path fill="#FFFFFF" d="M743.635,222.614c-0.593-0.44-0.996-1.056-1.212-1.848c-0.217-0.792-0.324-1.796-0.324-3.012v-3.192
		c0-1.248,0.107-2.272,0.324-3.072c0.216-0.8,0.619-1.412,1.212-1.836c0.592-0.423,1.432-0.636,2.52-0.636
		c0.992,0,1.764,0.16,2.316,0.48c0.552,0.32,0.936,0.796,1.151,1.428c0.217,0.632,0.324,1.452,0.324,2.46v0.816h-2.328v-0.84
		c0-0.912-0.1-1.548-0.3-1.908s-0.58-0.54-1.14-0.54c-0.433,0-0.753,0.096-0.96,0.288c-0.208,0.192-0.353,0.504-0.433,0.936
		c-0.08,0.432-0.12,1.064-0.12,1.896v4.368c0,0.8,0.049,1.413,0.145,1.836c0.096,0.424,0.252,0.72,0.468,0.888
		s0.524,0.252,0.924,0.252c0.592,0,0.976-0.196,1.152-0.588c0.176-0.392,0.264-0.996,0.264-1.812v-1.128h2.328v0.96
		c0,1.504-0.276,2.624-0.828,3.36c-0.552,0.736-1.54,1.104-2.964,1.104C745.066,223.273,744.227,223.054,743.635,222.614z"/>
	<path fill="#FFFFFF" d="M753.57,222.662c-0.592-0.408-1.008-1.012-1.248-1.812c-0.239-0.8-0.359-1.84-0.359-3.12v-3.168
		c0-1.92,0.3-3.324,0.899-4.212c0.601-0.888,1.668-1.332,3.204-1.332c1.12,0,1.964,0.232,2.532,0.696
		c0.567,0.464,0.944,1.116,1.128,1.956c0.184,0.84,0.276,1.972,0.276,3.396v1.128h-5.473v1.848c0,0.832,0.021,1.456,0.061,1.872
		s0.168,0.764,0.384,1.044c0.216,0.28,0.572,0.42,1.068,0.42c0.56,0,0.939-0.188,1.14-0.564c0.2-0.375,0.3-0.948,0.3-1.716v-0.84
		h2.496v0.528c0,1.456-0.312,2.568-0.936,3.336s-1.616,1.152-2.977,1.152C754.994,223.273,754.162,223.069,753.57,222.662z
		 M757.482,214.802v-1.248c0-0.944-0.092-1.62-0.275-2.028c-0.185-0.408-0.572-0.612-1.164-0.612c-0.417,0-0.732,0.096-0.948,0.288
		s-0.364,0.508-0.444,0.948c-0.08,0.44-0.12,1.076-0.12,1.908v0.744H757.482z"/>
	<path fill="#FFFFFF" d="M762.57,223.082v-19.44h2.567v19.44H762.57z"/>
	<path fill="#FFFFFF" d="M773.538,223.082v-19.44h7.513v1.944h-4.801v6.48h3.721v1.92h-3.721v9.096H773.538z"/>
	<path fill="#FFFFFF" d="M782.874,207.146v-2.688h2.568v2.688H782.874z M782.874,223.082v-13.872h2.568v13.872H782.874z"/>
	<path fill="#FFFFFF" d="M788.442,223.082v-19.44h2.567v19.44H788.442z"/>
	<path fill="#FFFFFF" d="M795.042,222.662c-0.592-0.408-1.008-1.012-1.248-1.812c-0.239-0.8-0.359-1.84-0.359-3.12v-3.168
		c0-1.92,0.3-3.324,0.899-4.212c0.601-0.888,1.668-1.332,3.204-1.332c1.12,0,1.964,0.232,2.532,0.696
		c0.567,0.464,0.944,1.116,1.128,1.956c0.184,0.84,0.276,1.972,0.276,3.396v1.128h-5.473v1.848c0,0.832,0.021,1.456,0.061,1.872
		s0.168,0.764,0.384,1.044c0.216,0.28,0.572,0.42,1.068,0.42c0.56,0,0.939-0.188,1.14-0.564c0.2-0.375,0.3-0.948,0.3-1.716v-0.84
		h2.496v0.528c0,1.456-0.312,2.568-0.936,3.336s-1.616,1.152-2.977,1.152C796.466,223.273,795.634,223.069,795.042,222.662z
		 M798.954,214.802v-1.248c0-0.944-0.092-1.62-0.275-2.028c-0.185-0.408-0.572-0.612-1.164-0.612c-0.417,0-0.732,0.096-0.948,0.288
		s-0.364,0.508-0.444,0.948c-0.08,0.44-0.12,1.076-0.12,1.908v0.744H798.954z"/>
	<path fill="#FFFFFF" d="M804.294,222.218c-0.696-0.704-1.092-1.648-1.188-2.832l2.137-0.648c0.111,0.896,0.315,1.56,0.611,1.992
		s0.716,0.648,1.261,0.648c0.447,0,0.815-0.14,1.104-0.42c0.288-0.28,0.432-0.636,0.432-1.068c0-0.72-0.376-1.4-1.128-2.04
		l-2.376-2.04c-0.544-0.464-0.964-0.948-1.26-1.452s-0.444-1.124-0.444-1.86c0-1.104,0.32-1.96,0.961-2.568
		c0.64-0.608,1.512-0.912,2.615-0.912c1.057,0,1.885,0.34,2.484,1.02c0.6,0.68,0.948,1.556,1.044,2.628l-1.729,0.648
		c-0.111-0.784-0.296-1.38-0.552-1.788c-0.256-0.408-0.64-0.612-1.151-0.612c-0.417,0-0.753,0.136-1.009,0.408
		s-0.376,0.608-0.359,1.008c0,0.528,0.231,0.992,0.695,1.392l2.448,2.256c0.608,0.544,1.088,1.104,1.44,1.68
		c0.352,0.576,0.527,1.264,0.527,2.064c0,1.152-0.344,2.032-1.031,2.64c-0.688,0.608-1.624,0.912-2.809,0.912
		C805.897,223.273,804.99,222.922,804.294,222.218z"/>
</g>
<g>
	<path fill="#FFFFFF" d="M958.117,81.611h4.824c1.68,0,2.9,0.456,3.66,1.368c0.76,0.912,1.14,2.248,1.14,4.008
		c0,1.584-0.408,2.816-1.224,3.696c-0.816,0.88-2,1.32-3.552,1.32h-2.137v9.048h-2.712V81.611z M962.077,90.059
		c0.8,0,1.42-0.087,1.86-0.264c0.439-0.176,0.756-0.48,0.948-0.912c0.191-0.432,0.288-1.056,0.288-1.872
		c0-0.992-0.072-1.72-0.217-2.184c-0.144-0.464-0.428-0.792-0.852-0.984s-1.092-0.288-2.004-0.288h-1.272v6.504H962.077z"/>
	<path fill="#FFFFFF" d="M969.661,101.051v-19.44h2.567v19.44H969.661z"/>
	<path fill="#FFFFFF" d="M975.985,100.787c-0.425-0.304-0.756-0.704-0.996-1.2s-0.36-1.016-0.36-1.56
		c0-1.088,0.232-1.972,0.696-2.652s1.052-1.216,1.764-1.608c0.712-0.392,1.716-0.852,3.013-1.38v-0.984
		c0-0.912-0.093-1.556-0.276-1.932c-0.185-0.375-0.557-0.564-1.116-0.564c-0.976,0-1.464,0.656-1.464,1.968v0.696l-2.544-0.096
		l0.023-0.504c0.08-1.392,0.469-2.404,1.164-3.036c0.696-0.632,1.692-0.948,2.988-0.948c1.328,0,2.292,0.364,2.893,1.092
		c0.6,0.729,0.899,1.828,0.899,3.3v6.336c0,1.04,0.08,2.152,0.24,3.336h-2.353c-0.176-0.912-0.287-1.592-0.336-2.04
		c-0.191,0.624-0.523,1.152-0.996,1.584c-0.472,0.432-1.076,0.648-1.812,0.648C976.885,101.243,976.409,101.09,975.985,100.787z
		 M979.405,98.639c0.319-0.264,0.552-0.516,0.696-0.756v-3.936c-0.705,0.416-1.232,0.74-1.584,0.972
		c-0.353,0.232-0.66,0.544-0.925,0.936c-0.264,0.392-0.396,0.852-0.396,1.38c0,0.576,0.104,1.02,0.312,1.332
		s0.512,0.468,0.912,0.468C978.757,99.035,979.085,98.903,979.405,98.639z"/>
	<path fill="#FFFFFF" d="M985.141,87.179h2.568v1.368c1.104-1.04,2.231-1.56,3.384-1.56c0.752,0,1.288,0.272,1.608,0.816
		c0.319,0.544,0.479,1.216,0.479,2.016v11.232h-2.568V90.563c0-0.528-0.08-0.92-0.239-1.176c-0.16-0.256-0.448-0.384-0.864-0.384
		c-0.513,0-1.112,0.288-1.8,0.864v11.184h-2.568V87.179z"/>
	<path fill="#FFFFFF" d="M1002.205,99.623c-0.784-1.112-1.176-2.764-1.176-4.956v-6.504c0-1.503,0.155-2.74,0.468-3.708
		c0.312-0.968,0.848-1.712,1.607-2.232c0.76-0.52,1.805-0.78,3.133-0.78c1.791,0,3.084,0.456,3.876,1.368
		c0.792,0.912,1.188,2.344,1.188,4.296v0.72h-2.544v-0.6c0-0.928-0.056-1.644-0.168-2.148c-0.112-0.504-0.348-0.884-0.708-1.14
		s-0.892-0.384-1.596-0.384c-0.753,0-1.312,0.172-1.681,0.516c-0.368,0.344-0.604,0.804-0.708,1.38
		c-0.104,0.576-0.155,1.344-0.155,2.304v7.2c0,1.488,0.18,2.556,0.54,3.204c0.359,0.648,1.052,0.972,2.076,0.972
		c1.008,0,1.699-0.352,2.075-1.056c0.376-0.704,0.564-1.832,0.564-3.384v-1.344h-2.472v-1.92h4.92v9.624h-1.704l-0.265-2.232
		c-0.607,1.648-1.76,2.472-3.456,2.472C1004.261,101.291,1002.988,100.735,1002.205,99.623z"/>
	<path fill="#FFFFFF" d="M1014.085,87.179h2.567v1.968c0.48-0.784,0.973-1.336,1.477-1.656c0.504-0.32,1.035-0.48,1.596-0.48
		c0.145,0,0.28,0.008,0.408,0.024v2.832c-0.513-0.192-0.984-0.288-1.416-0.288c-0.416,0-0.788,0.1-1.116,0.3
		s-0.644,0.548-0.948,1.044v10.128h-2.567V87.179z"/>
	<path fill="#FFFFFF" d="M1021.885,85.115v-2.688h2.568v2.688H1021.885z M1021.885,101.051V87.179h2.568v13.872H1021.885z"/>
	<path fill="#FFFFFF" d="M1027.777,99.923c-0.553-0.88-0.828-2.32-0.828-4.32v-2.688c0-1.839,0.243-3.288,0.731-4.344
		s1.38-1.584,2.677-1.584c0.815,0,1.584,0.36,2.304,1.08v-6.456h2.567v19.44h-2.567v-0.888c-0.672,0.72-1.433,1.08-2.28,1.08
		C1029.196,101.243,1028.329,100.803,1027.777,99.923z M1032.661,98.699v-9.096c-0.592-0.399-1.137-0.6-1.632-0.6
		c-1.009,0-1.513,0.968-1.513,2.904v3.912c0,1.12,0.104,1.968,0.312,2.544s0.624,0.864,1.248,0.864
		C1031.589,99.227,1032.117,99.051,1032.661,98.699z"/>
</g>
<g>
	<path fill="#666666" d="M242.98,480.421h4.225c2.096,0,3.579,0.479,4.452,1.44c0.871,0.959,1.308,2.455,1.308,4.487v7.152
		c0,2.144-0.429,3.74-1.284,4.788c-0.856,1.048-2.276,1.572-4.26,1.572h-4.44V480.421z M247.229,497.917
		c0.944,0,1.628-0.185,2.052-0.552c0.424-0.368,0.688-0.868,0.792-1.5c0.104-0.633,0.156-1.588,0.156-2.868v-6.312
		c0-1.104-0.068-1.948-0.204-2.533c-0.136-0.584-0.42-1.016-0.852-1.295c-0.432-0.28-1.104-0.42-2.016-0.42h-1.465v15.479H247.229z"
		/>
	<path fill="#666666" d="M255.484,485.988h2.567v1.969c0.48-0.784,0.973-1.336,1.477-1.656s1.035-0.48,1.596-0.48
		c0.145,0,0.28,0.009,0.408,0.024v2.832c-0.513-0.192-0.984-0.288-1.416-0.288c-0.416,0-0.788,0.1-1.116,0.301
		c-0.328,0.199-0.644,0.548-0.948,1.043v10.129h-2.567V485.988z"/>
	<path fill="#666666" d="M263.776,498.744c-0.616-0.871-0.924-2.139-0.924-3.803v-4.033c0-1.663,0.308-2.932,0.924-3.803
		c0.615-0.873,1.66-1.309,3.132-1.309c1.456,0,2.492,0.436,3.108,1.309c0.615,0.871,0.924,2.14,0.924,3.803v4.033
		c0,1.664-0.309,2.932-0.924,3.803c-0.616,0.873-1.652,1.309-3.108,1.309C265.437,500.053,264.392,499.617,263.776,498.744z
		 M267.916,497.749c0.208-0.272,0.336-0.608,0.385-1.009c0.048-0.398,0.071-0.943,0.071-1.631v-4.345
		c0-0.688-0.023-1.235-0.071-1.644c-0.049-0.408-0.177-0.748-0.385-1.02c-0.208-0.272-0.544-0.408-1.008-0.408
		s-0.804,0.136-1.02,0.408c-0.217,0.271-0.349,0.611-0.396,1.02s-0.072,0.956-0.072,1.644v4.345c0,0.688,0.024,1.232,0.072,1.631
		c0.048,0.4,0.18,0.736,0.396,1.009c0.216,0.272,0.556,0.407,1.02,0.407S267.708,498.021,267.916,497.749z"/>
	<path fill="#666666" d="M273.292,485.988h2.568v1.104c0.752-0.864,1.632-1.296,2.64-1.296c1.264,0,2.108,0.54,2.532,1.62
		s0.636,2.276,0.636,3.588v3.36c0,1.695-0.26,3.068-0.78,4.115c-0.52,1.049-1.412,1.572-2.676,1.572c-0.815,0-1.6-0.408-2.352-1.225
		v5.593h-2.568V485.988z M278.848,497.137c0.168-0.6,0.252-1.523,0.252-2.771v-3.36c0-1.024-0.096-1.812-0.287-2.364
		c-0.192-0.552-0.593-0.828-1.2-0.828c-0.593,0-1.176,0.24-1.752,0.721v8.879c0.56,0.417,1.176,0.625,1.848,0.625
		C278.3,498.037,278.68,497.736,278.848,497.137z"/>
	<path fill="#666666" d="M286.612,498.854v1.008h-2.568v-19.44h2.568v6.672c0.752-0.864,1.624-1.296,2.616-1.296
		c1.264,0,2.107,0.54,2.531,1.62s0.637,2.276,0.637,3.588v3.36c0,3.791-1.145,5.688-3.433,5.688
		C288.132,500.053,287.348,499.653,286.612,498.854z M289.576,497.137c0.168-0.6,0.252-1.523,0.252-2.771v-3.36
		c0-1.024-0.096-1.812-0.288-2.364c-0.191-0.552-0.592-0.828-1.2-0.828c-0.56,0-1.136,0.232-1.728,0.696v8.903
		c0.528,0.417,1.136,0.625,1.824,0.625C289.028,498.037,289.408,497.736,289.576,497.137z"/>
	<path fill="#666666" d="M295.384,498.744c-0.616-0.871-0.924-2.139-0.924-3.803v-4.033c0-1.663,0.308-2.932,0.924-3.803
		c0.615-0.873,1.66-1.309,3.132-1.309c1.456,0,2.492,0.436,3.108,1.309c0.615,0.871,0.924,2.14,0.924,3.803v4.033
		c0,1.664-0.309,2.932-0.924,3.803c-0.616,0.873-1.652,1.309-3.108,1.309C297.044,500.053,295.999,499.617,295.384,498.744z
		 M299.523,497.749c0.208-0.272,0.336-0.608,0.385-1.009c0.048-0.398,0.071-0.943,0.071-1.631v-4.345
		c0-0.688-0.023-1.235-0.071-1.644c-0.049-0.408-0.177-0.748-0.385-1.02c-0.208-0.272-0.544-0.408-1.008-0.408
		s-0.804,0.136-1.02,0.408c-0.217,0.271-0.349,0.611-0.396,1.02s-0.072,0.956-0.072,1.644v4.345c0,0.688,0.024,1.232,0.072,1.631
		c0.048,0.4,0.18,0.736,0.396,1.009c0.216,0.272,0.556,0.407,1.02,0.407S299.315,498.021,299.523,497.749z"/>
	<path fill="#666666" d="M303.724,499.861l3.12-7.297l-3.048-6.576h2.448l2.04,4.393l1.8-4.393h2.52l-3.168,6.889l3.216,6.984
		h-2.447l-2.185-4.705l-1.872,4.705H303.724z"/>
</g>
<rect x="875.799" y="285.287" fill="#67ADDA" stroke="#FFFFFF" stroke-width="3" stroke-miterlimit="10" width="239" height="139"/>
<rect x="638.799" y="285.287" fill="#67ADDA" stroke="#FFFFFF" stroke-width="3" stroke-miterlimit="10" width="238" height="139"/>
<rect x="638.799" y="424.287" fill="#A3CDE8" stroke="#FFFFFF" stroke-width="3" stroke-miterlimit="10" width="238" height="138"/>
<g>
	<path fill="#FFFFFF" d="M487.505,62.431h4.464c1.761,0,3.064,0.396,3.912,1.188c0.849,0.792,1.272,2.02,1.272,3.684
		c0,2.48-0.929,3.848-2.784,4.104c1.152,0.272,1.992,0.812,2.521,1.62c0.527,0.809,0.792,1.908,0.792,3.3
		c0,1.744-0.413,3.104-1.236,4.08c-0.824,0.976-2.076,1.464-3.756,1.464h-5.185V62.431z M491.825,70.543
		c1.12,0,1.896-0.244,2.328-0.732c0.432-0.488,0.647-1.324,0.647-2.508c0-0.864-0.132-1.5-0.396-1.908
		c-0.264-0.408-0.66-0.668-1.188-0.78c-0.527-0.112-1.312-0.168-2.352-0.168h-0.648v6.096H491.825z M492.041,79.927
		c0.8,0,1.42-0.124,1.86-0.372c0.439-0.248,0.747-0.628,0.924-1.14c0.176-0.512,0.264-1.208,0.264-2.088
		c0-1.248-0.256-2.18-0.768-2.796c-0.513-0.616-1.344-0.924-2.496-0.924h-1.608v7.32H492.041z"/>
	<path fill="#FFFFFF" d="M500.525,80.755c-0.616-0.872-0.924-2.14-0.924-3.804v-4.032c0-1.664,0.308-2.932,0.924-3.804
		c0.615-0.872,1.66-1.308,3.132-1.308c1.456,0,2.492,0.436,3.108,1.308c0.615,0.872,0.924,2.14,0.924,3.804v4.032
		c0,1.664-0.309,2.932-0.924,3.804c-0.616,0.873-1.652,1.308-3.108,1.308C502.186,82.063,501.141,81.627,500.525,80.755z
		 M504.665,79.759c0.208-0.272,0.336-0.608,0.385-1.008c0.048-0.399,0.071-0.944,0.071-1.632v-4.344
		c0-0.688-0.023-1.236-0.071-1.644c-0.049-0.408-0.177-0.748-0.385-1.02s-0.544-0.408-1.008-0.408s-0.804,0.136-1.02,0.408
		c-0.217,0.272-0.349,0.612-0.396,1.02c-0.048,0.408-0.072,0.957-0.072,1.644v4.344c0,0.688,0.024,1.232,0.072,1.632
		c0.048,0.4,0.18,0.736,0.396,1.008c0.216,0.272,0.556,0.408,1.02,0.408S504.457,80.031,504.665,79.759z"/>
	<path fill="#FFFFFF" d="M508.865,81.871l3.12-7.296l-3.048-6.576h2.448l2.04,4.392l1.8-4.392h2.52l-3.168,6.888l3.216,6.984h-2.447
		l-2.185-4.704l-1.872,4.704H508.865z"/>
	<path fill="#FFFFFF" d="M519.161,81.871v-2.856h2.568v2.856H519.161z"/>
	<path fill="#FFFFFF" d="M525.065,81.403c-0.593-0.44-0.996-1.056-1.212-1.848c-0.217-0.792-0.324-1.796-0.324-3.012v-3.192
		c0-1.248,0.107-2.272,0.324-3.072c0.216-0.8,0.619-1.412,1.212-1.836c0.592-0.423,1.432-0.636,2.52-0.636
		c0.992,0,1.764,0.16,2.316,0.48c0.552,0.32,0.936,0.796,1.151,1.428c0.217,0.632,0.324,1.452,0.324,2.46v0.816h-2.328v-0.84
		c0-0.912-0.1-1.548-0.3-1.908s-0.58-0.54-1.14-0.54c-0.433,0-0.753,0.096-0.96,0.288c-0.208,0.192-0.353,0.504-0.433,0.936
		c-0.08,0.432-0.12,1.064-0.12,1.896v4.368c0,0.8,0.049,1.413,0.145,1.836c0.096,0.424,0.252,0.72,0.468,0.888
		s0.524,0.252,0.924,0.252c0.592,0,0.976-0.196,1.152-0.588c0.176-0.392,0.264-0.996,0.264-1.812v-1.128h2.328v0.96
		c0,1.504-0.276,2.624-0.828,3.36c-0.552,0.736-1.54,1.104-2.964,1.104C526.497,82.063,525.657,81.843,525.065,81.403z"/>
	<path fill="#FFFFFF" d="M534.317,80.755c-0.616-0.872-0.924-2.14-0.924-3.804v-4.032c0-1.664,0.308-2.932,0.924-3.804
		c0.615-0.872,1.66-1.308,3.132-1.308c1.456,0,2.492,0.436,3.108,1.308c0.615,0.872,0.924,2.14,0.924,3.804v4.032
		c0,1.664-0.309,2.932-0.924,3.804c-0.616,0.873-1.652,1.308-3.108,1.308C535.978,82.063,534.933,81.627,534.317,80.755z
		 M538.457,79.759c0.208-0.272,0.336-0.608,0.385-1.008c0.048-0.399,0.071-0.944,0.071-1.632v-4.344
		c0-0.688-0.023-1.236-0.071-1.644c-0.049-0.408-0.177-0.748-0.385-1.02s-0.544-0.408-1.008-0.408s-0.804,0.136-1.02,0.408
		c-0.217,0.272-0.349,0.612-0.396,1.02c-0.048,0.408-0.072,0.957-0.072,1.644v4.344c0,0.688,0.024,1.232,0.072,1.632
		c0.048,0.4,0.18,0.736,0.396,1.008c0.216,0.272,0.556,0.408,1.02,0.408S538.249,80.031,538.457,79.759z"/>
	<path fill="#FFFFFF" d="M543.833,67.999h2.376v1.32c0.464-0.512,0.972-0.9,1.524-1.164c0.552-0.264,1.132-0.396,1.739-0.396
		c1.185,0,1.937,0.584,2.257,1.752c0.96-1.168,2.111-1.752,3.456-1.752c0.72,0,1.308,0.264,1.764,0.792
		c0.456,0.528,0.684,1.336,0.684,2.424v10.896h-2.352V71.143c0-0.608-0.096-1.044-0.288-1.308c-0.192-0.264-0.473-0.396-0.84-0.396
		c-0.368,0-0.748,0.1-1.141,0.3c-0.392,0.2-0.756,0.476-1.092,0.828v0.408v10.896h-2.352V71.143c0-0.608-0.097-1.044-0.288-1.308
		c-0.192-0.264-0.473-0.396-0.84-0.396c-0.368,0-0.744,0.1-1.128,0.3c-0.385,0.2-0.753,0.476-1.104,0.828v11.304h-2.376V67.999z"/>
</g>
<g>
	<path fill="#FFFFFF" d="M734.62,80.787v-19.44h7.513v1.944h-4.801v6.48h3.721v1.92h-3.721v9.096H734.62z"/>
	<path fill="#FFFFFF" d="M744.425,79.671c-0.616-0.872-0.924-2.14-0.924-3.804v-4.032c0-1.664,0.308-2.932,0.924-3.804
		c0.615-0.872,1.66-1.308,3.132-1.308c1.456,0,2.492,0.436,3.108,1.308c0.615,0.872,0.924,2.14,0.924,3.804v4.032
		c0,1.664-0.309,2.932-0.924,3.804c-0.616,0.873-1.652,1.308-3.108,1.308C746.085,80.979,745.04,80.543,744.425,79.671z
		 M748.564,78.675c0.208-0.272,0.336-0.608,0.385-1.008c0.048-0.399,0.071-0.944,0.071-1.632v-4.344
		c0-0.688-0.023-1.236-0.071-1.644c-0.049-0.408-0.177-0.748-0.385-1.02s-0.544-0.408-1.008-0.408s-0.804,0.136-1.02,0.408
		c-0.217,0.272-0.349,0.612-0.396,1.02c-0.048,0.408-0.072,0.957-0.072,1.644v4.344c0,0.688,0.024,1.232,0.072,1.632
		c0.048,0.4,0.18,0.736,0.396,1.008c0.216,0.272,0.556,0.408,1.02,0.408S748.356,78.947,748.564,78.675z"/>
	<path fill="#FFFFFF" d="M754.013,66.915h2.567v1.968c0.48-0.784,0.973-1.336,1.477-1.656c0.504-0.32,1.035-0.48,1.596-0.48
		c0.145,0,0.28,0.008,0.408,0.024v2.832c-0.513-0.192-0.984-0.288-1.416-0.288c-0.416,0-0.788,0.1-1.116,0.3
		s-0.644,0.548-0.948,1.044v10.128h-2.567V66.915z"/>
	<path fill="#FFFFFF" d="M761.645,66.915h2.376v1.32c0.464-0.512,0.972-0.9,1.524-1.164c0.552-0.264,1.132-0.396,1.739-0.396
		c1.185,0,1.937,0.584,2.257,1.752c0.96-1.168,2.111-1.752,3.456-1.752c0.72,0,1.308,0.264,1.764,0.792
		c0.456,0.528,0.684,1.336,0.684,2.424v10.896h-2.352V70.059c0-0.608-0.096-1.044-0.288-1.308c-0.192-0.264-0.473-0.396-0.84-0.396
		c-0.368,0-0.748,0.1-1.141,0.3c-0.392,0.2-0.756,0.476-1.092,0.828v0.408v10.896h-2.352V70.059c0-0.608-0.097-1.044-0.288-1.308
		c-0.192-0.264-0.473-0.396-0.84-0.396c-0.368,0-0.744,0.1-1.128,0.3c-0.385,0.2-0.753,0.476-1.104,0.828v11.304h-2.376V66.915z"/>
	<path fill="#FFFFFF" d="M778.457,79.923c-0.696-0.704-1.092-1.648-1.188-2.832l2.137-0.648c0.111,0.896,0.315,1.56,0.611,1.992
		s0.716,0.648,1.261,0.648c0.447,0,0.815-0.14,1.104-0.42c0.288-0.28,0.432-0.636,0.432-1.068c0-0.72-0.376-1.4-1.128-2.04
		l-2.376-2.04c-0.544-0.464-0.964-0.948-1.26-1.452s-0.444-1.124-0.444-1.86c0-1.104,0.32-1.96,0.961-2.568
		c0.64-0.608,1.512-0.912,2.615-0.912c1.057,0,1.885,0.34,2.484,1.02c0.6,0.68,0.948,1.556,1.044,2.628l-1.729,0.648
		c-0.111-0.784-0.296-1.38-0.552-1.788c-0.256-0.408-0.64-0.612-1.151-0.612c-0.417,0-0.753,0.136-1.009,0.408
		s-0.376,0.608-0.359,1.008c0,0.528,0.231,0.992,0.695,1.392l2.448,2.256c0.608,0.544,1.088,1.104,1.44,1.68
		c0.352,0.576,0.527,1.264,0.527,2.064c0,1.152-0.344,2.032-1.031,2.64c-0.688,0.608-1.624,0.912-2.809,0.912
		C780.061,80.979,779.153,80.627,778.457,79.923z"/>
</g>
</svg>
