<?xml version="1.0" encoding="utf-8"?>
<!-- Generator: Adobe Illustrator 16.0.0, SVG Export Plug-In . SVG Version: 6.00 Build 0)  -->
<!DOCTYPE svg PUBLIC "-//W3C//DTD SVG 1.1//EN" "http://www.w3.org/Graphics/SVG/1.1/DTD/svg11.dtd">
<svg version="1.1" id="Layer_1" xmlns="http://www.w3.org/2000/svg" xmlns:xlink="http://www.w3.org/1999/xlink" x="0px" y="0px"
	 width="400px" height="400px" viewBox="0 0 400 400" enable-background="new 0 0 400 400" xml:space="preserve">
<g>
	<path fill="#898B96" d="M307.045,228.508c-0.742-0.477-1.896-0.508-3.46-0.508H302v40h1.645c1.565,0,2.718-0.382,3.461-0.933
		c0.742-0.549,1.303-1.39,1.504-2.419c0.2-1.025,0.391-2.598,0.391-4.604v-25.297c0-1.863-0.201-3.18-0.421-4.159
		C308.358,229.61,307.787,228.986,307.045,228.508z"/>
	<path fill="#898B96" d="M340.414,226.865c-1.444,0-2.309,0.609-2.791,1.828c-0.48,1.218-0.623,2.878-0.623,4.98v27.947
		c0,2.103,0.121,3.762,0.564,4.98c0.439,1.218,1.373,1.827,2.898,1.827c1.524,0,2.431-0.609,2.912-1.827
		c0.481-1.219,0.625-2.878,0.625-4.98v-27.947c0-2.15-0.168-3.822-0.65-5.018C342.869,227.463,341.938,226.865,340.414,226.865z"/>
	<path fill="#898B96" d="M0,0v400h400V296.922v-97V0H0z M350,350H50V50h300v144.922V200h-21v-4.078V71H70v259h259v-33h21V350z
		 M320,236.97v21.067c0,4.492-0.545,8.074-1.527,10.75c-0.984,2.676-2.675,4.823-5.022,6.112c-2.347,1.29-5.633,2.101-9.806,2.101
		H291v-58h12.524c4.213,0,7.502,0.434,9.869,1.676s4.095,3.094,5.079,5.746C319.455,229.073,320,232.526,320,236.97z M355,258.396
		c0,6.306-1.055,11.071-3.321,14.296s-6.009,4.837-11.304,4.837c-5.256,0-8.883-1.612-11.13-4.837S326,264.702,326,258.396v-21.57
		c0-6.307,1.018-11.047,3.265-14.225c2.247-3.177,5.946-4.766,11.202-4.766c5.295,0,8.972,1.602,11.238,4.801
		c2.267,3.201,3.295,7.932,3.295,14.189V258.396z M390,240h-11v-6.184c0-2.245-0.116-3.965-0.517-5.16
		c-0.401-1.193-1.321-1.791-2.847-1.791s-2.479,0.634-2.961,1.898c-0.481,1.268-0.676,3.023-0.676,5.268v27.303
		c0,2.293,0.225,4.049,0.727,5.268c0.502,1.218,1.481,1.827,2.966,1.827c1.483,0,2.347-0.609,2.768-1.827
		c0.422-1.219,0.54-2.975,0.54-5.268V255h11v5.26c0,5.445-1.213,9.686-3.339,12.719c-2.127,3.035-5.812,4.551-10.907,4.551
		c-5.295,0-9.122-1.659-11.349-4.98c-2.227-3.32-3.405-8.109-3.405-14.367v-20.926c0-6.4,1.131-11.238,3.338-14.511
		c2.206-3.272,5.992-4.909,11.328-4.909c5.094,0,8.861,1.458,10.988,4.371c2.126,2.915,3.346,7.048,3.346,12.397V240z"/>
</g>
</svg>
