<?xml version="1.0" encoding="utf-8"?>
<!-- Generator: Adobe Illustrator 16.0.0, SVG Export Plug-In . SVG Version: 6.00 Build 0)  -->
<!DOCTYPE svg PUBLIC "-//W3C//DTD SVG 1.1//EN" "http://www.w3.org/Graphics/SVG/1.1/DTD/svg11.dtd">
<svg version="1.1" id="Layer_1" xmlns="http://www.w3.org/2000/svg" xmlns:xlink="http://www.w3.org/1999/xlink" x="0px" y="0px"
	 width="100px" height="100px" viewBox="0 0 100 100" enable-background="new 0 0 100 100" xml:space="preserve">
<path fill="none" stroke="#FFFFFF" stroke-width="3" stroke-miterlimit="10" d="M50.774,58.317"/>
<path fill="none" stroke="#FFFFFF" stroke-width="3" stroke-miterlimit="10" d="M66.556,50.339"/>
<path fill="none" stroke="#FFFFFF" stroke-width="3" stroke-miterlimit="10" d="M50.774,19.127"/>
<path fill="none" stroke="#FFFFFF" stroke-width="3" stroke-miterlimit="10" d="M31.179,38.723"/>
<path fill="none" stroke="#FFFFFF" stroke-width="3" stroke-miterlimit="10" d="M33.281,47.562"/>
<path fill="none" stroke="#FFFFFF" stroke-width="3" stroke-miterlimit="10" d="M33.281,47.562"/>
<path fill="none" stroke="#FFFFFF" stroke-width="3" stroke-miterlimit="10" d="M50.774,58.317"/>
<path fill="none" stroke="#FFFFFF" stroke-width="3" stroke-miterlimit="10" d="M66.554,50.339"/>
<path fill="none" stroke="#FFFFFF" stroke-width="3" stroke-miterlimit="10" d="M34.997,50.339"/>
<path fill="#FFFFFF" d="M49.137,64.748"/>
<path fill="#999999" d="M42.773,45.064"/>
<g>
	<g>
		<g>
			<path fill="#FFFFFF" d="M29,53.419c1-6.793,9.99-11.826,22.314-11.826C63.641,41.593,73,46.626,73,53.419v1.71l15.403-9.163
				L51.183,24.143L13.707,45.895L29,55.271V53.419z"/>
			<path fill="#FFFFFF" d="M29,53.419c0.226-1.139,0.549-2.28,1.175-3.274c0.257-0.526,0.661-0.96,0.984-1.445
				c0.405-0.42,0.766-0.885,1.209-1.266c0.441-0.382,0.862-0.79,1.351-1.112c0.468-0.351,0.947-0.684,1.458-0.968
				c0.494-0.313,1.01-0.586,1.54-0.833c0.518-0.272,1.055-0.5,1.6-0.71c0.537-0.232,1.087-0.427,1.646-0.599
				c0.553-0.189,1.11-0.363,1.679-0.497c1.125-0.315,2.276-0.524,3.427-0.722l1.736-0.237l1.746-0.146
				c0.582-0.065,1.167-0.058,1.75-0.085c0.582-0.023,1.172-0.043,1.753-0.021c1.166-0.002,2.333,0.071,3.502,0.164
				c1.163,0.127,2.329,0.25,3.478,0.484c0.578,0.096,1.152,0.212,1.719,0.364c0.569,0.142,1.144,0.265,1.699,0.456
				c1.125,0.333,2.229,0.745,3.3,1.233c1.066,0.496,2.112,1.057,3.069,1.755l0.72,0.522l0.665,0.596
				c0.464,0.376,0.83,0.854,1.229,1.299c0.714,0.952,1.361,2.008,1.625,3.202c0.204,0.578,0.189,1.196,0.264,1.8l0.018,1.751
				l-0.512-0.291c5.106-3.101,10.217-6.195,15.348-9.256l0.002,0.77c-6.207-3.63-12.446-7.451-18.628-11.125L50.98,24h0.404
				L13.739,45.705l0.001,0.013l15.262,9.487l-0.009,0.036L29,53.419z M28.997,53.419L29,55.271v0.011l-0.006-0.006l-15.321-9.327
				l-0.09-0.056l0.092-0.055l37.307-22.043l0.199-0.118l0.205,0.119l18.651,10.84c6.226,3.601,12.393,7.298,18.592,10.943
				l0.653,0.384l-0.65,0.386c-5.139,3.047-10.297,6.062-15.459,9.07l-0.516,0.301l0.004-0.592l0.011-1.747
				c-0.063-0.552-0.032-1.12-0.216-1.653c-0.221-1.102-0.808-2.095-1.467-3.006c-0.372-0.428-0.709-0.889-1.15-1.257l-0.628-0.583
				l-0.688-0.515c-0.914-0.692-1.926-1.256-2.963-1.759c-1.041-0.496-2.12-0.92-3.226-1.266c-0.545-0.197-1.11-0.329-1.67-0.478
				c-0.558-0.159-1.124-0.284-1.695-0.388c-1.134-0.25-2.289-0.391-3.44-0.536c-1.154-0.11-2.312-0.203-3.48-0.22
				c-0.584-0.031-1.16-0.021-1.744-0.007c-0.581,0.018-1.165,0-1.744,0.056l-1.74,0.132l-1.731,0.226
				c-1.147,0.188-2.295,0.39-3.418,0.697c-0.568,0.129-1.125,0.298-1.677,0.484c-0.558,0.168-1.107,0.358-1.644,0.586
				c-0.544,0.207-1.082,0.43-1.599,0.698c-0.529,0.243-1.045,0.511-1.539,0.821c-0.512,0.279-0.992,0.608-1.46,0.955
				c-0.489,0.319-0.911,0.723-1.354,1.1c-0.444,0.376-0.807,0.838-1.213,1.254c-0.325,0.481-0.732,0.912-0.992,1.436
				C29.562,51.144,29.23,52.28,28.997,53.419z"/>
		</g>
		<g>
			<path fill="#FFFFFF" d="M16,48.813v18.984V48.813z"/>
			<path fill="#FFFFFF" d="M16.5,48.813c0.277,0.791,0.488,1.582,0.689,2.373c0.209,0.791,0.372,1.582,0.533,2.373
				c0.312,1.582,0.546,3.164,0.737,4.746c0.189,1.582,0.316,3.265,0.407,4.847C18.956,64.734,18.989,66,18.999,68h-4.998
				c0.007-2,0.04-3.266,0.128-4.848c0.093-1.582,0.213-3.214,0.405-4.796c0.19-1.582,0.424-3.189,0.737-4.771
				c0.162-0.791,0.326-1.595,0.536-2.386C16.009,50.408,16.221,49.604,16.5,48.813z M16.5,48.813
				c0.279,0.791,0.491,1.582,0.693,2.373c0.21,0.791,0.374,1.582,0.536,2.373c0.313,1.582,0.547,3.164,0.737,4.746
				c0.192,1.582,0.312,3.265,0.405,4.847C18.959,64.734,18.992,66,18.999,68h-4.998c0.01-2,0.043-3.266,0.133-4.848
				c0.09-1.582,0.218-3.214,0.407-4.796c0.191-1.582,0.425-3.189,0.737-4.771c0.161-0.791,0.324-1.595,0.533-2.386
				C16.012,50.408,16.223,49.604,16.5,48.813z"/>
		</g>
		<g>
			<path fill="#FFFFFF" d="M51.652,44.482C41.307,44.482,33.841,49,33,55v10.133v0.008c0,5.836,8.188,10.309,18.568,10.309
				C61.951,75.449,70,71,70,65V54.99C70,48.952,62,44.482,51.652,44.482z M51.356,73.363c-8.604,0-15.58-2.544-15.58-5.682
				c0-3.137,6.977-5.682,15.58-5.682c8.604,0,15.581,2.545,15.581,5.682C66.938,70.819,59.961,73.363,51.356,73.363z"/>
			<g>
				<path fill="#FFFFFF" d="M51.652,44.482l-1.448,0.047c-0.484,0.003-0.963,0.064-1.444,0.103c-0.481,0.04-0.962,0.082-1.438,0.163
					c-0.476,0.078-0.958,0.125-1.429,0.229l-1.416,0.3l-1.394,0.388c-0.461,0.139-0.911,0.314-1.367,0.47
					c-0.457,0.154-0.888,0.374-1.333,0.557c-0.449,0.177-0.857,0.438-1.288,0.652c-0.434,0.21-0.818,0.505-1.229,0.753
					c-0.409,0.253-0.767,0.578-1.15,0.867c-0.364,0.311-0.7,0.656-1.045,0.986c-0.298,0.374-0.64,0.713-0.901,1.112
					c-0.262,0.399-0.545,0.784-0.736,1.222c-0.234,0.416-0.394,0.862-0.539,1.314c-0.175,0.441-0.206,0.922-0.317,1.38L33.183,55
					l0.074,5.608l0.037,2.804l0.019,1.402c-0.013,0.413,0.077,0.915,0.111,1.368c0.356,1.689,1.479,3.24,2.864,4.373
					c1.397,1.147,3.035,2.013,4.749,2.652c1.717,0.642,3.513,1.076,5.33,1.364c1.815,0.292,3.676,0.37,5.5,0.37
					c1.889,0,3.679-0.171,5.508-0.472c1.816-0.297,3.593-0.812,5.281-1.511c1.683-0.707,3.276-1.644,4.588-2.88
					c0.665-0.611,1.2-1.336,1.65-2.104c0.375-0.799,0.72-1.641,0.747-2.536c0.102-1.82,0.071-3.725,0.112-5.583l0.037-2.804
					l0.019-1.402l0.007-0.686l-0.049-0.699c-0.13-1.829-1.171-3.494-2.485-4.774c-1.326-1.3-2.973-2.243-4.684-2.966
					c-1.72-0.719-3.528-1.218-5.365-1.553C55.388,44.661,53.521,44.512,51.652,44.482z M51.652,44.482
					c1.869,0.01,3.738,0.14,5.588,0.433c1.844,0.317,3.663,0.798,5.4,1.503c1.732,0.706,3.386,1.653,4.777,2.927
					c1.37,1.267,2.502,2.951,2.694,4.89l0.067,0.698l0.014,0.716l0.019,1.402l0.037,2.804c0.007,1.879,0.089,3.718,0.034,5.629
					c-0.01,0.988-0.357,1.932-0.753,2.822c-0.468,0.857-1.036,1.662-1.731,2.337c-1.368,1.379-3.054,2.368-4.8,3.127
					c-1.755,0.748-3.59,1.298-5.46,1.624c-1.854,0.329-3.797,0.527-5.647,0.544c-1.913-0.01-3.798-0.116-5.674-0.435
					c-1.871-0.316-3.721-0.783-5.5-1.47c-1.77-0.691-3.499-1.586-4.954-2.865c-1.449-1.271-2.64-2.917-2.998-4.929
					c-0.023-0.479-0.097-0.904-0.077-1.427l0.019-1.402l0.037-2.804L32.817,55l0-0.02l0.001-0.006
					c0.126-0.477,0.175-0.976,0.367-1.431c0.163-0.466,0.341-0.923,0.593-1.347c0.209-0.446,0.51-0.835,0.79-1.236
					c0.279-0.402,0.637-0.74,0.951-1.112c0.36-0.327,0.71-0.667,1.087-0.973c0.396-0.281,0.764-0.602,1.178-0.855
					c0.417-0.247,0.809-0.539,1.248-0.747c0.436-0.212,0.85-0.469,1.303-0.643c0.45-0.18,0.885-0.396,1.346-0.546
					c0.459-0.151,0.913-0.323,1.377-0.458l1.402-0.375l1.422-0.286c0.473-0.1,0.956-0.141,1.434-0.214
					c0.478-0.077,0.959-0.114,1.441-0.149c0.482-0.034,0.963-0.089,1.446-0.088L51.652,44.482z"/>
				<path fill="#FFFFFF" d="M51.356,73.363c0,0-0.275-0.003-0.791-0.008c-0.517,0.004-1.272-0.025-2.235-0.076
					c-1.917-0.13-4.683-0.406-7.851-1.418c-0.787-0.264-1.599-0.577-2.389-1.021c-0.79-0.427-1.591-0.985-2.146-1.841
					c-0.13-0.215-0.226-0.463-0.321-0.705c-0.023-0.268-0.132-0.513-0.074-0.812c0.021-0.238,0.045-0.48,0.174-0.756
					c0.089-0.285,0.243-0.501,0.396-0.72c0.636-0.868,1.54-1.459,2.468-1.962c1.88-0.995,3.995-1.569,6.154-1.954
					c2.167-0.385,4.379-0.571,6.624-0.591c2.189,0.016,4.46,0.206,6.606,0.589c2.159,0.386,4.274,0.956,6.155,1.954
					c0.929,0.503,1.832,1.095,2.469,1.963c0.155,0.22,0.308,0.438,0.39,0.704c0.123,0.244,0.16,0.517,0.183,0.788
					c0.004,0.082,0.021,0.103,0.015,0.233l-0.028,0.18l-0.058,0.355c-0.092,0.245-0.194,0.519-0.327,0.734
					c-0.556,0.855-1.357,1.414-2.147,1.842c-0.79,0.442-1.603,0.756-2.39,1.019c-3.168,1.01-5.933,1.288-7.851,1.417
					c-0.963,0.051-1.719,0.081-2.235,0.076C51.632,73.36,51.356,73.363,51.356,73.363z M51.356,73.363c0,0,0.275-0.008,0.791-0.021
					c0.516-0.004,1.271-0.046,2.231-0.112c0.959-0.083,2.123-0.202,3.441-0.438c1.319-0.226,2.802-0.559,4.339-1.14
					c0.767-0.292,1.552-0.636,2.297-1.096c0.748-0.441,1.481-1.021,1.929-1.782c0.102-0.19,0.16-0.374,0.239-0.571l0.042-0.358
					l0.021-0.18c-0.005,0.011-0.018-0.088-0.025-0.127c-0.028-0.213-0.06-0.425-0.174-0.62c-0.069-0.208-0.21-0.389-0.35-0.569
					c-0.572-0.721-1.431-1.246-2.326-1.68c-1.818-0.856-3.887-1.341-5.988-1.698c-2.126-0.341-4.262-0.483-6.475-0.472
					c-2.158-0.017-4.351,0.13-6.458,0.47c-2.102,0.358-4.171,0.839-5.99,1.696c-0.895,0.435-1.754,0.961-2.327,1.681
					c-0.141,0.183-0.28,0.365-0.344,0.554c-0.038,0.099-0.102,0.174-0.124,0.292l-0.058,0.36c-0.057,0.183,0.032,0.415,0.033,0.622
					c0.075,0.201,0.142,0.41,0.245,0.601c0.447,0.763,1.181,1.342,1.929,1.783c0.745,0.461,1.531,0.804,2.297,1.097
					c1.538,0.581,3.021,0.912,4.339,1.138c1.319,0.236,2.483,0.354,3.441,0.438c0.96,0.066,1.716,0.108,2.232,0.112
					C51.081,73.355,51.356,73.363,51.356,73.363z"/>
			</g>
		</g>
	</g>
</g>
</svg>
