<?xml version="1.0" encoding="utf-8"?>
<!-- Generator: Adobe Illustrator 16.0.0, SVG Export Plug-In . SVG Version: 6.00 Build 0)  -->
<!DOCTYPE svg PUBLIC "-//W3C//DTD SVG 1.1//EN" "http://www.w3.org/Graphics/SVG/1.1/DTD/svg11.dtd">
<svg version="1.1" id="Layer_1" xmlns="http://www.w3.org/2000/svg" xmlns:xlink="http://www.w3.org/1999/xlink" x="0px" y="0px"
	 width="100px" height="100px" viewBox="0 0 100 100" enable-background="new 0 0 100 100" xml:space="preserve">
<path fill="none" stroke="#FFFFFF" stroke-width="3" stroke-miterlimit="10" d="M50.774,58.317"/>
<path fill="none" stroke="#FFFFFF" stroke-width="3" stroke-miterlimit="10" d="M66.556,50.339"/>
<path fill="none" stroke="#FFFFFF" stroke-width="3" stroke-miterlimit="10" d="M50.774,19.127"/>
<path fill="none" stroke="#FFFFFF" stroke-width="3" stroke-miterlimit="10" d="M31.179,38.723"/>
<path fill="none" stroke="#FFFFFF" stroke-width="3" stroke-miterlimit="10" d="M33.281,47.562"/>
<path fill="none" stroke="#FFFFFF" stroke-width="3" stroke-miterlimit="10" d="M33.281,47.562"/>
<path fill="none" stroke="#FFFFFF" stroke-width="3" stroke-miterlimit="10" d="M50.774,58.317"/>
<path fill="none" stroke="#FFFFFF" stroke-width="3" stroke-miterlimit="10" d="M66.554,50.339"/>
<path fill="none" stroke="#FFFFFF" stroke-width="3" stroke-miterlimit="10" d="M34.997,50.339"/>
<path fill="#FFFFFF" d="M49.137,64.748"/>
<path fill="#999999" d="M42.773,45.064"/>
<g>
	<path fill="none" stroke="#FFFFFF" stroke-width="3" stroke-miterlimit="10" d="M50.774,58.317"/>
	<path fill="none" stroke="#FFFFFF" stroke-width="3" stroke-miterlimit="10" d="M66.556,50.34"/>
	<path fill="none" stroke="#FFFFFF" stroke-width="3" stroke-miterlimit="10" d="M50.774,19.127"/>
	<path fill="none" stroke="#FFFFFF" stroke-width="3" stroke-miterlimit="10" d="M31.179,38.723"/>
	<path fill="none" stroke="#FFFFFF" stroke-width="3" stroke-miterlimit="10" d="M33.281,47.562"/>
	<path fill="none" stroke="#FFFFFF" stroke-width="3" stroke-miterlimit="10" d="M33.281,47.562"/>
	<path fill="none" stroke="#FFFFFF" stroke-width="3" stroke-miterlimit="10" d="M50.774,58.317"/>
	<path fill="none" stroke="#FFFFFF" stroke-width="3" stroke-miterlimit="10" d="M66.554,50.34"/>
	<path fill="none" stroke="#FFFFFF" stroke-width="3" stroke-miterlimit="10" d="M34.997,50.34"/>
	<path fill="#FFFFFF" d="M50,14.019c-4-0.184-7.667,2.822-9.141,4.965C33.105,30.257,40,45.752,50,45.752
		C50,31.3,50,21.254,50,14.019z"/>
	<path fill="#FFFFFF" d="M50,14.019c6-0.184,7.668,2.822,9.141,4.965C66.893,30.257,61,45.752,50,45.752
		C50,31.3,50,21.254,50,14.019z"/>
	<path fill="#FFFFFF" d="M50,51c0,0,0-4.851,0-7.322C50,26.831,50,8,50,8"/>
	<path fill="#FFFFFF" d="M49.137,64.748"/>
	<path fill="#FFFFFF" d="M50,53.262c-4,0.146-13.431-7.303-18.205-6.26c-3.109,0.68-7.658,5.9-9.104,8.736
		c-1.438,2.818-4.312,8.302-3.551,11.372C20.159,71.225,31.582,85.053,50,85.861C50.061,77.861,50,58.042,50,53.262z M50,59v23.948
		l-5.702-6.897L49.084,59h0.04c0,0-2.27-1.627-2.935-3.375c-0.14-0.367-0.52-2.026-0.217-1.763C46.997,54.759,50,54.948,50,54.948
		V59z"/>
	<path fill="#FFFFFF" d="M50,85.861c18.418-0.809,29.841-14.637,30.859-18.751c0.762-3.07-2.113-8.554-3.551-11.372
		c-1.445-2.836-5.994-8.057-9.104-8.736C63.431,45.959,54,53.408,50,53.262C50,58.042,49.939,77.861,50,85.861z M50,54.948
		c0,0,3.003-0.189,4.027-1.086c0.303-0.264-0.077,1.396-0.217,1.763C53.145,57.373,50.875,59,50.875,59h0.04l4.787,17.051L50,82.948
		V59V54.948z"/>
	<path fill="#999999" d="M42.773,45.064"/>
</g>
</svg>
