<?xml version="1.0" encoding="utf-8"?>
<!-- Generator: Adobe Illustrator 16.0.0, SVG Export Plug-In . SVG Version: 6.00 Build 0)  -->
<!DOCTYPE svg PUBLIC "-//W3C//DTD SVG 1.1//EN" "http://www.w3.org/Graphics/SVG/1.1/DTD/svg11.dtd">
<svg version="1.1" id="Layer_1" xmlns="http://www.w3.org/2000/svg" xmlns:xlink="http://www.w3.org/1999/xlink" x="0px" y="0px"
	 width="400px" height="400px" viewBox="0 0 400 400" enable-background="new 0 0 400 400" xml:space="preserve">
<path fill="#FC6F5C" d="M0,0v400h400V0H0z M238.399,243.281c4.869,4.227,8.601,19.13,8.601,25.969V330h-34.479h-34.625
	c0,0,0.101-20.611,0-34.703c-47.373,10.195-60.594-26.008-60.594-26.008c-8.656-17.312-17.312-25.988-17.312-25.988
	c-17.312-10.279,0-8.666,0-8.666c17.312,0,25.969,17.308,25.969,17.308c15.19,25.8,42.225,21.646,51.938,17.31
	c0-8.656,3.787-21.743,8.656-25.97c-37.804-4.261-69.284-25.969-69.284-69.25s8.69-51.938,17.347-60.595
	c-1.75-4.27-8.995-20.035,0.271-43.281c0,0,17.008,0,34.32,25.969c8.58-8.58,34.625-8.656,43.29-8.656
	c8.647,0,34.692,0.076,43.272,8.656c17.312-25.969,34.354-25.969,34.354-25.969c9.265,23.246,2.021,39.012,0.271,43.281
	c8.656,8.656,17.285,17.312,17.285,60.594S276.211,239.021,238.399,243.281z"/>
</svg>
