<?xml version="1.0" encoding="utf-8"?>
<!-- Generator: Adobe Illustrator 16.0.0, SVG Export Plug-In . SVG Version: 6.00 Build 0)  -->
<!DOCTYPE svg PUBLIC "-//W3C//DTD SVG 1.1//EN" "http://www.w3.org/Graphics/SVG/1.1/DTD/svg11.dtd">
<svg version="1.1"
	 id="svg2" xmlns:inkscape="http://www.inkscape.org/namespaces/inkscape" xmlns:svg="http://www.w3.org/2000/svg" xmlns:rdf="http://www.w3.org/1999/02/22-rdf-syntax-ns#" xmlns:cc="http://creativecommons.org/ns#" xmlns:dc="http://purl.org/dc/elements/1.1/"
	 xmlns="http://www.w3.org/2000/svg" xmlns:xlink="http://www.w3.org/1999/xlink" x="0px" y="0px" width="550px" height="1000px"
	 viewBox="92.841 37.557 550 1000" enable-background="new 92.841 37.557 550 1000" xml:space="preserve">
<defs>
	
	<inkscape:path-effect  effect="spiro" id="path-effect3131"></inkscape:path-effect>
</defs>
<g id="layer4" transform="translate(-98.000001,-53.999986)">
</g>
<g id="use4761" transform="matrix(0.1,0,0,0.1,-598.08898,2831.4617)">
</g>
<g id="use4761-6" transform="matrix(0.1,0,0,0.1,-598.08898,2831.4617)">
</g>
<circle fill="#474D5D" cx="216.5" cy="87.856" r="9"/>
<circle fill="#474D5D" cx="246.5" cy="87.856" r="9"/>
<circle fill="#474D5D" cx="276.5" cy="87.856" r="9"/>
<circle fill="#474D5D" cx="306.5" cy="87.856" r="9"/>
<circle fill="#474D5D" cx="336.5" cy="87.856" r="9"/>
<circle fill="#474D5D" cx="366.5" cy="87.856" r="9"/>
<circle fill="#474D5D" cx="396.5" cy="87.856" r="9"/>
<circle fill="#474D5D" cx="426.5" cy="87.856" r="9"/>
<circle fill="#474D5D" cx="456.5" cy="87.856" r="9"/>
<circle fill="#474D5D" cx="486.5" cy="87.856" r="9"/>
<circle fill="#474D5D" cx="516.5" cy="87.856" r="9"/>
<circle fill="#474D5D" cx="546.5" cy="87.856" r="9"/>
<circle fill="#474D5D" cx="246.5" cy="117.856" r="9"/>
<circle fill="#474D5D" cx="276.5" cy="117.856" r="9"/>
<circle fill="#474D5D" cx="306.5" cy="117.856" r="9"/>
<circle fill="#474D5D" cx="336.5" cy="117.856" r="9"/>
<circle fill="#474D5D" cx="366.5" cy="117.856" r="9"/>
<circle fill="#474D5D" cx="396.5" cy="117.856" r="9"/>
<circle fill="#474D5D" cx="426.5" cy="117.856" r="9"/>
<circle fill="#474D5D" cx="456.5" cy="117.856" r="9"/>
<circle fill="#474D5D" cx="486.5" cy="117.856" r="9"/>
<circle fill="#474D5D" cx="516.5" cy="117.856" r="9"/>
<circle fill="#FC6F5C" cx="546.5" cy="117.856" r="9"/>
<circle fill="#FC6F5C" cx="576.5" cy="117.856" r="9"/>
<circle fill="#474D5D" cx="276.5" cy="147.856" r="9"/>
<circle fill="#474D5D" cx="306.5" cy="147.856" r="9"/>
<circle fill="#474D5D" cx="336.5" cy="147.856" r="9"/>
<circle fill="#474D5D" cx="366.5" cy="147.856" r="9"/>
<circle fill="#474D5D" cx="396.5" cy="147.856" r="9"/>
<circle fill="#474D5D" cx="426.5" cy="147.856" r="9"/>
<circle fill="#474D5D" cx="456.5" cy="147.856" r="9"/>
<circle fill="#474D5D" cx="486.5" cy="147.856" r="9"/>
<circle fill="#474D5D" cx="516.5" cy="147.856" r="9"/>
<circle fill="#FC6F5C" cx="546.5" cy="147.856" r="9"/>
<circle fill="#FC6F5C" cx="576.5" cy="147.856" r="9"/>
<circle fill="#474D5D" cx="276.5" cy="177.856" r="9"/>
<circle fill="#474D5D" cx="306.5" cy="177.856" r="9"/>
<circle fill="#474D5D" cx="336.5" cy="177.856" r="9"/>
<circle fill="#474D5D" cx="366.5" cy="177.856" r="9"/>
<circle fill="#474D5D" cx="396.5" cy="177.856" r="9"/>
<circle fill="#474D5D" cx="426.5" cy="177.856" r="9"/>
<circle fill="#474D5D" cx="456.5" cy="177.856" r="9"/>
<circle fill="#474D5D" cx="486.5" cy="177.856" r="9"/>
<circle fill="#474D5D" cx="516.5" cy="177.856" r="9"/>
<circle fill="#474D5D" cx="546.5" cy="177.856" r="9"/>
<circle fill="#474D5D" cx="576.5" cy="177.856" r="9"/>
<circle fill="#474D5D" cx="606.5" cy="177.856" r="9"/>
<circle fill="#474D5D" cx="246.5" cy="207.856" r="9"/>
<circle fill="#474D5D" cx="276.5" cy="207.856" r="9"/>
<circle fill="#474D5D" cx="306.5" cy="207.856" r="9"/>
<circle fill="#474D5D" cx="336.5" cy="207.856" r="9"/>
<circle fill="#474D5D" cx="366.5" cy="207.856" r="9"/>
<circle fill="#474D5D" cx="396.5" cy="207.856" r="9"/>
<circle fill="#474D5D" cx="426.5" cy="207.856" r="9"/>
<circle fill="#474D5D" cx="456.5" cy="207.856" r="9"/>
<circle fill="#474D5D" cx="486.5" cy="207.856" r="9"/>
<circle fill="#474D5D" cx="516.5" cy="207.856" r="9"/>
<circle fill="#474D5D" cx="546.5" cy="207.856" r="9"/>
<circle fill="#474D5D" cx="576.5" cy="207.856" r="9"/>
<circle fill="#474D5D" cx="606.5" cy="207.856" r="9"/>
<circle fill="#474D5D" cx="216.5" cy="237.856" r="9"/>
<circle fill="#474D5D" cx="246.5" cy="237.856" r="9"/>
<circle fill="#474D5D" cx="276.5" cy="237.856" r="9"/>
<circle fill="#474D5D" cx="306.5" cy="237.856" r="9"/>
<circle fill="#474D5D" cx="336.5" cy="237.856" r="9"/>
<circle fill="#474D5D" cx="366.5" cy="237.856" r="9"/>
<circle fill="#474D5D" cx="396.5" cy="237.856" r="9"/>
<circle fill="#474D5D" cx="426.5" cy="237.856" r="9"/>
<circle fill="#474D5D" cx="456.5" cy="237.856" r="9"/>
<circle fill="#474D5D" cx="486.5" cy="237.856" r="9"/>
<circle fill="#474D5D" cx="516.5" cy="237.856" r="9"/>
<circle fill="#474D5D" cx="546.5" cy="237.856" r="9"/>
<circle fill="#474D5D" cx="576.5" cy="237.856" r="9"/>
<circle fill="#474D5D" cx="606.5" cy="237.856" r="9"/>
<circle fill="#474D5D" cx="216.5" cy="267.856" r="9"/>
<circle fill="#474D5D" cx="186.5" cy="267.856" r="9"/>
<circle fill="#474D5D" cx="156.5" cy="267.856" r="9"/>
<circle fill="#474D5D" cx="246.5" cy="267.856" r="9"/>
<circle fill="#474D5D" cx="276.5" cy="267.856" r="9"/>
<circle fill="#474D5D" cx="306.5" cy="267.856" r="9"/>
<circle fill="#474D5D" cx="336.5" cy="267.856" r="9"/>
<circle fill="#474D5D" cx="366.5" cy="267.856" r="9"/>
<circle fill="#474D5D" cx="396.5" cy="267.856" r="9"/>
<circle fill="#474D5D" cx="426.5" cy="267.856" r="9"/>
<circle fill="#474D5D" cx="456.5" cy="267.856" r="9"/>
<circle fill="#474D5D" cx="486.5" cy="267.856" r="9"/>
<circle fill="#474D5D" cx="516.5" cy="267.856" r="9"/>
<circle fill="#474D5D" cx="546.5" cy="267.856" r="9"/>
<circle fill="#474D5D" cx="576.5" cy="267.856" r="9"/>
<circle fill="#474D5D" cx="606.5" cy="267.856" r="9"/>
<circle fill="#474D5D" cx="216.5" cy="297.856" r="9"/>
<circle fill="#474D5D" cx="186.5" cy="297.856" r="9"/>
<circle fill="#474D5D" cx="156.5" cy="297.856" r="9"/>
<circle fill="#474D5D" cx="246.5" cy="297.856" r="9"/>
<circle fill="#474D5D" cx="276.5" cy="297.856" r="9"/>
<circle fill="#474D5D" cx="306.5" cy="297.856" r="9"/>
<circle fill="#474D5D" cx="336.5" cy="297.856" r="9"/>
<circle fill="#474D5D" cx="366.5" cy="297.856" r="9"/>
<circle fill="#474D5D" cx="396.5" cy="297.856" r="9"/>
<circle fill="#474D5D" cx="426.5" cy="297.856" r="9"/>
<circle fill="#474D5D" cx="456.5" cy="297.856" r="9"/>
<circle fill="#474D5D" cx="486.5" cy="297.856" r="9"/>
<circle fill="#474D5D" cx="516.5" cy="297.856" r="9"/>
<circle fill="#474D5D" cx="546.5" cy="297.856" r="9"/>
<circle fill="#474D5D" cx="576.5" cy="297.856" r="9"/>
<circle fill="#474D5D" cx="606.5" cy="297.856" r="9"/>
<circle fill="#474D5D" cx="216.5" cy="327.856" r="9"/>
<circle fill="#474D5D" cx="186.5" cy="327.856" r="9"/>
<circle fill="#474D5D" cx="156.5" cy="327.856" r="9"/>
<circle fill="#474D5D" cx="246.5" cy="327.856" r="9"/>
<circle fill="#474D5D" cx="276.5" cy="327.856" r="9"/>
<circle fill="#474D5D" cx="306.5" cy="327.856" r="9"/>
<circle fill="#474D5D" cx="336.5" cy="327.856" r="9"/>
<circle fill="#474D5D" cx="366.5" cy="327.856" r="9"/>
<circle fill="#474D5D" cx="396.5" cy="327.856" r="9"/>
<circle fill="#474D5D" cx="426.5" cy="327.856" r="9"/>
<circle fill="#474D5D" cx="456.5" cy="327.856" r="9"/>
<circle fill="#474D5D" cx="486.5" cy="327.856" r="9"/>
<circle fill="#474D5D" cx="516.5" cy="327.856" r="9"/>
<circle fill="#474D5D" cx="546.5" cy="327.856" r="9"/>
<circle fill="#474D5D" cx="576.5" cy="327.856" r="9"/>
<circle fill="#474D5D" cx="606.5" cy="327.856" r="9"/>
<circle fill="#474D5D" cx="216.5" cy="357.856" r="9"/>
<circle fill="#474D5D" cx="186.5" cy="357.856" r="9"/>
<circle fill="#474D5D" cx="156.5" cy="357.856" r="9"/>
<circle fill="#474D5D" cx="246.5" cy="357.856" r="9"/>
<circle fill="#474D5D" cx="276.5" cy="357.856" r="9"/>
<circle fill="#474D5D" cx="306.5" cy="357.856" r="9"/>
<circle fill="#474D5D" cx="336.5" cy="357.856" r="9"/>
<circle fill="#474D5D" cx="366.5" cy="357.856" r="9"/>
<circle fill="#474D5D" cx="396.5" cy="357.856" r="9"/>
<circle fill="#474D5D" cx="426.5" cy="357.856" r="9"/>
<circle fill="#474D5D" cx="456.5" cy="357.856" r="9"/>
<circle fill="#474D5D" cx="486.5" cy="357.856" r="9"/>
<circle fill="#474D5D" cx="516.5" cy="357.856" r="9"/>
<circle fill="#474D5D" cx="546.5" cy="357.856" r="9"/>
<circle fill="#474D5D" cx="576.5" cy="357.856" r="9"/>
<circle fill="#474D5D" cx="606.5" cy="357.856" r="9"/>
<circle fill="#474D5D" cx="216.5" cy="387.856" r="9"/>
<circle fill="#474D5D" cx="186.5" cy="387.856" r="9"/>
<circle fill="#474D5D" cx="156.5" cy="387.856" r="9"/>
<circle fill="#474D5D" cx="126.5" cy="387.856" r="9"/>
<circle fill="#474D5D" cx="246.5" cy="387.856" r="9"/>
<circle fill="#474D5D" cx="276.5" cy="387.856" r="9"/>
<circle fill="#474D5D" cx="306.5" cy="387.856" r="9"/>
<circle fill="#474D5D" cx="336.5" cy="387.856" r="9"/>
<circle fill="#474D5D" cx="366.5" cy="387.856" r="9"/>
<circle fill="#474D5D" cx="396.5" cy="387.856" r="9"/>
<circle fill="#474D5D" cx="426.5" cy="387.856" r="9"/>
<circle fill="#474D5D" cx="456.5" cy="387.856" r="9"/>
<circle fill="#474D5D" cx="486.5" cy="387.856" r="9"/>
<circle fill="#474D5D" cx="516.5" cy="387.856" r="9"/>
<circle fill="#474D5D" cx="546.5" cy="387.856" r="9"/>
<circle fill="#474D5D" cx="576.5" cy="387.856" r="9"/>
<circle fill="#474D5D" cx="606.5" cy="387.856" r="9"/>
<circle fill="#474D5D" cx="216.5" cy="417.856" r="9"/>
<circle fill="#474D5D" cx="186.5" cy="417.856" r="9"/>
<circle fill="#474D5D" cx="156.5" cy="417.856" r="9"/>
<circle fill="#474D5D" cx="126.5" cy="417.856" r="9"/>
<circle fill="#474D5D" cx="246.5" cy="417.856" r="9"/>
<circle fill="#474D5D" cx="276.5" cy="417.856" r="9"/>
<circle fill="#474D5D" cx="306.5" cy="417.856" r="9"/>
<circle fill="#474D5D" cx="336.5" cy="417.856" r="9"/>
<circle fill="#474D5D" cx="366.5" cy="417.856" r="9"/>
<circle fill="#474D5D" cx="396.5" cy="417.856" r="9"/>
<circle fill="#474D5D" cx="426.5" cy="417.856" r="9"/>
<circle fill="#474D5D" cx="456.5" cy="417.856" r="9"/>
<circle fill="#474D5D" cx="486.5" cy="417.856" r="9"/>
<circle fill="#474D5D" cx="516.5" cy="417.856" r="9"/>
<circle fill="#474D5D" cx="546.5" cy="417.856" r="9"/>
<circle fill="#474D5D" cx="576.5" cy="417.856" r="9"/>
<circle fill="#474D5D" cx="606.5" cy="417.856" r="9"/>
<circle fill="#474D5D" cx="216.5" cy="447.856" r="9"/>
<circle fill="#474D5D" cx="186.5" cy="447.856" r="9"/>
<circle fill="#474D5D" cx="156.5" cy="447.856" r="9"/>
<circle fill="#474D5D" cx="126.5" cy="447.856" r="9"/>
<circle fill="#474D5D" cx="246.5" cy="447.856" r="9"/>
<circle fill="#474D5D" cx="276.5" cy="447.856" r="9"/>
<circle fill="#474D5D" cx="306.5" cy="447.856" r="9"/>
<circle fill="#474D5D" cx="336.5" cy="447.856" r="9"/>
<circle fill="#474D5D" cx="366.5" cy="447.856" r="9"/>
<circle fill="#474D5D" cx="396.5" cy="447.856" r="9"/>
<circle fill="#474D5D" cx="426.5" cy="447.856" r="9"/>
<circle fill="#474D5D" cx="456.5" cy="447.856" r="9"/>
<circle fill="#474D5D" cx="486.5" cy="447.856" r="9"/>
<circle fill="#474D5D" cx="516.5" cy="447.856" r="9"/>
<circle fill="#474D5D" cx="546.5" cy="447.856" r="9"/>
<circle fill="#474D5D" cx="576.5" cy="447.856" r="9"/>
<circle fill="#474D5D" cx="606.5" cy="447.856" r="9"/>
<circle fill="#474D5D" cx="216.5" cy="477.856" r="9"/>
<circle fill="#474D5D" cx="186.5" cy="477.856" r="9"/>
<circle fill="#474D5D" cx="156.5" cy="477.856" r="9"/>
<circle fill="#474D5D" cx="126.5" cy="477.856" r="9"/>
<circle fill="#474D5D" cx="246.5" cy="477.856" r="9"/>
<circle fill="#474D5D" cx="276.5" cy="477.856" r="9"/>
<circle fill="#474D5D" cx="306.5" cy="477.856" r="9"/>
<circle fill="#474D5D" cx="336.5" cy="477.856" r="9"/>
<circle fill="#474D5D" cx="366.5" cy="477.856" r="9"/>
<circle fill="#474D5D" cx="396.5" cy="477.856" r="9"/>
<circle fill="#474D5D" cx="426.5" cy="477.856" r="9"/>
<circle fill="#474D5D" cx="456.5" cy="477.856" r="9"/>
<circle fill="#474D5D" cx="486.5" cy="477.856" r="9"/>
<circle fill="#474D5D" cx="516.5" cy="477.856" r="9"/>
<circle fill="#474D5D" cx="546.5" cy="477.856" r="9"/>
<circle fill="#474D5D" cx="576.5" cy="477.856" r="9"/>
<circle fill="#474D5D" cx="606.5" cy="477.856" r="9"/>
<circle fill="#474D5D" cx="216.5" cy="507.856" r="9"/>
<circle fill="#474D5D" cx="186.5" cy="507.856" r="9"/>
<circle fill="#474D5D" cx="156.5" cy="507.856" r="9"/>
<circle fill="#474D5D" cx="126.5" cy="507.856" r="9"/>
<circle fill="#474D5D" cx="246.5" cy="507.856" r="9"/>
<circle fill="#474D5D" cx="276.5" cy="507.856" r="9"/>
<circle fill="#474D5D" cx="306.5" cy="507.856" r="9"/>
<circle fill="#474D5D" cx="336.5" cy="507.856" r="9"/>
<circle fill="#474D5D" cx="366.5" cy="507.856" r="9"/>
<circle fill="#474D5D" cx="396.5" cy="507.856" r="9"/>
<circle fill="#474D5D" cx="426.5" cy="507.856" r="9"/>
<circle fill="#474D5D" cx="456.5" cy="507.856" r="9"/>
<circle fill="#474D5D" cx="486.5" cy="507.856" r="9"/>
<circle fill="#474D5D" cx="516.5" cy="507.856" r="9"/>
<circle fill="#474D5D" cx="546.5" cy="507.856" r="9"/>
<circle fill="#474D5D" cx="576.5" cy="507.856" r="9"/>
<circle fill="#474D5D" cx="606.5" cy="507.856" r="9"/>
<circle fill="#474D5D" cx="216.5" cy="537.857" r="9"/>
<circle fill="#474D5D" cx="186.5" cy="537.857" r="9"/>
<circle fill="#474D5D" cx="156.5" cy="537.857" r="9"/>
<circle fill="#474D5D" cx="126.5" cy="537.857" r="9"/>
<circle fill="#474D5D" cx="246.5" cy="537.857" r="9"/>
<circle fill="#474D5D" cx="276.5" cy="537.857" r="9"/>
<circle fill="#474D5D" cx="306.5" cy="537.857" r="9"/>
<circle fill="#474D5D" cx="336.5" cy="537.857" r="9"/>
<circle fill="#474D5D" cx="366.5" cy="537.857" r="9"/>
<circle fill="#474D5D" cx="396.5" cy="537.857" r="9"/>
<circle fill="#474D5D" cx="426.5" cy="537.857" r="9"/>
<circle fill="#474D5D" cx="456.5" cy="537.857" r="9"/>
<circle fill="#474D5D" cx="486.5" cy="537.857" r="9"/>
<circle fill="#474D5D" cx="516.5" cy="537.857" r="9"/>
<circle fill="#474D5D" cx="546.5" cy="537.857" r="9"/>
<circle fill="#474D5D" cx="576.5" cy="537.857" r="9"/>
<circle fill="#474D5D" cx="606.5" cy="537.857" r="9"/>
<circle fill="#474D5D" cx="216.5" cy="567.857" r="9"/>
<circle fill="#474D5D" cx="186.5" cy="567.857" r="9"/>
<circle fill="#474D5D" cx="156.5" cy="567.857" r="9"/>
<circle fill="#474D5D" cx="126.5" cy="567.857" r="9"/>
<circle fill="#474D5D" cx="246.5" cy="567.857" r="9"/>
<circle fill="#474D5D" cx="276.5" cy="567.857" r="9"/>
<circle fill="#474D5D" cx="306.5" cy="567.857" r="9"/>
<circle fill="#474D5D" cx="336.5" cy="567.857" r="9"/>
<circle fill="#474D5D" cx="366.5" cy="567.857" r="9"/>
<circle fill="#474D5D" cx="396.5" cy="567.857" r="9"/>
<circle fill="#474D5D" cx="426.5" cy="567.857" r="9"/>
<circle fill="#474D5D" cx="456.5" cy="567.857" r="9"/>
<circle fill="#474D5D" cx="486.5" cy="567.857" r="9"/>
<circle fill="#474D5D" cx="516.5" cy="567.857" r="9"/>
<circle fill="#474D5D" cx="546.5" cy="567.857" r="9"/>
<circle fill="#474D5D" cx="576.5" cy="567.857" r="9"/>
<circle fill="#474D5D" cx="606.5" cy="567.857" r="9"/>
<circle fill="#474D5D" cx="216.5" cy="597.857" r="9"/>
<circle fill="#474D5D" cx="186.5" cy="597.857" r="9"/>
<circle fill="#474D5D" cx="156.5" cy="597.857" r="9"/>
<circle fill="#474D5D" cx="246.5" cy="597.857" r="9"/>
<circle fill="#474D5D" cx="276.5" cy="597.857" r="9"/>
<circle fill="#474D5D" cx="306.5" cy="597.857" r="9"/>
<circle fill="#474D5D" cx="336.5" cy="597.857" r="9"/>
<circle fill="#474D5D" cx="366.5" cy="597.857" r="9"/>
<circle fill="#474D5D" cx="396.5" cy="597.857" r="9"/>
<circle fill="#474D5D" cx="426.5" cy="597.857" r="9"/>
<circle fill="#474D5D" cx="456.5" cy="597.857" r="9"/>
<circle fill="#474D5D" cx="486.5" cy="597.857" r="9"/>
<circle fill="#474D5D" cx="516.5" cy="597.857" r="9"/>
<circle fill="#474D5D" cx="546.5" cy="597.857" r="9"/>
<circle fill="#474D5D" cx="576.5" cy="597.857" r="9"/>
<circle fill="#474D5D" cx="606.5" cy="597.857" r="9"/>
<circle fill="#474D5D" cx="216.5" cy="627.857" r="9"/>
<circle fill="#474D5D" cx="186.5" cy="627.857" r="9"/>
<circle fill="#474D5D" cx="246.5" cy="627.857" r="9"/>
<circle fill="#474D5D" cx="276.5" cy="627.857" r="9"/>
<circle fill="#474D5D" cx="306.5" cy="627.857" r="9"/>
<circle fill="#474D5D" cx="336.5" cy="627.857" r="9"/>
<circle fill="#474D5D" cx="366.5" cy="627.857" r="9"/>
<circle fill="#474D5D" cx="396.5" cy="627.857" r="9"/>
<circle fill="#474D5D" cx="426.5" cy="627.857" r="9"/>
<circle fill="#474D5D" cx="456.5" cy="627.857" r="9"/>
<circle fill="#474D5D" cx="486.5" cy="627.857" r="9"/>
<circle fill="#474D5D" cx="516.5" cy="627.857" r="9"/>
<circle fill="#474D5D" cx="546.5" cy="627.857" r="9"/>
<circle fill="#474D5D" cx="576.5" cy="627.857" r="9"/>
<circle fill="#474D5D" cx="216.5" cy="657.857" r="9"/>
<circle fill="#474D5D" cx="246.5" cy="657.857" r="9"/>
<circle fill="#474D5D" cx="276.5" cy="657.857" r="9"/>
<circle fill="#474D5D" cx="306.5" cy="657.857" r="9"/>
<circle fill="#474D5D" cx="336.5" cy="657.857" r="9"/>
<circle fill="#474D5D" cx="366.5" cy="657.857" r="9"/>
<circle fill="#474D5D" cx="396.5" cy="657.857" r="9"/>
<circle fill="#474D5D" cx="426.5" cy="657.857" r="9"/>
<circle fill="#474D5D" cx="456.5" cy="657.857" r="9"/>
<circle fill="#474D5D" cx="486.5" cy="657.857" r="9"/>
<circle fill="#474D5D" cx="516.5" cy="657.857" r="9"/>
<circle fill="#474D5D" cx="546.5" cy="657.857" r="9"/>
<circle fill="#474D5D" cx="576.5" cy="657.857" r="9"/>
<circle fill="#474D5D" cx="276.5" cy="687.857" r="9"/>
<circle fill="#474D5D" cx="306.5" cy="687.857" r="9"/>
<circle fill="#474D5D" cx="336.5" cy="687.857" r="9"/>
<circle fill="#474D5D" cx="366.5" cy="687.857" r="9"/>
<circle fill="#474D5D" cx="396.5" cy="687.857" r="9"/>
<circle fill="#474D5D" cx="426.5" cy="687.857" r="9"/>
<circle fill="#474D5D" cx="456.5" cy="687.857" r="9"/>
<circle fill="#474D5D" cx="486.5" cy="687.857" r="9"/>
<circle fill="#474D5D" cx="516.5" cy="687.857" r="9"/>
<circle fill="#474D5D" cx="546.5" cy="687.857" r="9"/>
<circle fill="#474D5D" cx="576.5" cy="687.857" r="9"/>
<circle fill="#474D5D" cx="276.5" cy="717.857" r="9"/>
<circle fill="#474D5D" cx="306.5" cy="717.857" r="9"/>
<circle fill="#474D5D" cx="336.5" cy="717.857" r="9"/>
<circle fill="#474D5D" cx="366.5" cy="717.857" r="9"/>
<circle fill="#474D5D" cx="396.5" cy="717.857" r="9"/>
<circle fill="#474D5D" cx="426.5" cy="717.857" r="9"/>
<circle fill="#474D5D" cx="456.5" cy="717.857" r="9"/>
<circle fill="#474D5D" cx="486.5" cy="717.857" r="9"/>
<circle fill="#474D5D" cx="516.5" cy="717.857" r="9"/>
<circle fill="#474D5D" cx="546.5" cy="717.857" r="9"/>
<circle fill="#474D5D" cx="576.5" cy="717.857" r="9"/>
<circle fill="#474D5D" cx="246.5" cy="747.857" r="9"/>
<circle fill="#474D5D" cx="276.5" cy="747.857" r="9"/>
<circle fill="#474D5D" cx="306.5" cy="747.857" r="9"/>
<circle fill="#474D5D" cx="336.5" cy="747.857" r="9"/>
<circle fill="#474D5D" cx="366.5" cy="747.857" r="9"/>
<circle fill="#474D5D" cx="396.5" cy="747.857" r="9"/>
<circle fill="#474D5D" cx="426.5" cy="747.857" r="9"/>
<circle fill="#474D5D" cx="456.5" cy="747.857" r="9"/>
<circle fill="#474D5D" cx="486.5" cy="747.857" r="9"/>
<circle fill="#474D5D" cx="516.5" cy="747.857" r="9"/>
<circle fill="#474D5D" cx="546.5" cy="747.857" r="9"/>
<circle fill="#474D5D" cx="576.5" cy="747.857" r="9"/>
<circle fill="#474D5D" cx="246.5" cy="777.857" r="9"/>
<circle fill="#474D5D" cx="276.5" cy="777.857" r="9"/>
<circle fill="#474D5D" cx="306.5" cy="777.857" r="9"/>
<circle fill="#474D5D" cx="336.5" cy="777.857" r="9"/>
<circle fill="#474D5D" cx="366.5" cy="777.857" r="9"/>
<circle fill="#474D5D" cx="396.5" cy="777.857" r="9"/>
<circle fill="#474D5D" cx="426.5" cy="777.857" r="9"/>
<circle fill="#474D5D" cx="456.5" cy="777.857" r="9"/>
<circle fill="#474D5D" cx="486.5" cy="777.857" r="9"/>
<circle fill="#474D5D" cx="516.5" cy="777.857" r="9"/>
<circle fill="#474D5D" cx="546.5" cy="777.857" r="9"/>
<circle fill="#474D5D" cx="576.5" cy="777.857" r="9"/>
<circle fill="#474D5D" cx="276.5" cy="807.857" r="9"/>
<circle fill="#474D5D" cx="306.5" cy="807.857" r="9"/>
<circle fill="#474D5D" cx="336.5" cy="807.857" r="9"/>
<circle fill="#474D5D" cx="366.5" cy="807.857" r="9"/>
<circle fill="#474D5D" cx="396.5" cy="807.857" r="9"/>
<circle fill="#474D5D" cx="426.5" cy="807.857" r="9"/>
<circle fill="#474D5D" cx="456.5" cy="807.857" r="9"/>
<circle fill="#474D5D" cx="486.5" cy="807.857" r="9"/>
<circle fill="#474D5D" cx="516.5" cy="807.857" r="9"/>
<circle fill="#474D5D" cx="546.5" cy="807.857" r="9"/>
<circle fill="#474D5D" cx="306.5" cy="837.857" r="9"/>
<circle fill="#474D5D" cx="336.5" cy="837.857" r="9"/>
<circle fill="#474D5D" cx="366.5" cy="837.857" r="9"/>
<circle fill="#474D5D" cx="396.5" cy="837.857" r="9"/>
<circle fill="#474D5D" cx="426.5" cy="837.857" r="9"/>
<circle fill="#474D5D" cx="456.5" cy="837.857" r="9"/>
<circle fill="#474D5D" cx="486.5" cy="837.857" r="9"/>
<circle fill="#474D5D" cx="516.5" cy="837.857" r="9"/>
<circle fill="#474D5D" cx="336.5" cy="867.857" r="9"/>
<circle fill="#474D5D" cx="366.5" cy="867.857" r="9"/>
<circle fill="#474D5D" cx="396.5" cy="867.857" r="9"/>
<circle fill="#474D5D" cx="426.5" cy="867.857" r="9"/>
<circle fill="#474D5D" cx="456.5" cy="867.857" r="9"/>
<circle fill="#474D5D" cx="486.5" cy="867.857" r="9"/>
<circle fill="#474D5D" cx="516.5" cy="867.857" r="9"/>
<circle fill="#474D5D" cx="366.5" cy="897.857" r="9"/>
<circle fill="#474D5D" cx="396.5" cy="897.857" r="9"/>
<circle fill="#474D5D" cx="426.5" cy="897.857" r="9"/>
<circle fill="#474D5D" cx="456.5" cy="897.857" r="9"/>
<circle fill="#474D5D" cx="486.5" cy="897.857" r="9"/>
<circle fill="#474D5D" cx="516.5" cy="897.857" r="9"/>
<circle fill="#474D5D" cx="366.5" cy="927.857" r="9"/>
<circle fill="#474D5D" cx="396.5" cy="927.857" r="9"/>
<circle fill="#474D5D" cx="426.5" cy="927.857" r="9"/>
<circle fill="#474D5D" cx="456.5" cy="927.857" r="9"/>
<circle fill="#474D5D" cx="366.5" cy="957.857" r="9"/>
<circle fill="#474D5D" cx="396.5" cy="957.857" r="9"/>
<circle fill="#474D5D" cx="456.5" cy="957.857" r="9"/>
<circle fill="#474D5D" cx="486.5" cy="957.857" r="9"/>
<circle fill="#474D5D" cx="366.5" cy="987.857" r="9"/>
</svg>
