<?xml version="1.0" encoding="utf-8"?>
<!-- Generator: Adobe Illustrator 16.0.0, SVG Export Plug-In . SVG Version: 6.00 Build 0)  -->
<!DOCTYPE svg PUBLIC "-//W3C//DTD SVG 1.1//EN" "http://www.w3.org/Graphics/SVG/1.1/DTD/svg11.dtd">
<svg version="1.1" id="Layer_1" xmlns="http://www.w3.org/2000/svg" xmlns:xlink="http://www.w3.org/1999/xlink" x="0px" y="0px"
	 width="400px" height="400px" viewBox="0 0 400 400" enable-background="new 0 0 400 400" xml:space="preserve">
<path fill="none" stroke="#FFFFFF" stroke-width="4" stroke-miterlimit="10" d="M256.523,6.967"/>
<path fill="#898B96" d="M0,0v400h400V297v-97V0H0z M350,350H50V50h300v145v5h-21v-4V71H70v259h259v-33h21V350z M312,223v-9h15v9H312
	z M327,231v46h-15v-46H327z M373,277h-15v-34.564c0-1.166-0.065-2.029-0.521-2.586c-0.456-0.559-0.98-0.836-2.076-0.836
	c-1.4,0.105-3.402,0.664-4.402,1.672V277h-15v-46h15v4.271c4-3.609,8.193-5.414,12.513-5.414c3.162,0,5.442,0.994,7.116,2.984
	c1.672,1.992,2.371,4.578,2.371,7.764V277z"/>
</svg>
