<?xml version="1.0" encoding="utf-8"?>
<!-- Generator: Adobe Illustrator 16.0.0, SVG Export Plug-In . SVG Version: 6.00 Build 0)  -->
<!DOCTYPE svg PUBLIC "-//W3C//DTD SVG 1.1//EN" "http://www.w3.org/Graphics/SVG/1.1/DTD/svg11.dtd">
<svg version="1.1" id="Layer_1" xmlns="http://www.w3.org/2000/svg" xmlns:xlink="http://www.w3.org/1999/xlink" x="0px" y="0px"
	 width="400px" height="400px" viewBox="0 0 400 400" enable-background="new 0 0 400 400" xml:space="preserve">
<path fill="#474D5D" d="M0,0v400h400V0H0z M138,315H88V163h50V315z M113.115,141.083c-15.292,0-27.578-12.375-27.578-27.581
	c0-15.205,12.286-27.579,27.578-27.579c15.205,0,27.582,12.374,27.582,27.579C140.697,128.708,128.32,141.083,113.115,141.083z
	 M316,315h-48v-74.473c0-17.769-1.203-40.575-25.597-40.575c-24.751,0-29.403,19.359-29.403,39.246V315h-46.227l-0.088-152H211v18
	h1.825c6.365-11,22.416-23.717,45.575-23.717c48.089,0,57.6,32.592,57.6,73.785V315z"/>
</svg>
