<?xml version="1.0" encoding="utf-8"?>
<!-- Generator: Adobe Illustrator 16.0.4, SVG Export Plug-In . SVG Version: 6.00 Build 0)  -->
<!DOCTYPE svg PUBLIC "-//W3C//DTD SVG 1.1//EN" "http://www.w3.org/Graphics/SVG/1.1/DTD/svg11.dtd">
<svg version="1.1"
	 id="svg2" xmlns:inkscape="http://www.inkscape.org/namespaces/inkscape" xmlns:svg="http://www.w3.org/2000/svg" xmlns:rdf="http://www.w3.org/1999/02/22-rdf-syntax-ns#" xmlns:cc="http://creativecommons.org/ns#" xmlns:dc="http://purl.org/dc/elements/1.1/"
	 xmlns="http://www.w3.org/2000/svg" xmlns:xlink="http://www.w3.org/1999/xlink" x="0px" y="0px" width="665.967px"
	 height="1000px" viewBox="0 0 665.967 1000" enable-background="new 0 0 665.967 1000" xml:space="preserve">
<defs>
	
	<inkscape:path-effect  id="path-effect3131" effect="spiro"></inkscape:path-effect>
</defs>
<g id="layer4" transform="translate(-98.000001,-53.999986)">
</g>
<g id="use4761" transform="matrix(0.1,0,0,0.1,-598.08898,2831.4617)">
</g>
<g id="use4761-6" transform="matrix(0.1,0,0,0.1,-598.08898,2831.4617)">
</g>
<circle fill="#474D5D" cx="281.706" cy="113.856" r="9"/>
<circle fill="#474D5D" cx="281.706" cy="143.856" r="9"/>
<circle fill="#474D5D" cx="281.706" cy="173.856" r="9"/>
<circle fill="#474D5D" cx="311.706" cy="173.856" r="9"/>
<circle fill="#474D5D" cx="341.706" cy="173.856" r="9"/>
<circle fill="#474D5D" cx="371.706" cy="173.856" r="9"/>
<circle fill="#474D5D" cx="281.706" cy="203.856" r="9"/>
<circle fill="#474D5D" cx="311.706" cy="203.856" r="9"/>
<circle fill="#474D5D" cx="341.706" cy="203.856" r="9"/>
<circle fill="#474D5D" cx="371.706" cy="203.856" r="9"/>
<circle fill="#474D5D" cx="401.706" cy="203.856" r="9"/>
<circle fill="#474D5D" cx="431.706" cy="203.856" r="9"/>
<circle fill="#474D5D" cx="461.706" cy="203.856" r="9"/>
<circle fill="#474D5D" cx="221.706" cy="233.856" r="9"/>
<circle fill="#474D5D" cx="191.706" cy="233.856" r="9"/>
<circle fill="#474D5D" cx="161.706" cy="233.856" r="9"/>
<circle fill="#474D5D" cx="251.706" cy="233.856" r="9"/>
<circle fill="#474D5D" cx="281.706" cy="233.856" r="9"/>
<circle fill="#474D5D" cx="311.706" cy="233.856" r="9"/>
<circle fill="#474D5D" cx="341.706" cy="233.856" r="9"/>
<circle fill="#474D5D" cx="371.706" cy="233.856" r="9"/>
<circle fill="#474D5D" cx="401.706" cy="233.856" r="9"/>
<circle fill="#474D5D" cx="431.706" cy="233.856" r="9"/>
<circle fill="#474D5D" cx="461.706" cy="233.856" r="9"/>
<circle fill="#474D5D" cx="491.706" cy="233.856" r="9"/>
<circle fill="#474D5D" cx="521.706" cy="233.856" r="9"/>
<circle fill="#474D5D" cx="551.706" cy="233.856" r="9"/>
<circle fill="#474D5D" cx="221.706" cy="263.856" r="9"/>
<circle fill="#474D5D" cx="191.706" cy="263.856" r="9"/>
<circle fill="#474D5D" cx="161.706" cy="263.856" r="9"/>
<circle fill="#474D5D" cx="251.706" cy="263.856" r="9"/>
<circle fill="#474D5D" cx="281.706" cy="263.856" r="9"/>
<circle fill="#474D5D" cx="311.706" cy="263.856" r="9"/>
<circle fill="#474D5D" cx="341.706" cy="263.856" r="9"/>
<circle fill="#474D5D" cx="371.706" cy="263.856" r="9"/>
<circle fill="#474D5D" cx="401.706" cy="263.856" r="9"/>
<circle fill="#474D5D" cx="431.706" cy="263.856" r="9"/>
<circle fill="#474D5D" cx="461.706" cy="263.856" r="9"/>
<circle fill="#474D5D" cx="491.706" cy="263.856" r="9"/>
<circle fill="#474D5D" cx="521.706" cy="263.856" r="9"/>
<circle fill="#474D5D" cx="551.706" cy="263.856" r="9"/>
<circle fill="#474D5D" cx="581.706" cy="263.856" r="9"/>
<circle fill="#474D5D" cx="221.706" cy="293.856" r="9"/>
<circle fill="#474D5D" cx="191.706" cy="293.856" r="9"/>
<circle fill="#474D5D" cx="161.706" cy="293.856" r="9"/>
<circle fill="#474D5D" cx="251.706" cy="293.856" r="9"/>
<circle fill="#474D5D" cx="281.706" cy="293.856" r="9"/>
<circle fill="#474D5D" cx="311.706" cy="293.856" r="9"/>
<circle fill="#474D5D" cx="341.706" cy="293.856" r="9"/>
<circle fill="#474D5D" cx="371.706" cy="293.856" r="9"/>
<circle fill="#474D5D" cx="401.706" cy="293.856" r="9"/>
<circle fill="#474D5D" cx="431.706" cy="293.856" r="9"/>
<circle fill="#474D5D" cx="461.706" cy="293.856" r="9"/>
<circle fill="#474D5D" cx="491.706" cy="293.856" r="9"/>
<circle fill="#474D5D" cx="521.706" cy="293.856" r="9"/>
<circle fill="#474D5D" cx="551.706" cy="293.856" r="9"/>
<circle fill="#474D5D" cx="581.706" cy="293.856" r="9"/>
<circle fill="#474D5D" cx="221.706" cy="323.856" r="9"/>
<circle fill="#474D5D" cx="191.706" cy="323.856" r="9"/>
<circle fill="#474D5D" cx="161.706" cy="323.856" r="9"/>
<circle fill="#474D5D" cx="251.706" cy="323.856" r="9"/>
<circle fill="#474D5D" cx="281.706" cy="323.856" r="9"/>
<circle fill="#474D5D" cx="311.706" cy="323.856" r="9"/>
<circle fill="#474D5D" cx="341.706" cy="323.856" r="9"/>
<circle fill="#474D5D" cx="371.706" cy="323.856" r="9"/>
<circle fill="#474D5D" cx="401.706" cy="323.856" r="9"/>
<circle fill="#474D5D" cx="431.706" cy="323.856" r="9"/>
<circle fill="#474D5D" cx="461.706" cy="323.856" r="9"/>
<circle fill="#474D5D" cx="491.706" cy="323.856" r="9"/>
<circle fill="#474D5D" cx="521.706" cy="323.856" r="9"/>
<circle fill="#474D5D" cx="551.706" cy="323.856" r="9"/>
<circle fill="#474D5D" cx="581.706" cy="323.856" r="9"/>
<circle fill="#474D5D" cx="221.706" cy="353.857" r="9"/>
<circle fill="#474D5D" cx="191.706" cy="353.857" r="9"/>
<circle fill="#474D5D" cx="161.706" cy="353.857" r="9"/>
<circle fill="#474D5D" cx="131.706" cy="353.857" r="9"/>
<circle fill="#474D5D" cx="251.706" cy="353.857" r="9"/>
<circle fill="#474D5D" cx="281.706" cy="353.857" r="9"/>
<circle fill="#474D5D" cx="311.706" cy="353.857" r="9"/>
<circle fill="#474D5D" cx="341.706" cy="353.857" r="9"/>
<circle fill="#474D5D" cx="371.706" cy="353.857" r="9"/>
<circle fill="#474D5D" cx="401.706" cy="353.857" r="9"/>
<circle fill="#474D5D" cx="431.706" cy="353.857" r="9"/>
<circle fill="#474D5D" cx="461.706" cy="353.857" r="9"/>
<circle fill="#474D5D" cx="491.706" cy="353.857" r="9"/>
<circle fill="#474D5D" cx="521.706" cy="353.857" r="9"/>
<circle fill="#474D5D" cx="551.706" cy="353.857" r="9"/>
<circle fill="#474D5D" cx="581.706" cy="353.857" r="9"/>
<circle fill="#474D5D" cx="221.706" cy="383.857" r="9"/>
<circle fill="#474D5D" cx="191.706" cy="383.857" r="9"/>
<circle fill="#474D5D" cx="161.706" cy="383.857" r="9"/>
<circle fill="#474D5D" cx="131.706" cy="383.857" r="9"/>
<circle fill="#474D5D" cx="251.706" cy="383.857" r="9"/>
<circle fill="#474D5D" cx="281.706" cy="383.857" r="9"/>
<circle fill="#474D5D" cx="311.706" cy="383.857" r="9"/>
<circle fill="#474D5D" cx="341.706" cy="383.857" r="9"/>
<circle fill="#474D5D" cx="371.706" cy="383.857" r="9"/>
<circle fill="#474D5D" cx="401.706" cy="383.857" r="9"/>
<circle fill="#474D5D" cx="431.706" cy="383.857" r="9"/>
<circle fill="#474D5D" cx="461.706" cy="383.857" r="9"/>
<circle fill="#474D5D" cx="491.706" cy="383.857" r="9"/>
<circle fill="#474D5D" cx="521.706" cy="383.857" r="9"/>
<circle fill="#474D5D" cx="551.706" cy="383.857" r="9"/>
<circle fill="#474D5D" cx="581.706" cy="383.857" r="9"/>
<circle fill="#474D5D" cx="221.706" cy="413.858" r="9"/>
<circle fill="#474D5D" cx="191.706" cy="413.858" r="9"/>
<circle fill="#474D5D" cx="161.706" cy="413.858" r="9"/>
<circle fill="#474D5D" cx="131.706" cy="413.858" r="9"/>
<circle fill="#474D5D" cx="251.706" cy="413.858" r="9"/>
<circle fill="#474D5D" cx="281.706" cy="413.858" r="9"/>
<circle fill="#474D5D" cx="311.706" cy="413.858" r="9"/>
<circle fill="#474D5D" cx="341.706" cy="413.858" r="9"/>
<circle fill="#474D5D" cx="371.706" cy="413.858" r="9"/>
<circle fill="#474D5D" cx="401.706" cy="413.858" r="9"/>
<circle fill="#474D5D" cx="431.706" cy="413.858" r="9"/>
<circle fill="#474D5D" cx="461.706" cy="413.858" r="9"/>
<circle fill="#474D5D" cx="491.706" cy="413.858" r="9"/>
<circle fill="#474D5D" cx="521.706" cy="413.858" r="9"/>
<circle fill="#474D5D" cx="551.706" cy="413.858" r="9"/>
<circle fill="#474D5D" cx="221.706" cy="443.858" r="9"/>
<circle fill="#474D5D" cx="191.706" cy="443.858" r="9"/>
<circle fill="#474D5D" cx="161.706" cy="443.858" r="9"/>
<circle fill="#474D5D" cx="131.706" cy="443.858" r="9"/>
<circle fill="#474D5D" cx="251.706" cy="443.858" r="9"/>
<circle fill="#474D5D" cx="281.706" cy="443.858" r="9"/>
<circle fill="#474D5D" cx="311.706" cy="443.858" r="9"/>
<circle fill="#474D5D" cx="341.706" cy="443.858" r="9"/>
<circle fill="#474D5D" cx="371.706" cy="443.858" r="9"/>
<circle fill="#474D5D" cx="401.706" cy="443.858" r="9"/>
<circle fill="#474D5D" cx="431.706" cy="443.858" r="9"/>
<circle fill="#474D5D" cx="461.706" cy="443.858" r="9"/>
<circle fill="#474D5D" cx="491.706" cy="443.858" r="9"/>
<circle fill="#474D5D" cx="521.706" cy="443.858" r="9"/>
<circle fill="#474D5D" cx="221.706" cy="473.857" r="9"/>
<circle fill="#474D5D" cx="191.706" cy="473.857" r="9"/>
<circle fill="#474D5D" cx="161.706" cy="473.857" r="9"/>
<circle fill="#474D5D" cx="131.706" cy="473.857" r="9"/>
<circle fill="#474D5D" cx="251.706" cy="473.857" r="9"/>
<circle fill="#474D5D" cx="281.706" cy="473.857" r="9"/>
<circle fill="#474D5D" cx="311.706" cy="473.857" r="9"/>
<circle fill="#474D5D" cx="341.706" cy="473.857" r="9"/>
<circle fill="#474D5D" cx="371.706" cy="473.857" r="9"/>
<circle fill="#474D5D" cx="401.706" cy="473.857" r="9"/>
<circle fill="#474D5D" cx="431.706" cy="473.857" r="9"/>
<circle fill="#474D5D" cx="461.706" cy="473.857" r="9"/>
<circle fill="#474D5D" cx="491.706" cy="473.857" r="9"/>
<circle fill="#474D5D" cx="221.706" cy="503.859" r="9"/>
<circle fill="#474D5D" cx="191.706" cy="503.859" r="9"/>
<circle fill="#474D5D" cx="161.706" cy="503.859" r="9"/>
<circle fill="#474D5D" cx="131.706" cy="503.859" r="9"/>
<circle fill="#474D5D" cx="251.706" cy="503.859" r="9"/>
<circle fill="#474D5D" cx="281.706" cy="503.859" r="9"/>
<circle fill="#474D5D" cx="311.706" cy="503.859" r="9"/>
<circle fill="#474D5D" cx="341.706" cy="503.859" r="9"/>
<circle fill="#474D5D" cx="371.706" cy="503.859" r="9"/>
<circle fill="#474D5D" cx="401.706" cy="503.859" r="9"/>
<circle fill="#474D5D" cx="431.706" cy="503.859" r="9"/>
<circle fill="#474D5D" cx="461.706" cy="503.859" r="9"/>
<circle fill="#474D5D" cx="491.706" cy="503.859" r="9"/>
<circle fill="#474D5D" cx="221.706" cy="533.859" r="9"/>
<circle fill="#474D5D" cx="191.706" cy="533.859" r="9"/>
<circle fill="#474D5D" cx="161.706" cy="533.859" r="9"/>
<circle fill="#474D5D" cx="131.706" cy="533.859" r="9"/>
<circle fill="#474D5D" cx="251.706" cy="533.859" r="9"/>
<circle fill="#474D5D" cx="281.706" cy="533.859" r="9"/>
<circle fill="#474D5D" cx="311.706" cy="533.859" r="9"/>
<circle fill="#474D5D" cx="341.706" cy="533.859" r="9"/>
<circle fill="#474D5D" cx="371.706" cy="533.859" r="9"/>
<circle fill="#474D5D" cx="401.706" cy="533.859" r="9"/>
<circle fill="#474D5D" cx="431.706" cy="533.859" r="9"/>
<circle fill="#474D5D" cx="461.706" cy="533.859" r="9"/>
<circle fill="#474D5D" cx="491.706" cy="533.859" r="9"/>
<circle fill="#474D5D" cx="221.706" cy="563.859" r="9"/>
<circle fill="#474D5D" cx="191.706" cy="563.859" r="9"/>
<circle fill="#474D5D" cx="161.706" cy="563.859" r="9"/>
<circle fill="#474D5D" cx="251.706" cy="563.859" r="9"/>
<circle fill="#474D5D" cx="281.706" cy="563.859" r="9"/>
<circle fill="#474D5D" cx="311.706" cy="563.859" r="9"/>
<circle fill="#474D5D" cx="341.706" cy="563.859" r="9"/>
<circle fill="#474D5D" cx="371.706" cy="563.859" r="9"/>
<circle fill="#474D5D" cx="401.706" cy="563.859" r="9"/>
<circle fill="#474D5D" cx="431.706" cy="563.859" r="9"/>
<circle fill="#474D5D" cx="461.706" cy="563.859" r="9"/>
<circle fill="#474D5D" cx="221.706" cy="593.859" r="9"/>
<circle fill="#474D5D" cx="191.706" cy="593.859" r="9"/>
<circle fill="#474D5D" cx="251.706" cy="593.859" r="9"/>
<circle fill="#474D5D" cx="281.706" cy="593.859" r="9"/>
<circle fill="#474D5D" cx="311.706" cy="593.859" r="9"/>
<circle fill="#474D5D" cx="341.706" cy="593.859" r="9"/>
<circle fill="#474D5D" cx="371.706" cy="593.859" r="9"/>
<circle fill="#474D5D" cx="401.706" cy="593.859" r="9"/>
<circle fill="#474D5D" cx="431.706" cy="593.859" r="9"/>
<circle fill="#474D5D" cx="221.706" cy="623.859" r="9"/>
<circle fill="#474D5D" cx="251.706" cy="623.859" r="9"/>
<circle fill="#474D5D" cx="281.706" cy="623.859" r="9"/>
<circle fill="#474D5D" cx="311.706" cy="623.859" r="9"/>
<circle fill="#474D5D" cx="341.706" cy="623.859" r="9"/>
<circle fill="#474D5D" cx="371.706" cy="623.859" r="9"/>
<circle fill="#474D5D" cx="401.706" cy="623.859" r="9"/>
<circle fill="#474D5D" cx="431.706" cy="623.859" r="9"/>
<circle fill="#474D5D" cx="461.706" cy="623.859" r="9"/>
<circle fill="#474D5D" cx="281.706" cy="653.859" r="9"/>
<circle fill="#474D5D" cx="311.706" cy="653.859" r="9"/>
<circle fill="#474D5D" cx="341.706" cy="653.859" r="9"/>
<circle fill="#474D5D" cx="371.706" cy="653.859" r="9"/>
<circle fill="#474D5D" cx="401.706" cy="653.859" r="9"/>
<circle fill="#474D5D" cx="431.706" cy="653.859" r="9"/>
<circle fill="#474D5D" cx="461.706" cy="653.859" r="9"/>
<circle fill="#474D5D" cx="281.706" cy="683.859" r="9"/>
<circle fill="#474D5D" cx="311.706" cy="683.859" r="9"/>
<circle fill="#474D5D" cx="341.706" cy="683.859" r="9"/>
<circle fill="#474D5D" cx="371.706" cy="683.859" r="9"/>
<circle fill="#FC6F5C" cx="401.706" cy="683.859" r="9"/>
<circle fill="#FC6F5C" cx="431.706" cy="683.859" r="9"/>
<circle fill="#474D5D" cx="461.706" cy="683.859" r="9"/>
<circle fill="#474D5D" cx="251.706" cy="713.859" r="9"/>
<circle fill="#474D5D" cx="281.706" cy="713.859" r="9"/>
<circle fill="#474D5D" cx="311.706" cy="713.859" r="9"/>
<circle fill="#474D5D" cx="341.706" cy="713.859" r="9"/>
<circle fill="#474D5D" cx="371.706" cy="713.859" r="9"/>
<circle fill="#FC6F5C" cx="401.706" cy="713.859" r="9"/>
<circle fill="#FC6F5C" cx="431.706" cy="713.859" r="9"/>
<circle fill="#474D5D" cx="461.706" cy="713.859" r="9"/>
<circle fill="#474D5D" cx="251.706" cy="743.859" r="9"/>
<circle fill="#474D5D" cx="281.706" cy="743.859" r="9"/>
<circle fill="#474D5D" cx="311.706" cy="743.859" r="9"/>
<circle fill="#474D5D" cx="341.706" cy="743.859" r="9"/>
<circle fill="#474D5D" cx="371.706" cy="743.859" r="9"/>
<circle fill="#474D5D" cx="401.706" cy="743.859" r="9"/>
<circle fill="#474D5D" cx="431.706" cy="743.859" r="9"/>
<circle fill="#474D5D" cx="461.706" cy="743.859" r="9"/>
<circle fill="#474D5D" cx="491.706" cy="743.859" r="9"/>
<circle fill="#474D5D" cx="521.706" cy="743.859" r="9"/>
<circle fill="#474D5D" cx="281.706" cy="773.859" r="9"/>
<circle fill="#474D5D" cx="311.706" cy="773.859" r="9"/>
<circle fill="#474D5D" cx="341.706" cy="773.859" r="9"/>
<circle fill="#474D5D" cx="371.706" cy="773.859" r="9"/>
<circle fill="#474D5D" cx="401.706" cy="773.859" r="9"/>
<circle fill="#474D5D" cx="431.706" cy="773.859" r="9"/>
<circle fill="#474D5D" cx="461.706" cy="773.859" r="9"/>
<circle fill="#474D5D" cx="491.706" cy="773.859" r="9"/>
<circle fill="#474D5D" cx="521.706" cy="773.859" r="9"/>
<circle fill="#474D5D" cx="551.706" cy="773.859" r="9"/>
<circle fill="#474D5D" cx="311.706" cy="803.859" r="9"/>
<circle fill="#474D5D" cx="341.706" cy="803.859" r="9"/>
<circle fill="#474D5D" cx="371.706" cy="803.859" r="9"/>
<circle fill="#474D5D" cx="401.706" cy="803.859" r="9"/>
<circle fill="#474D5D" cx="431.706" cy="803.859" r="9"/>
<circle fill="#474D5D" cx="461.706" cy="803.859" r="9"/>
<circle fill="#474D5D" cx="491.706" cy="803.859" r="9"/>
<circle fill="#474D5D" cx="521.706" cy="803.859" r="9"/>
<circle fill="#474D5D" cx="341.706" cy="833.859" r="9"/>
<circle fill="#474D5D" cx="371.706" cy="833.859" r="9"/>
<circle fill="#474D5D" cx="401.706" cy="833.859" r="9"/>
<circle fill="#474D5D" cx="431.706" cy="833.859" r="9"/>
<circle fill="#474D5D" cx="461.706" cy="833.859" r="9"/>
<circle fill="#474D5D" cx="491.706" cy="833.859" r="9"/>
<circle fill="#474D5D" cx="521.706" cy="833.859" r="9"/>
<circle fill="#474D5D" cx="371.706" cy="863.859" r="9"/>
<circle fill="#474D5D" cx="401.706" cy="863.859" r="9"/>
<circle fill="#474D5D" cx="431.706" cy="863.859" r="9"/>
<circle fill="#474D5D" cx="461.706" cy="863.859" r="9"/>
<circle fill="#474D5D" cx="491.706" cy="863.859" r="9"/>
<circle fill="#474D5D" cx="521.706" cy="863.859" r="9"/>
<circle fill="#474D5D" cx="371.706" cy="893.859" r="9"/>
<circle fill="#474D5D" cx="401.706" cy="893.859" r="9"/>
<circle fill="#474D5D" cx="431.706" cy="893.859" r="9"/>
<circle fill="#474D5D" cx="461.706" cy="893.859" r="9"/>
<circle fill="#474D5D" cx="251.602" cy="113.96" r="9"/>
<circle fill="#474D5D" cx="101.602" cy="143.856" r="9"/>
<circle fill="#474D5D" cx="131.602" cy="143.856" r="9"/>
<circle fill="#474D5D" cx="161.602" cy="143.856" r="9"/>
<circle fill="#474D5D" cx="191.602" cy="143.856" r="9"/>
<circle fill="#474D5D" cx="221.602" cy="143.856" r="9"/>
<circle fill="#474D5D" cx="251.602" cy="143.856" r="9"/>
<circle fill="#474D5D" cx="71.602" cy="173.856" r="9"/>
<circle fill="#474D5D" cx="101.602" cy="173.856" r="9"/>
<circle fill="#474D5D" cx="131.602" cy="173.856" r="9"/>
<circle fill="#474D5D" cx="161.602" cy="173.856" r="9"/>
<circle fill="#474D5D" cx="191.602" cy="173.856" r="9"/>
<circle fill="#474D5D" cx="221.602" cy="173.856" r="9"/>
<circle fill="#474D5D" cx="251.602" cy="173.856" r="9"/>
<circle fill="#474D5D" cx="71.602" cy="203.856" r="9"/>
<circle fill="#474D5D" cx="101.602" cy="203.856" r="9"/>
<circle fill="#474D5D" cx="131.602" cy="203.856" r="9"/>
<circle fill="#474D5D" cx="161.602" cy="203.856" r="9"/>
<circle fill="#474D5D" cx="191.602" cy="203.856" r="9"/>
<circle fill="#474D5D" cx="221.602" cy="203.856" r="9"/>
<circle fill="#474D5D" cx="251.602" cy="203.856" r="9"/>
<circle fill="#474D5D" cx="551.706" cy="803.859" r="9"/>
<circle fill="#474D5D" cx="581.706" cy="803.859" r="9"/>
<circle fill="#474D5D" cx="611.706" cy="263.856" r="9"/>
<circle fill="#474D5D" cx="641.706" cy="263.856" r="9"/>
<circle fill="#474D5D" cx="671.706" cy="263.856" r="9"/>
<circle fill="#474D5D" cx="611.706" cy="293.856" r="9"/>
<circle fill="#474D5D" cx="641.706" cy="293.856" r="9"/>
<circle fill="#474D5D" cx="671.706" cy="293.856" r="9"/>
<circle fill="#474D5D" cx="701.706" cy="293.856" r="9"/>
<circle fill="#474D5D" cx="611.706" cy="323.856" r="9"/>
<circle fill="#474D5D" cx="641.706" cy="323.856" r="9"/>
<circle fill="#474D5D" cx="611.706" cy="353.857" r="9"/>
<circle fill="#474D5D" cx="491.706" cy="893.859" r="9"/>
<circle fill="#474D5D" cx="551.706" cy="833.859" r="9"/>
<circle fill="#474D5D" cx="581.706" cy="833.859" r="9"/>
<circle fill="#474D5D" cx="551.706" cy="863.859" r="9"/>
<circle fill="#474D5D" cx="581.706" cy="863.859" r="9"/>
<circle fill="#474D5D" cx="611.706" cy="833.859" r="9"/>
<circle fill="#474D5D" cx="611.706" cy="863.859" r="9"/>
<circle fill="#474D5D" cx="71.602" cy="233.856" r="9"/>
<circle fill="#474D5D" cx="101.602" cy="233.856" r="9"/>
<circle fill="#474D5D" cx="131.602" cy="233.856" r="9"/>
<circle fill="#474D5D" cx="71.602" cy="263.753" r="9"/>
<circle fill="#474D5D" cx="101.602" cy="263.753" r="9"/>
<circle fill="#474D5D" cx="131.602" cy="263.753" r="9"/>
<circle fill="#474D5D" cx="101.602" cy="293.752" r="9"/>
<circle fill="#474D5D" cx="131.602" cy="293.752" r="9"/>
<circle fill="#474D5D" cx="101.602" cy="323.752" r="9"/>
<circle fill="#474D5D" cx="131.602" cy="323.752" r="9"/>
<circle fill="#474D5D" cx="101.602" cy="353.91" r="9"/>
<circle fill="#474D5D" cx="101.602" cy="383.91" r="9"/>
<circle fill="#474D5D" cx="101.602" cy="413.91" r="9"/>
<circle fill="#474D5D" cx="101.602" cy="443.806" r="9"/>
<circle fill="#474D5D" cx="101.602" cy="473.805" r="9"/>
<circle fill="#474D5D" cx="101.602" cy="503.805" r="9"/>
<circle fill="#474D5D" cx="101.602" cy="533.805" r="9"/>
<circle fill="#474D5D" cx="131.706" cy="563.884" r="9"/>
<circle fill="#474D5D" cx="101.602" cy="563.833" r="9"/>
<circle fill="#474D5D" cx="161.654" cy="593.859" r="9"/>
<circle fill="#474D5D" cx="131.654" cy="593.884" r="9"/>
<circle fill="#474D5D" cx="71.551" cy="593.833" r="9"/>
<circle fill="#474D5D" cx="101.551" cy="593.833" r="9"/>
<circle fill="#474D5D" cx="191.758" cy="623.859" r="9"/>
<circle fill="#474D5D" cx="161.706" cy="623.859" r="9"/>
<circle fill="#474D5D" cx="131.706" cy="623.884" r="9"/>
<circle fill="#474D5D" cx="101.602" cy="623.833" r="9"/>
<circle fill="#474D5D" cx="221.809" cy="653.86" r="9"/>
<circle fill="#474D5D" cx="191.809" cy="653.86" r="9"/>
<circle fill="#474D5D" cx="251.809" cy="653.86" r="9"/>
<circle fill="#474D5D" cx="221.809" cy="683.86" r="9"/>
<circle fill="#474D5D" cx="251.809" cy="683.86" r="9"/>
<circle fill="#474D5D" cx="161.758" cy="653.86" r="9"/>
<circle fill="#474D5D" cx="131.758" cy="653.885" r="9"/>
<circle fill="#474D5D" cx="191.861" cy="683.86" r="9"/>
<circle fill="#474D5D" cx="161.809" cy="683.86" r="9"/>
<circle fill="#474D5D" cx="131.809" cy="683.885" r="9"/>
<circle fill="#474D5D" cx="221.732" cy="713.884" r="9"/>
<circle fill="#474D5D" cx="191.732" cy="713.884" r="9"/>
<circle fill="#474D5D" cx="221.732" cy="743.884" r="9"/>
<circle fill="#474D5D" cx="161.68" cy="713.884" r="9"/>
<circle fill="#474D5D" cx="131.68" cy="713.912" r="9"/>
<circle fill="#474D5D" cx="191.784" cy="743.884" r="9"/>
<circle fill="#474D5D" cx="161.732" cy="743.884" r="9"/>
<circle fill="#474D5D" cx="131.732" cy="743.912" r="9"/>
<circle fill="#474D5D" cx="311.705" cy="833.859" r="9"/>
<circle fill="#474D5D" cx="281.706" cy="803.859" r="9"/>
<circle fill="#474D5D" cx="281.705" cy="833.859" r="9"/>
<circle fill="#474D5D" cx="281.707" cy="863.859" r="9"/>
<circle fill="#474D5D" cx="311.707" cy="863.859" r="9"/>
<circle fill="#474D5D" cx="341.707" cy="863.859" r="9"/>
<circle fill="#474D5D" cx="311.707" cy="893.859" r="9"/>
<circle fill="#474D5D" cx="341.707" cy="893.859" r="9"/>
<circle fill="#474D5D" cx="221.861" cy="771.936" r="9"/>
<circle fill="#474D5D" cx="191.861" cy="771.936" r="9"/>
<circle fill="#474D5D" cx="161.861" cy="771.936" r="9"/>
<circle fill="#474D5D" cx="131.861" cy="771.936" r="9"/>
<circle fill="#474D5D" cx="251.861" cy="771.936" r="9"/>
<circle fill="#474D5D" cx="221.861" cy="801.938" r="9"/>
<circle fill="#474D5D" cx="191.861" cy="801.938" r="9"/>
<circle fill="#474D5D" cx="161.861" cy="801.938" r="9"/>
<circle fill="#474D5D" cx="131.861" cy="801.938" r="9"/>
<circle fill="#474D5D" cx="251.861" cy="801.938" r="9"/>
<circle fill="#474D5D" cx="221.861" cy="831.938" r="9"/>
<circle fill="#474D5D" cx="191.861" cy="831.938" r="9"/>
<circle fill="#474D5D" cx="161.861" cy="831.938" r="9"/>
<circle fill="#474D5D" cx="131.861" cy="831.938" r="9"/>
<circle fill="#474D5D" cx="251.861" cy="831.938" r="9"/>
<circle fill="#474D5D" cx="221.861" cy="861.938" r="9"/>
<circle fill="#474D5D" cx="191.861" cy="861.938" r="9"/>
<circle fill="#474D5D" cx="161.861" cy="861.938" r="9"/>
<circle fill="#474D5D" cx="251.861" cy="861.938" r="9"/>
<circle fill="#474D5D" cx="131.861" cy="861.963" r="9"/>
</svg>
