<?xml version="1.0" encoding="utf-8"?>
<!-- Generator: Adobe Illustrator 16.0.0, SVG Export Plug-In . SVG Version: 6.00 Build 0)  -->
<!DOCTYPE svg PUBLIC "-//W3C//DTD SVG 1.1//EN" "http://www.w3.org/Graphics/SVG/1.1/DTD/svg11.dtd">
<svg version="1.1" id="Layer_1" xmlns="http://www.w3.org/2000/svg" xmlns:xlink="http://www.w3.org/1999/xlink" x="0px" y="0px"
	 width="850px" height="590px" viewBox="0 0 850 590" enable-background="new 0 0 850 590" xml:space="preserve">
<rect x="-82.333" y="-101" fill="#FFFFFF" width="1014" height="791"/>
<g>
	<g>
		<path fill="#C1272D" d="M206.667,313.212c0-3.024,0.532-5.897,0.692-8.635c-10.939-0.064-20.629-1.948-29.516-5.681
			c-9.042-3.794-16.691-9.095-23.164-15.908c-6.478-6.808-11.388-14.845-14.847-24.112c-3.464-9.262-5.163-19.475-5.163-30.643
			c0-10.937,1.741-21.099,5.205-30.476c3.459-9.377,8.432-17.467,14.91-24.279c6.473-6.808,14.235-12.108,23.277-15.908
			c9.042-3.793,19.143-5.693,30.31-5.693c11.162,0,21.266,1.899,30.308,5.693c9.042,3.799,16.799,9.1,23.277,15.908
			c6.473,6.812,11.438,14.902,14.901,24.279c3.459,9.377,5.191,19.539,5.191,30.476c0,4.625-0.314,9.076-0.908,13.373
			c15.713,1.138,29.106,7.161,40.166,18.101c3.409,3.373,6.329,6.977,8.796,10.795c4.108-12.943,6.198-27.018,6.198-42.27
			c0-18.974-3.182-36.168-9.544-51.574c-6.363-15.405-15.238-28.518-26.624-39.35c-11.386-10.827-24.897-19.141-40.521-24.95
			c-15.63-5.803-32.709-8.707-51.238-8.707c-18.534,0-35.614,2.904-51.238,8.707c-15.63,5.809-29.136,14.123-40.522,24.95
			c-11.387,10.832-20.261,23.945-26.624,39.35c-6.363,15.405-9.544,32.6-9.544,51.574c0,18.98,3.182,36.168,9.544,51.573
			c6.363,15.405,15.237,28.523,26.624,39.35c11.386,10.832,24.445,19.146,40.075,24.949c15.395,5.718,32.979,8.608,49.979,8.692
			V313.212z"/>
	</g>
	<g>
		<path d="M263.2,351.79v-37.466c19.994,1.239,20.091-3.278,20.091-9.837c0-5.999-3.281-9-9.837-9c-6.63,0-9.942,4.118-9.942,12.349
			v117.021h-42.49V312.231c0-9.21,0.924-16.76,2.773-22.658c1.847-5.895,5.005-11.389,9.471-16.483
			c5.023-5.651,11.303-10.115,18.838-13.396c7.535-3.278,15.313-4.918,23.337-4.918c14.51,0,26.703,4.885,36.577,14.651
			c9.872,9.77,14.809,21.873,14.809,36.315c0,14.023-4.432,25.397-13.291,34.117c-8.095,8.024-20.303,12.035-36.629,12.035
			L263.2,351.79z"/>
	</g>
	<g>
		<path d="M381.791,207.878v39.978h17.582v41.338h-17.582c0,8.304,1.308,14.023,3.925,17.163c2.616,3.14,7.412,4.709,14.39,4.709
			v41.129c-2.025,0.069-3.524,0.104-4.5,0.104c-8.862,0-17.216-2.056-25.064-6.174c-7.849-4.116-14.146-9.696-18.89-16.745
			c-6.002-9-9-20.931-9-35.792v-85.711H381.791z"/>
		<path d="M457.77,249.07v104.339h-39.14V249.07H457.77z M438.304,202.499c5.301,0,9.891,1.868,13.762,5.599
			c3.873,3.733,5.809,8.147,5.809,13.239c0,5.442-1.831,9.908-5.494,13.397c-3.662,3.489-8.356,5.232-14.076,5.232
			c-5.722,0-10.412-1.744-14.076-5.232c-3.662-3.489-5.494-7.955-5.494-13.397c0-5.091,1.937-9.505,5.809-13.239
			C428.415,204.367,433.001,202.499,438.304,202.499z"/>
		<path d="M623.96,353.409h-39.141v-56.304c0-4.325-0.455-7.326-1.36-9c-0.908-1.674-2.549-2.512-4.919-2.512
			c-4.396,0-6.593,3.872-6.593,11.617v56.199h-39.141v-56.304c0-4.325-0.472-7.326-1.413-9s-2.601-2.512-4.971-2.512
			c-4.328,0-6.489,3.872-6.489,11.617v56.199h-39.14v-64.257c0-11.721,3.939-21.679,11.825-29.878
			c7.883-8.197,17.44-12.295,28.676-12.295c11.579,0,21.977,4.883,31.187,14.65c10.256-9.767,20.512-14.65,30.768-14.65
			c13.046,0,23.511,4.745,31.396,14.231c6.209,7.396,9.314,18.176,9.314,32.338V353.409z"/>
		<path d="M753.027,291.263L770,325.725c-3.21,0.557-76.642,27.203-79.292,27.203c-15.698,0-28.78-5.162-39.245-15.488
			c-10.466-10.324-15.698-23.268-15.698-38.827c0-15.138,5.285-27.977,15.855-38.513c10.569-10.533,23.424-15.801,38.564-15.801
			c16.883,0,30.192,4.936,39.926,14.807c9.732,9.874,14.599,23.356,14.599,40.449v54.515h-39.141V302.38
			c0-5.51-1.345-9.906-4.029-13.187c-2.687-3.278-6.297-4.918-10.831-4.918c-4.118,0-7.677,1.501-10.675,4.5
			c-3.001,3.001-4.5,6.559-4.5,10.674c0,4.328,1.36,7.886,4.081,10.675c2.722,2.792,6.175,4.186,10.361,4.186
			C693.393,314.311,750.098,293.078,753.027,291.263z"/>
	</g>
	<text transform="matrix(1 0 0 1 291.3271 424.8564)" font-family="'CenturyGothic-Bold'" font-size="68.3179" letter-spacing="6">Body Work</text>
</g>
</svg>
