<?xml version="1.0" encoding="utf-8"?>
<!-- Generator: Adobe Illustrator 16.0.0, SVG Export Plug-In . SVG Version: 6.00 Build 0)  -->
<!DOCTYPE svg PUBLIC "-//W3C//DTD SVG 1.1//EN" "http://www.w3.org/Graphics/SVG/1.1/DTD/svg11.dtd">
<svg version="1.1" id="Layer_1" xmlns="http://www.w3.org/2000/svg" xmlns:xlink="http://www.w3.org/1999/xlink" x="0px" y="0px"
	 width="400px" height="400px" viewBox="0 0 400 400" enable-background="new 0 0 400 400" xml:space="preserve">
<g>
	<path fill="#898B96" d="M343.799,227.734c-0.769-0.482-1.962-0.734-3.582-0.734H339v41h1.279c1.62,0,2.813-0.437,3.582-0.992
		c0.768-0.555,1.438-1.432,1.646-2.471c0.207-1.039,0.493-2.653,0.493-4.684v-25.586c0-1.885-0.297-3.327-0.524-4.317
		C345.247,228.96,344.567,228.218,343.799,227.734z"/>
	<path fill="#898B96" d="M306.643,227H303v16h3.704c1.952,0,3.249-0.766,3.894-1.975c0.644-1.207,0.966-3.317,0.966-6.169
		c0-2.609-0.312-4.628-0.935-5.886C310.006,227.715,308.677,227,306.643,227z"/>
	<path fill="#898B96" d="M0,0v400h400V297.406v-97V0H0z M350,350H50V50h300v145.406V200h-21v-3.594V71H70v259h259v-33h21V350z
		 M322.028,234.992c0,6.282-1.277,10.775-3.831,13.215c-2.554,2.441-6.136,3.793-10.745,3.793H303v25h-11v-59h16.76
		c4.443,0,7.766,1.441,9.967,4.364C320.928,225.289,322.028,229.483,322.028,234.992z M357,257.824
		c0,4.543-0.461,8.167-1.477,10.873c-1.02,2.706-2.717,4.876-5.146,6.181c-2.43,1.305-5.78,2.122-10.099,2.122H327v-59h13.155
		c4.36,0,7.765,0.608,10.216,1.864c2.449,1.257,4.133,3.216,5.152,5.897c1.016,2.682,1.477,6.259,1.477,10.753V257.824z M386,227
		h-11v15h9v9h-9v26h-11v-59h22V227z"/>
</g>
</svg>
