<?xml version="1.0" encoding="utf-8"?>
<!-- Generator: Adobe Illustrator 16.0.0, SVG Export Plug-In . SVG Version: 6.00 Build 0)  -->
<!DOCTYPE svg PUBLIC "-//W3C//DTD SVG 1.1//EN" "http://www.w3.org/Graphics/SVG/1.1/DTD/svg11.dtd">
<svg version="1.1" id="Layer_1" xmlns="http://www.w3.org/2000/svg" xmlns:xlink="http://www.w3.org/1999/xlink" x="0px" y="0px"
	 width="850px" height="590px" viewBox="0 0 850 590" enable-background="new 0 0 850 590" xml:space="preserve">
<rect x="-82" y="-50" fill="#95A0A7" width="1014" height="684"/>
<g>
	<path fill="#95A0A7" stroke="#FFFFFF" stroke-width="20" stroke-miterlimit="10" d="M261.844,436.119V272.822
		c0-44.711,11.809-81.412,35.443-110.08c23.615-28.669,56.332-47.39,98.109-56.161v72.907
		c-28.595,7.783-46.736,18.966-54.421,33.548c-7.687,14.581-11.528,34.516-11.528,59.786v17.486h65.949v145.811H261.844z
		 M454.604,437.418V274.123c0-44.714,11.808-81.414,35.442-110.082c23.616-28.668,56.333-47.389,98.109-56.161v72.907
		c-28.596,7.783-46.737,18.965-54.421,33.549c-7.687,14.579-11.528,34.515-11.528,59.787v17.484h65.949v145.811H454.604z"/>
</g>
</svg>
