<?xml version="1.0" encoding="utf-8"?>
<!-- Generator: Adobe Illustrator 16.0.0, SVG Export Plug-In . SVG Version: 6.00 Build 0)  -->
<!DOCTYPE svg PUBLIC "-//W3C//DTD SVG 1.1//EN" "http://www.w3.org/Graphics/SVG/1.1/DTD/svg11.dtd">
<svg version="1.1" id="Layer_1" xmlns="http://www.w3.org/2000/svg" xmlns:xlink="http://www.w3.org/1999/xlink" x="0px" y="0px"
	 width="100px" height="100px" viewBox="0 0 100 100" enable-background="new 0 0 100 100" xml:space="preserve">
<path fill="none" stroke="#FFFFFF" stroke-width="3" stroke-miterlimit="10" d="M50.774,58.317"/>
<path fill="none" stroke="#FFFFFF" stroke-width="3" stroke-miterlimit="10" d="M66.556,50.339"/>
<path fill="none" stroke="#FFFFFF" stroke-width="3" stroke-miterlimit="10" d="M50.774,19.127"/>
<path fill="none" stroke="#FFFFFF" stroke-width="3" stroke-miterlimit="10" d="M31.179,38.723"/>
<path fill="none" stroke="#FFFFFF" stroke-width="3" stroke-miterlimit="10" d="M33.281,47.562"/>
<path fill="none" stroke="#FFFFFF" stroke-width="3" stroke-miterlimit="10" d="M33.281,47.562"/>
<path fill="none" stroke="#FFFFFF" stroke-width="3" stroke-miterlimit="10" d="M50.774,58.317"/>
<path fill="none" stroke="#FFFFFF" stroke-width="3" stroke-miterlimit="10" d="M66.554,50.339"/>
<path fill="none" stroke="#FFFFFF" stroke-width="3" stroke-miterlimit="10" d="M34.997,50.339"/>
<g>
	<path fill="#FFFFFF" d="M48.819,80.761H17.55V49.68c0-18.473,10.42-28.896,31.269-31.269v15.541
		c-10.111,0.374-15.293,5.617-15.542,15.728h15.542V80.761z M83.748,80.761H52.479V49.68c0-18.473,10.421-28.896,31.269-31.269
		v15.541c-10.111,0.374-15.293,5.617-15.541,15.728h15.541V80.761z"/>
</g>
<path fill="#FFFFFF" d="M49.137,64.748"/>
<path fill="#999999" d="M42.773,45.064"/>
<g>
</g>
</svg>
