<?xml version="1.0" encoding="utf-8"?>
<!-- Generator: Adobe Illustrator 16.0.0, SVG Export Plug-In . SVG Version: 6.00 Build 0)  -->
<!DOCTYPE svg PUBLIC "-//W3C//DTD SVG 1.1//EN" "http://www.w3.org/Graphics/SVG/1.1/DTD/svg11.dtd">
<svg version="1.1" id="Layer_1" xmlns="http://www.w3.org/2000/svg" xmlns:xlink="http://www.w3.org/1999/xlink" x="0px" y="0px"
	 width="100px" height="100px" viewBox="0 0 100 100" enable-background="new 0 0 100 100" xml:space="preserve">
<path fill="none" stroke="#FFFFFF" stroke-width="3" stroke-miterlimit="10" d="M50.774,58.317"/>
<path fill="none" stroke="#FFFFFF" stroke-width="3" stroke-miterlimit="10" d="M66.556,50.339"/>
<path fill="none" stroke="#FFFFFF" stroke-width="3" stroke-miterlimit="10" d="M50.774,19.127"/>
<path fill="none" stroke="#FFFFFF" stroke-width="3" stroke-miterlimit="10" d="M31.179,38.723"/>
<path fill="none" stroke="#FFFFFF" stroke-width="3" stroke-miterlimit="10" d="M33.281,47.562"/>
<path fill="none" stroke="#FFFFFF" stroke-width="3" stroke-miterlimit="10" d="M33.281,47.562"/>
<path fill="none" stroke="#FFFFFF" stroke-width="3" stroke-miterlimit="10" d="M50.774,58.317"/>
<path fill="none" stroke="#FFFFFF" stroke-width="3" stroke-miterlimit="10" d="M66.554,50.339"/>
<path fill="none" stroke="#FFFFFF" stroke-width="3" stroke-miterlimit="10" d="M34.997,50.339"/>
<path fill="#FFFFFF" d="M49.137,64.748"/>
<path fill="#999999" d="M42.773,45.064"/>
<g>
	<path fill="none" stroke="#FFFFFF" stroke-width="3" stroke-miterlimit="10" d="M49.774,59.317"/>
	<path fill="none" stroke="#FFFFFF" stroke-width="3" stroke-miterlimit="10" d="M65.556,51.34"/>
	<path fill="none" stroke="#FFFFFF" stroke-width="3" stroke-miterlimit="10" d="M49.774,20.127"/>
	<path fill="none" stroke="#FFFFFF" stroke-width="3" stroke-miterlimit="10" d="M30.179,39.723"/>
	<path fill="none" stroke="#FFFFFF" stroke-width="3" stroke-miterlimit="10" d="M32.281,48.562"/>
	<path fill="none" stroke="#FFFFFF" stroke-width="3" stroke-miterlimit="10" d="M32.281,48.562"/>
	<path fill="none" stroke="#FFFFFF" stroke-width="3" stroke-miterlimit="10" d="M49.774,59.317"/>
	<path fill="none" stroke="#FFFFFF" stroke-width="3" stroke-miterlimit="10" d="M65.554,51.34"/>
	<path fill="none" stroke="#FFFFFF" stroke-width="3" stroke-miterlimit="10" d="M33.997,51.34"/>
	<g>
		
			<rect x="29.851" y="35.17" transform="matrix(0.7782 0.628 -0.628 0.7782 34.8604 -14.3604)" fill="#FFFFFF" width="15.817" height="13.999"/>
		
			<rect x="22.615" y="26.481" transform="matrix(-0.7781 -0.6281 0.6281 -0.7781 26.9726 76.4894)" fill="#FFFFFF" width="8.76" height="13.999"/>
		<polygon fill="#FFFFFF" points="74.433,62.902 77.953,74.674 65.701,73.718 		"/>
		
			<rect x="51.592" y="53.906" transform="matrix(0.7782 0.628 -0.628 0.7782 51.6893 -24.5387)" fill="#FFFFFF" width="17.981" height="13.998"/>
	</g>
	<path fill="#FFFFFF" d="M48.137,65.748"/>
	<path fill="#999999" d="M41.773,46.064"/>
	<g>
		<line fill="none" stroke="#FFFFFF" stroke-width="7" stroke-miterlimit="10" x1="60.312" y1="37.423" x2="37.742" y2="64.513"/>
		<path fill="none" stroke="#FFFFFF" stroke-width="7" stroke-miterlimit="10" d="M75.059,30.141
			c0.061,2.228-0.658,4.488-2.197,6.335c-3.355,4.027-9.344,4.572-13.372,1.217c-4.027-3.357-4.573-9.345-1.216-13.373
			c1.584-1.903,3.756-3.03,6.033-3.334"/>
		<path fill="none" stroke="#FFFFFF" stroke-width="7" stroke-miterlimit="10" d="M21.853,71.728
			c-0.06-2.229,0.658-4.488,2.198-6.336c3.355-4.026,9.344-4.571,13.372-1.217c4.028,3.358,4.572,9.345,1.217,13.373
			c-1.585,1.902-3.758,3.029-6.034,3.334"/>
	</g>
</g>
</svg>
