<?xml version="1.0" encoding="utf-8"?>
<!-- Generator: Adobe Illustrator 16.0.0, SVG Export Plug-In . SVG Version: 6.00 Build 0)  -->
<!DOCTYPE svg PUBLIC "-//W3C//DTD SVG 1.1//EN" "http://www.w3.org/Graphics/SVG/1.1/DTD/svg11.dtd">
<svg version="1.1" id="Layer_1" xmlns="http://www.w3.org/2000/svg" xmlns:xlink="http://www.w3.org/1999/xlink" x="0px" y="0px"
	 width="850px" height="590px" viewBox="0 0 850 590" enable-background="new 0 0 850 590" xml:space="preserve">
<rect x="-82" y="-81" fill="#96CFFF" width="1014" height="728"/>
<g>
	<path fill="#FFFFFF" d="M316.7,340.704c2.601-37.063,22.979-53.852,49.396-65.01c-7.609-22.391-26.121-36.937-52.211-36.937
		c-5.781,0-11.079,0.806-16.359,2.287c0.002-0.158,0.152-0.315,0.152-0.474c0-32.023-27.165-57.984-60.76-57.984
		c-32.697,0-59.321,24.593-60.728,55.429c-24.316,7.593-41.87,29.837-41.87,55.552c0,32.023,27.252,58.434,60.848,58.434h117.515
		l0,0c2.165,0,2.331,0.187,4.443-0.045C316.614,348.687,316.463,344.09,316.7,340.704z"/>
	<path fill="#FFFFFF" d="M716.202,339.662c0-23.92-11.128-45.136-29.155-58.62c0.654-4.294,1.255-8.671,1.255-13.146
		c0-49.066-40.506-88.833-90.622-88.833c-39.875,0-73.655,25.191-85.836,60.194c-7.24-2.947-15.147-4.58-23.48-4.58
		c-32.612,0-59.252,24.937-61.162,56.396c-9.248-4.759-19.763-7.465-30.935-7.465c-36.78,0-66.596,29.19-66.596,65.2
		c0,36.005,29.822,65.893,66.602,65.893c2.47,0,4.908,0.298,7.306,0.298h236.603l0,0C682.335,415,716.202,380.293,716.202,339.662z"
		/>
	
		<line fill="#FFFFFF" stroke="#FFFFFF" stroke-width="16" stroke-miterlimit="10" x1="438.183" y1="114.65" x2="471.364" y2="46.622"/>
	
		<line fill="#FFFFFF" stroke="#FFFFFF" stroke-width="16" stroke-miterlimit="10" x1="490.51" y1="169.907" x2="560.188" y2="140.352"/>
	
		<line fill="#FFFFFF" stroke="#FFFFFF" stroke-width="16" stroke-miterlimit="10" x1="365.791" y1="110.453" x2="341.583" y2="40.191"/>
	
		<line fill="#FFFFFF" stroke="#FFFFFF" stroke-width="16" stroke-miterlimit="10" x1="307.972" y1="158.753" x2="241.719" y2="122.152"/>
	<path fill="#FFFFFF" d="M393.024,270.64c11.171,0,16.822-0.537,26.07,4.223c1.909-31.459,33.413-53.152,66.026-53.152
		c1.061,0,2.115,0.029,3.161,0.081c2.882-24.751-4.011-50.587-21.29-71.18c-33.311-39.693-92.489-44.872-132.182-11.568
		c-26.355,22.121-30.001,55.286-24.757,86.94c17.971-3.087,53.976,5.069,69.506,46.281"/>
	<line fill="none" stroke="#FFFFFF" stroke-width="8" stroke-miterlimit="10" x1="387.229" y1="431.583" x2="351.311" y2="503.5"/>
	<line fill="none" stroke="#FFFFFF" stroke-width="8" stroke-miterlimit="10" x1="453.701" y1="431.583" x2="417.784" y2="503.5"/>
	<line fill="none" stroke="#FFFFFF" stroke-width="8" stroke-miterlimit="10" x1="521.795" y1="431.583" x2="485.878" y2="503.5"/>
	<line fill="none" stroke="#FFFFFF" stroke-width="8" stroke-miterlimit="10" x1="588.268" y1="431.583" x2="552.35" y2="503.5"/>
	<line fill="none" stroke="#FFFFFF" stroke-width="8" stroke-miterlimit="10" x1="657.984" y1="431.583" x2="622.065" y2="503.5"/>
</g>
</svg>
