<?xml version="1.0" encoding="utf-8"?>
<!-- Generator: Adobe Illustrator 16.0.0, SVG Export Plug-In . SVG Version: 6.00 Build 0)  -->
<!DOCTYPE svg PUBLIC "-//W3C//DTD SVG 1.1//EN" "http://www.w3.org/Graphics/SVG/1.1/DTD/svg11.dtd">
<svg version="1.1" id="Layer_1" xmlns="http://www.w3.org/2000/svg" xmlns:xlink="http://www.w3.org/1999/xlink" x="0px" y="0px"
	 width="850px" height="590px" viewBox="0 0 850 590" enable-background="new 0 0 850 590" xml:space="preserve">
<rect x="-82.333" y="-47" fill="#F6C764" width="1014" height="681"/>
<circle fill="none" stroke="#FFFFFF" stroke-width="30" stroke-miterlimit="10" cx="442.572" cy="245.007" r="187.336"/>
<line fill="none" stroke="#FFFFFF" stroke-width="20" stroke-miterlimit="10" x1="320.731" y1="387.301" x2="221.798" y2="486.233"/>
<path fill="#FFFFFF" d="M585.967,175.841c0,1.039-0.326,1.975-0.96,2.837c-0.663,0.835-1.346,1.266-2.134,1.266
	c-6.305,0.609-11.502,2.639-15.505,6.108c-4.029,3.447-8.162,10.062-12.443,19.792l-65.383,147.33
	c-0.431,1.371-1.618,2.054-3.598,2.054c-1.545,0-2.736-0.683-3.598-2.054l-36.666-76.682l-42.169,76.682
	c-0.861,1.371-2.055,2.054-3.598,2.054c-1.876,0-3.118-0.683-3.728-2.054l-64.238-147.33c-4.004-9.148-8.236-15.536-12.695-19.158
	c-4.435-3.624-10.644-5.881-18.575-6.742c-0.684,0-1.342-0.354-1.926-1.089c-0.608-0.707-0.913-1.544-0.913-2.484
	c0-2.405,0.686-3.598,2.051-3.598c5.729,0,11.711,0.255,17.967,0.762c5.806,0.529,11.28,0.785,16.397,0.785
	c5.222,0,11.379-0.256,18.474-0.785c7.426-0.507,14.014-0.762,19.741-0.762c1.369,0,2.054,1.192,2.054,3.598
	c0,2.384-0.431,3.573-1.268,3.573c-5.729,0.432-10.24,1.9-13.534,4.36c-3.293,2.482-4.942,5.727-4.942,9.756
	c0,2.054,0.686,4.613,2.054,7.68l53.087,119.887l30.132-56.916l-28.077-58.866c-5.044-10.492-9.199-17.282-12.443-20.324
	c-3.243-3.018-8.159-4.891-14.75-5.576c-0.606,0-1.163-0.354-1.722-1.089c-0.558-0.707-0.837-1.544-0.837-2.484
	c0-2.405,0.584-3.598,1.802-3.598c5.727,0,10.972,0.255,15.759,0.762c4.612,0.529,9.529,0.785,14.748,0.785
	c5.121,0,10.543-0.256,16.27-0.785c5.904-0.507,11.71-0.762,17.438-0.762c1.365,0,2.053,1.192,2.053,3.598
	c0,2.384-0.405,3.573-1.267,3.573c-11.458,0.787-17.185,4.029-17.185,9.758c0,2.559,1.317,6.536,3.979,11.911l18.575,37.705
	l18.477-34.488c2.559-4.865,3.851-8.971,3.851-12.314c0-7.856-5.727-12.036-17.185-12.571c-1.039,0-1.544-1.189-1.544-3.573
	c0-0.861,0.252-1.673,0.762-2.431c0.53-0.786,1.04-1.167,1.544-1.167c4.104,0,9.147,0.255,15.131,0.762
	c5.727,0.529,10.438,0.785,14.11,0.785c2.639,0,6.539-0.229,11.662-0.658c6.483-0.582,11.932-0.889,16.293-0.889
	c1.015,0,1.52,1.014,1.52,3.068c0,2.736-0.936,4.103-2.812,4.103c-6.666,0.686-12.036,2.534-16.09,5.524
	c-4.059,2.991-9.127,9.784-15.18,20.376l-24.634,45.537l33.35,67.939l49.237-114.491c1.697-4.182,2.559-8.032,2.559-11.53
	c0-8.386-5.727-12.82-17.18-13.355c-1.04,0-1.544-1.189-1.544-3.573c0-2.405,0.757-3.598,2.301-3.598
	c4.183,0,9.152,0.255,14.879,0.762c5.296,0.529,9.755,0.785,13.329,0.785c3.775,0,8.136-0.256,13.076-0.785
	c5.143-0.507,9.754-0.762,13.862-0.762C585.358,172.772,585.967,173.786,585.967,175.841z"/>
</svg>
