<?xml version="1.0" encoding="utf-8"?>
<!-- Generator: Adobe Illustrator 16.0.0, SVG Export Plug-In . SVG Version: 6.00 Build 0)  -->
<!DOCTYPE svg PUBLIC "-//W3C//DTD SVG 1.1//EN" "http://www.w3.org/Graphics/SVG/1.1/DTD/svg11.dtd">
<svg version="1.1" id="Layer_1" xmlns="http://www.w3.org/2000/svg" xmlns:xlink="http://www.w3.org/1999/xlink" x="0px" y="0px"
	 width="850px" height="590px" viewBox="0 0 850 590" enable-background="new 0 0 850 590" xml:space="preserve">
<rect x="-82" y="-81" fill="#0071BC" width="1014" height="728"/>
<g>
	<g>
		<path fill="#FFFFFF" stroke="#007CDA" stroke-width="6" stroke-miterlimit="10" d="M516.964,311.542
			c5.098,8.455,2.374,19.443-6.079,24.541L315.687,453.757c-8.454,5.097-19.443,2.374-24.539-6.08l-146.9-243.679
			c-5.098-8.455-2.376-19.443,6.081-24.541L345.524,61.784c8.454-5.097,19.443-2.374,24.539,6.079L516.964,311.542z"/>
		<path fill="none" stroke="#007CDA" stroke-width="7" stroke-miterlimit="10" d="M446.896,251.582
			c5.053,8.376,2.517,19.799-6.005,24.936L294.416,364.82c-8.521,5.138-19.806,2.045-24.856-6.334l-86.799-143.981
			c-5.049-8.377-2.234-19.333,6.288-24.471l146.474-88.3c8.522-5.139,19.526-2.513,24.576,5.865L446.896,251.582z"/>
		<path fill="#007CDA" d="M450.301,258.671c2.335,3.874,1.089,8.91-2.787,11.245l-163.303,98.447
			c-3.876,2.336-8.912,1.09-11.245-2.786l0,0c-2.338-3.877-1.09-8.91,2.785-11.248l163.302-98.446
			C442.929,253.547,447.965,254.794,450.301,258.671L450.301,258.671z"/>
	</g>
	<g>
		<path fill="#FFFFFF" stroke="#007CDA" stroke-width="6" stroke-miterlimit="10" d="M581.807,377.171
			c0.989,9.821-6.173,18.587-15.994,19.577l-226.778,22.841c-9.822,0.989-18.589-6.171-19.578-15.993l-28.514-283.103
			c-0.989-9.822,6.171-18.588,15.994-19.577l226.778-22.842c9.822-0.988,18.588,6.172,19.577,15.994L581.807,377.171z"/>
		<path fill="none" stroke="#007CDA" stroke-width="7" stroke-miterlimit="10" d="M544.132,292.995
			c0.98,9.732-6.197,18.972-16.099,19.97l-170.169,17.141c-9.901,0.996-18.777-6.627-19.758-16.359l-16.85-167.274
			c-0.98-9.732,6.253-18.433,16.154-19.429l170.17-17.141c9.9-0.996,18.723,6.084,19.703,15.816L544.132,292.995z"/>
		<path fill="#007CDA" d="M544.176,300.858c0.454,4.501-2.829,8.519-7.331,8.973l-189.722,19.11
			c-4.502,0.452-8.521-2.83-8.973-7.332l0,0c-0.454-4.501,2.828-8.52,7.33-8.974l189.723-19.108
			C539.704,293.073,543.722,296.357,544.176,300.858L544.176,300.858z"/>
	</g>
	<g>
		<path fill="#FFFFFF" stroke="#007CDA" stroke-width="6" stroke-miterlimit="10" d="M605.172,473.641
			c-3.545,9.213-13.89,13.811-23.104,10.265l-212.727-81.836c-9.213-3.546-13.81-13.889-10.265-23.104l102.161-265.561
			c3.545-9.213,13.891-13.81,23.104-10.265l212.727,81.836c9.213,3.546,13.811,13.89,10.265,23.104L605.172,473.641z"/>
		<path fill="none" stroke="#007CDA" stroke-width="7" stroke-miterlimit="10" d="M609.485,381.519
			c-3.512,9.131-14.085,14.143-23.371,10.569l-159.627-61.409c-9.287-3.571-13.773-14.378-10.262-23.509l60.363-156.91
			c3.514-9.129,13.891-13.634,23.178-10.062l159.626,61.41c9.287,3.572,13.97,13.871,10.458,23L609.485,381.519z"/>
		<path fill="#007CDA" d="M605.979,388.557c-1.623,4.224-6.366,6.33-10.588,4.707l-177.967-68.466
			c-4.222-1.625-6.33-6.366-4.705-10.589l0,0c1.623-4.222,6.366-6.33,10.588-4.705l177.967,68.465
			C605.498,379.594,607.604,384.335,605.979,388.557L605.979,388.557z"/>
		<polyline fill="#007CDA" points="435.88,256.081 500.803,238.761 524.241,356.24 416.356,306.83 		"/>
		<polyline fill="#007CDA" points="503.484,294.023 522.531,347.676 608.792,381.251 634.597,314.174 615.002,239.597 		"/>
		<circle fill="#007CDA" cx="516.342" cy="184.882" r="18.621"/>
	</g>
</g>
</svg>
