<?xml version="1.0" encoding="utf-8"?>
<!-- Generator: Adobe Illustrator 16.0.0, SVG Export Plug-In . SVG Version: 6.00 Build 0)  -->
<!DOCTYPE svg PUBLIC "-//W3C//DTD SVG 1.1//EN" "http://www.w3.org/Graphics/SVG/1.1/DTD/svg11.dtd">
<svg version="1.1" id="Layer_1" xmlns="http://www.w3.org/2000/svg" xmlns:xlink="http://www.w3.org/1999/xlink" x="0px" y="0px"
	 width="1050px" height="1050px" viewBox="0 0 1050 1050" enable-background="new 0 0 1050 1050" xml:space="preserve">
<g>
	<path fill="#3991C3" d="M594.842,432.183c0,5.5-4.5,10-10,10h-180c-5.5,0-10-4.5-10-10v-80c0-5.5,4.5-10,10-10h180
		c5.5,0,10,4.5,10,10V432.183z"/>
</g>
<text transform="matrix(1 0 0 1 436.3711 397.2842)" fill="#FFFFFF" font-family="'MyriadPro-Bold'" font-size="20">DASHBOARD</text>
<g>
	<g>
		<path fill="#A3CDE8" d="M165.438,412.574c0,5.5-4.5,10-10,10h-137c-5.5,0-10-4.5-10-10v-40.781c0-5.5,4.5-10,10-10h137
			c5.5,0,10,4.5,10,10V412.574z"/>
	</g>
	<text transform="matrix(1 0 0 1 50.5576 397.2842)" fill="#FFFFFF" font-family="'MyriadPro-Bold'" font-size="20">Outlook</text>
</g>
<g>
	<g>
		<path fill="#A3CDE8" d="M165.438,313.183c0,5.5-4.5,10-10,10h-137c-5.5,0-10-4.5-10-10v-40.781c0-5.5,4.5-10,10-10h137
			c5.5,0,10,4.5,10,10V313.183z"/>
	</g>
	<text transform="matrix(1 0 0 1 45.8984 300.8936)" fill="#FFFFFF" font-family="'MyriadPro-Bold'" font-size="20">Plan Grid</text>
</g>
<g>
	<g>
		<path fill="#A3CDE8" d="M165.438,510.574c0,5.5-4.5,10-10,10h-137c-5.5,0-10-4.5-10-10v-40.781c0-5.5,4.5-10,10-10h137
			c5.5,0,10,4.5,10,10V510.574z"/>
	</g>
	<text transform="matrix(1 0 0 1 35.4482 495.2842)" fill="#FFFFFF" font-family="'MyriadPro-Bold'" font-size="20">Share Point</text>
</g>
<g>
	<g>
		<path fill="#3991C3" d="M944.598,691.746c0,5.5-4.5,10-10,10h-151c-5.5,0-10-4.5-10-10v-17.492c0-5.5,4.5-10,10-10h151
			c5.5,0,10,4.5,10,10V691.746z"/>
	</g>
	<text transform="matrix(1 0 0 1 831.0098 689)" fill="#FFFFFF" font-family="'MyriadPro-Bold'" font-size="18">Admin.</text>
</g>
<g>
	<g>
		<path fill="#3991C3" d="M573.342,205.351c0,5.5-4.5,10-10,10h-137c-5.5,0-10-4.5-10-10V164.57c0-5.5,4.5-10,10-10h137
			c5.5,0,10,4.5,10,10V205.351z"/>
	</g>
	<text transform="matrix(1 0 0 1 461.2725 191.0615)" fill="#FFFFFF" font-family="'MyriadPro-Bold'" font-size="20">Tracker</text>
</g>
<g>
	<g>
		<path fill="#3991C3" d="M793.342,284.227c0,5.5-4.5,10-10,10h-137c-5.5,0-10-4.5-10-10v-40.781c0-5.5,4.5-10,10-10h137
			c5.5,0,10,4.5,10,10V284.227z"/>
	</g>
	<text transform="matrix(1 0 0 1 678.7529 269.9375)" fill="#FFFFFF" font-family="'MyriadPro-Bold'" font-size="20">Projects</text>
</g>
<g>
	<g>
		<path fill="#3991C3" d="M746.842,611.6c0,5.5-4.5,10-10,10h-137c-5.5,0-10-4.5-10-10v-40.781c0-5.5,4.5-10,10-10h137
			c5.5,0,10,4.5,10,10V611.6z"/>
	</g>
	<text transform="matrix(1 0 0 1 640.5625 597.3105)" fill="#FFFFFF" font-family="'MyriadPro-Bold'" font-size="20">Forms</text>
</g>
<g>
	<g>
		<path fill="#3991C3" d="M547.342,611.6c0,5.5-4.5,10-10,10h-137c-5.5,0-10-4.5-10-10v-40.781c0-5.5,4.5-10,10-10h137
			c5.5,0,10,4.5,10,10V611.6z"/>
	</g>
	<text transform="matrix(1 0 0 1 434.0723 597.3105)" fill="#FFFFFF" font-family="'MyriadPro-Bold'" font-size="20">Reports</text>
</g>
<g>
	<g>
		<path fill="#3991C3" d="M1027.098,284.227c0,5.5-4.5,10-10,10h-137c-5.5,0-10-4.5-10-10v-40.781c0-5.5,4.5-10,10-10h137
			c5.5,0,10,4.5,10,10V284.227z"/>
	</g>
	<text transform="matrix(1 0 0 1 908.0781 269.9375)" fill="#FFFFFF" font-family="'MyriadPro-Bold'" font-size="20">Checklist</text>
</g>
<g>
	<g>
		
			<line fill="none" stroke="#A3CDE8" stroke-width="4" stroke-miterlimit="10" x1="165.438" y1="392.183" x2="171.438" y2="392.183"/>
		
			<line fill="none" stroke="#A3CDE8" stroke-width="4" stroke-miterlimit="10" stroke-dasharray="11.9578,11.9578" x1="183.396" y1="392.183" x2="368.742" y2="392.183"/>
		
			<line fill="none" stroke="#A3CDE8" stroke-width="4" stroke-miterlimit="10" x1="374.721" y1="392.183" x2="380.721" y2="392.183"/>
		<g>
			<polygon fill="#A3CDE8" points="394.842,392.183 374.943,400.314 379.665,392.183 374.943,384.054 			"/>
		</g>
	</g>
</g>
<g>
	<g>
		<rect x="219.54" y="380.966" fill="#FFFFFF" width="105" height="22.435"/>
		<path fill="none" stroke="#3991C3" stroke-width="4" stroke-miterlimit="10" d="M324.54,393.4c0,5.5-4.5,10-10,10h-85
			c-5.5,0-10-4.5-10-10v-2.435c0-5.5,4.5-10,10-10h85c5.5,0,10,4.5,10,10V393.4z"/>
	</g>
	<text transform="matrix(1 0 0 1 231.1094 397.5293)" fill="#3991C3" font-family="'MyriadPro-Bold'" font-size="15">External Src</text>
</g>
<g>
	<g>
		
			<line fill="none" stroke="#A3CDE8" stroke-width="4" stroke-miterlimit="10" x1="179.559" y1="490.183" x2="185.559" y2="490.183"/>
		<path fill="none" stroke="#A3CDE8" stroke-width="4" stroke-miterlimit="10" stroke-dasharray="11.7875,11.7875" d="
			M197.346,490.183h36.748c5.5,0,14.5,0,20,0h169.004c5.5,0,10-4.5,10-10v-11.985"/>
		
			<line fill="none" stroke="#A3CDE8" stroke-width="4" stroke-miterlimit="10" x1="433.098" y1="462.304" x2="433.098" y2="456.304"/>
		<g>
			<polygon fill="#A3CDE8" points="165.438,490.183 185.336,498.314 180.614,490.183 185.336,482.054 			"/>
		</g>
		<g>
			<polygon fill="#A3CDE8" points="433.098,442.183 441.229,462.082 433.098,457.36 424.969,462.082 			"/>
		</g>
	</g>
</g>
<g>
	<g>
		
			<line fill="none" stroke="#A3CDE8" stroke-width="4" stroke-miterlimit="10" x1="179.559" y1="294.227" x2="185.559" y2="294.227"/>
		<path fill="none" stroke="#A3CDE8" stroke-width="4" stroke-miterlimit="10" stroke-dasharray="12.3995,12.3995" d="
			M197.958,294.227h225.14c5.5,0,10,4.5,10,10v25.756"/>
		
			<line fill="none" stroke="#A3CDE8" stroke-width="4" stroke-miterlimit="10" x1="433.098" y1="336.183" x2="433.098" y2="342.183"/>
		<g>
			<polygon fill="#A3CDE8" points="165.438,294.227 185.336,302.358 180.614,294.227 185.336,286.098 			"/>
		</g>
	</g>
</g>
<g>
	<g>
		<rect x="218.284" y="283.01" fill="#FFFFFF" width="105" height="22.435"/>
		<path fill="none" stroke="#3991C3" stroke-width="4" stroke-miterlimit="10" d="M323.284,295.444c0,5.5-4.5,10-10,10h-85
			c-5.5,0-10-4.5-10-10v-2.435c0-5.5,4.5-10,10-10h85c5.5,0,10,4.5,10,10V295.444z"/>
	</g>
	<text transform="matrix(1 0 0 1 229.8535 299.5732)" fill="#3991C3" font-family="'MyriadPro-Bold'" font-size="15">External Src</text>
</g>
<g>
	<g>
		<rect x="219.54" y="478.966" fill="#FFFFFF" width="105" height="22.435"/>
		<path fill="none" stroke="#3991C3" stroke-width="4" stroke-miterlimit="10" d="M324.54,491.4c0,5.5-4.5,10-10,10h-85
			c-5.5,0-10-4.5-10-10v-2.435c0-5.5,4.5-10,10-10h85c5.5,0,10,4.5,10,10V491.4z"/>
	</g>
	<text transform="matrix(1 0 0 1 231.1094 495.5293)" fill="#3991C3" font-family="'MyriadPro-Bold'" font-size="15">External Src</text>
</g>
<g>
	<g>
		<path fill="#3991C3" d="M944.598,389.361c0,5.5-4.5,10-10,10h-151c-5.5,0-10-4.5-10-10v-17.492c0-5.5,4.5-10,10-10h151
			c5.5,0,10,4.5,10,10V389.361z"/>
	</g>
	<text transform="matrix(1 0 0 1 811.2646 386.6147)" fill="#FFFFFF" font-family="'MyriadPro-Bold'" font-size="18">Project Info.</text>
</g>
<g>
	<g>
		<path fill="#3991C3" d="M944.598,451.3c0,5.5-4.5,10-10,10h-151c-5.5,0-10-4.5-10-10v-17.492c0-5.5,4.5-10,10-10h151
			c5.5,0,10,4.5,10,10V451.3z"/>
	</g>
	<text transform="matrix(1 0 0 1 810.1123 448.5542)" fill="#FFFFFF" font-family="'MyriadPro-Bold'" font-size="18">Vendor Info.</text>
</g>
<g>
	<g>
		<path fill="#3991C3" d="M944.598,512.498c0,5.5-4.5,10-10,10h-151c-5.5,0-10-4.5-10-10v-17.492c0-5.5,4.5-10,10-10h151
			c5.5,0,10,4.5,10,10V512.498z"/>
	</g>
	<text transform="matrix(1 0 0 1 822.9531 509.7515)" fill="#FFFFFF" font-family="'MyriadPro-Bold'" font-size="18">Contacts</text>
</g>
<g>
	<g>
		<path fill="none" stroke="#3991C3" stroke-width="4" stroke-miterlimit="10" d="M621.977,262.402h-60.879c-5.5,0-10,4.5-10,10
			v69.781"/>
		<g>
			<polygon fill="#3991C3" points="636.098,262.402 616.199,254.271 620.921,262.402 616.199,270.531 			"/>
		</g>
	</g>
</g>
<g>
	<path fill="none" stroke="#3991C3" stroke-width="4" stroke-miterlimit="10" d="M714.842,294.227v77.388c0,5.5,4.5,10,10,10h48.756
		"/>
</g>
<path fill="#FFFFFF" stroke="#3991C3" stroke-width="4" stroke-miterlimit="10" d="M1009.098,602.818"/>
<g>
	<path fill="none" stroke="#3991C3" stroke-width="4" stroke-miterlimit="10" d="M714.842,357.167v76.388c0,5.5,4.5,10,10,10h48.756
		"/>
</g>
<g>
	<path fill="none" stroke="#3991C3" stroke-width="4" stroke-miterlimit="10" d="M714.842,418.564v76.388c0,5.5,4.5,10,10,10h48.756
		"/>
</g>
<g>
	<line fill="#FFFFFF" x1="468.842" y1="442.554" x2="468.842" y2="560.818"/>
	<g>
		
			<line fill="none" stroke="#3991C3" stroke-width="4" stroke-miterlimit="10" x1="468.842" y1="442.554" x2="468.842" y2="546.697"/>
		<g>
			<polygon fill="#3991C3" points="468.842,560.818 460.711,540.92 468.842,545.643 476.971,540.92 			"/>
		</g>
	</g>
</g>
<g>
	<line fill="#FFFFFF" x1="793.342" y1="263.836" x2="870.098" y2="263.836"/>
	<g>
		
			<line fill="none" stroke="#3991C3" stroke-width="4" stroke-miterlimit="10" x1="793.342" y1="263.836" x2="855.977" y2="263.836"/>
		<g>
			<polygon fill="#3991C3" points="870.098,263.836 850.199,271.967 854.921,263.836 850.199,255.708 			"/>
		</g>
	</g>
</g>
<g>
	<g>
		<path fill="none" stroke="#3991C3" stroke-width="4" stroke-miterlimit="10" d="M668.342,546.697V402.183c0-5.5-4.5-10-10-10
			h-63.5"/>
		<g>
			<polygon fill="#3991C3" points="668.342,560.818 676.473,540.92 668.342,545.642 660.213,540.92 			"/>
		</g>
	</g>
</g>
<g>
	<g>
		<path fill="#3991C3" d="M944.598,855.314c0,5.5-4.5,10-10,10h-151c-5.5,0-10-4.5-10-10v-17.492c0-5.5,4.5-10,10-10h151
			c5.5,0,10,4.5,10,10V855.314z"/>
	</g>
	<text transform="matrix(1 0 0 1 830.5332 852.5684)" fill="#FFFFFF" font-family="'MyriadPro-Bold'" font-size="18">Pre-Bid</text>
</g>
<g>
	<g>
		<path fill="#3991C3" d="M944.598,746.746c0,5.5-4.5,10-10,10h-151c-5.5,0-10-4.5-10-10v-17.492c0-5.5,4.5-10,10-10h151
			c5.5,0,10,4.5,10,10V746.746z"/>
	</g>
	<text transform="matrix(1 0 0 1 795.0479 744)" fill="#FFFFFF" font-family="'MyriadPro-Bold'" font-size="18">Email Templates</text>
</g>
<g>
	<g>
		<path fill="#3991C3" d="M944.598,800.762c0,5.5-4.5,10-10,10h-151c-5.5,0-10-4.5-10-10V783.27c0-5.5,4.5-10,10-10h151
			c5.5,0,10,4.5,10,10V800.762z"/>
	</g>
	<text transform="matrix(1 0 0 1 821.5332 798.0156)" fill="#FFFFFF" font-family="'MyriadPro-Bold'" font-size="18">Contracts</text>
</g>
<g>
	<g>
		<path fill="#3991C3" d="M944.598,909.533c0,5.5-4.5,10-10,10h-151c-5.5,0-10-4.5-10-10v-17.492c0-5.5,4.5-10,10-10h151
			c5.5,0,10,4.5,10,10V909.533z"/>
	</g>
	<text transform="matrix(1 0 0 1 846.832 906.7871)" fill="#FFFFFF" font-family="'MyriadPro-Bold'" font-size="18">Bid</text>
</g>
<g>
	<g>
		<path fill="#3991C3" d="M944.598,963.475c0,5.5-4.5,10-10,10h-151c-5.5,0-10-4.5-10-10v-17.492c0-5.5,4.5-10,10-10h151
			c5.5,0,10,4.5,10,10V963.475z"/>
	</g>
	<text transform="matrix(1 0 0 1 808.1055 960.7285)" fill="#FFFFFF" font-family="'MyriadPro-Bold'" font-size="18">Construction</text>
</g>
<g>
	<g>
		<path fill="#3991C3" d="M944.598,1017.607c0,5.5-4.5,10-10,10h-151c-5.5,0-10-4.5-10-10v-17.492c0-5.5,4.5-10,10-10h151
			c5.5,0,10,4.5,10,10V1017.607z"/>
	</g>
	<text transform="matrix(1 0 0 1 824.6738 1014.8613)" fill="#FFFFFF" font-family="'MyriadPro-Bold'" font-size="18">Closeout</text>
</g>
<g>
	<g>
		<path fill="none" stroke="#3991C3" stroke-width="4" stroke-miterlimit="10" d="M668.342,621.6V673c0,5.5,4.5,10,10,10h81.135"/>
		<g>
			<polygon fill="#3991C3" points="773.598,683 753.699,691.131 758.421,683 753.699,674.871 			"/>
		</g>
	</g>
</g>
<g>
	<g>
		<path fill="none" stroke="#3991C3" stroke-width="4" stroke-miterlimit="10" d="M668.342,661.742v65.959c0,5.5,4.5,10,10,10
			h81.135"/>
		<g>
			<polygon fill="#3991C3" points="773.598,737.701 753.699,745.832 758.421,737.701 753.699,729.572 			"/>
		</g>
	</g>
</g>
<g>
	<g>
		<path fill="none" stroke="#3991C3" stroke-width="4" stroke-miterlimit="10" d="M668.342,716.768v65.957c0,5.5,4.5,10,10,10
			h81.135"/>
		<g>
			<polygon fill="#3991C3" points="773.598,792.725 753.699,800.855 758.421,792.725 753.699,784.596 			"/>
		</g>
	</g>
</g>
<g>
	<g>
		<path fill="none" stroke="#3991C3" stroke-width="4" stroke-miterlimit="10" d="M668.342,770.609v65.959c0,5.5,4.5,10,10,10
			h81.135"/>
		<g>
			<polygon fill="#3991C3" points="773.598,846.568 753.699,854.699 758.421,846.568 753.699,838.439 			"/>
		</g>
	</g>
</g>
<g>
	<g>
		<path fill="none" stroke="#3991C3" stroke-width="4" stroke-miterlimit="10" d="M668.342,824.967v65.957c0,5.5,4.5,10,10,10
			h81.135"/>
		<g>
			<polygon fill="#3991C3" points="773.598,900.924 753.699,909.055 758.421,900.924 753.699,892.795 			"/>
		</g>
	</g>
</g>
<g>
	<g>
		<path fill="none" stroke="#3991C3" stroke-width="4" stroke-miterlimit="10" d="M668.342,879.945v65.959c0,5.5,4.5,10,10,10
			h81.135"/>
		<g>
			<polygon fill="#3991C3" points="773.598,955.904 753.699,964.035 758.421,955.904 753.699,947.775 			"/>
		</g>
	</g>
</g>
<g>
	<g>
		<path fill="none" stroke="#3991C3" stroke-width="4" stroke-miterlimit="10" d="M668.342,933.904v65.957c0,5.5,4.5,10,10,10
			h81.135"/>
		<g>
			<polygon fill="#3991C3" points="773.598,1009.861 753.699,1017.992 758.421,1009.861 753.699,1001.732 			"/>
		</g>
	</g>
</g>
<g>
	<g>
		<line fill="none" stroke="#3991C3" stroke-width="4" stroke-miterlimit="10" x1="944.598" y1="683" x2="950.598" y2="683"/>
		<path fill="none" stroke="#3991C3" stroke-width="4" stroke-miterlimit="10" stroke-dasharray="12.2212,12.2212" d="M962.818,683
			h16.732c5.5,0,10-4.5,10-10V320.458"/>
		
			<line fill="none" stroke="#3991C3" stroke-width="4" stroke-miterlimit="10" x1="989.551" y1="314.348" x2="989.551" y2="308.348"/>
		<g>
			<polygon fill="#3991C3" points="989.551,294.227 997.682,314.125 989.551,309.404 981.422,314.125 			"/>
		</g>
	</g>
</g>
<g>
	<g>
		<rect x="937.051" y="585.867" fill="#FFFFFF" width="105" height="22.434"/>
		<path fill="none" stroke="#3991C3" stroke-width="4" stroke-miterlimit="10" d="M1042.051,598.301c0,5.5-4.5,10-10,10h-85
			c-5.5,0-10-4.5-10-10v-2.434c0-5.5,4.5-10,10-10h85c5.5,0,10,4.5,10,10V598.301z"/>
	</g>
	<text transform="matrix(1 0 0 1 953.7207 602.4307)" fill="#3991C3" font-family="'MyriadPro-Bold'" font-size="15">Linked Src</text>
</g>
<g>
	<g>
		<line fill="none" stroke="#3991C3" stroke-width="4" stroke-miterlimit="10" x1="944.598" y1="738" x2="950.598" y2="738"/>
		<path fill="none" stroke="#3991C3" stroke-width="4" stroke-miterlimit="10" stroke-dasharray="11.4916,11.4916" d="M962.089,738
			h17.462c5.5,0,10-4.5,10-10v-30.047"/>
		
			<line fill="none" stroke="#3991C3" stroke-width="4" stroke-miterlimit="10" x1="989.551" y1="692.207" x2="989.551" y2="686.207"/>
	</g>
</g>
<g>
	<g>
		
			<line fill="none" stroke="#3991C3" stroke-width="4" stroke-miterlimit="10" x1="944.598" y1="791.725" x2="950.598" y2="791.725"/>
		<path fill="none" stroke="#3991C3" stroke-width="4" stroke-miterlimit="10" stroke-dasharray="11.3277,11.3277" d="
			M961.926,791.725h17.625c5.5,0,10-4.5,10-10v-28.982"/>
		
			<line fill="none" stroke="#3991C3" stroke-width="4" stroke-miterlimit="10" x1="989.551" y1="747.078" x2="989.551" y2="741.078"/>
	</g>
</g>
<g>
	<g>
		
			<line fill="none" stroke="#3991C3" stroke-width="4" stroke-miterlimit="10" x1="944.598" y1="846.568" x2="950.598" y2="846.568"/>
		<path fill="none" stroke="#3991C3" stroke-width="4" stroke-miterlimit="10" stroke-dasharray="11.3277,11.3277" d="
			M961.926,846.568h17.625c5.5,0,10-4.5,10-10v-28.982"/>
		
			<line fill="none" stroke="#3991C3" stroke-width="4" stroke-miterlimit="10" x1="989.551" y1="801.922" x2="989.551" y2="795.922"/>
	</g>
</g>
<g>
	<g>
		
			<line fill="none" stroke="#3991C3" stroke-width="4" stroke-miterlimit="10" x1="944.598" y1="900.924" x2="950.598" y2="900.924"/>
		<path fill="none" stroke="#3991C3" stroke-width="4" stroke-miterlimit="10" stroke-dasharray="11.3277,11.3277" d="
			M961.926,900.924h17.625c5.5,0,10-4.5,10-10v-28.982"/>
		
			<line fill="none" stroke="#3991C3" stroke-width="4" stroke-miterlimit="10" x1="989.551" y1="856.277" x2="989.551" y2="850.277"/>
	</g>
</g>
<g>
	<g>
		
			<line fill="none" stroke="#3991C3" stroke-width="4" stroke-miterlimit="10" x1="944.598" y1="956.434" x2="950.598" y2="956.434"/>
		<path fill="none" stroke="#3991C3" stroke-width="4" stroke-miterlimit="10" stroke-dasharray="11.3277,11.3277" d="
			M961.926,956.434h17.625c5.5,0,10-4.5,10-10v-28.982"/>
		
			<line fill="none" stroke="#3991C3" stroke-width="4" stroke-miterlimit="10" x1="989.551" y1="911.787" x2="989.551" y2="905.787"/>
	</g>
</g>
<g>
	<g>
		
			<line fill="none" stroke="#3991C3" stroke-width="4" stroke-miterlimit="10" x1="944.598" y1="1009.375" x2="950.598" y2="1009.375"/>
		<path fill="none" stroke="#3991C3" stroke-width="4" stroke-miterlimit="10" stroke-dasharray="11.3277,11.3277" d="
			M961.926,1009.375h17.625c5.5,0,10-4.5,10-10v-28.982"/>
		
			<line fill="none" stroke="#3991C3" stroke-width="4" stroke-miterlimit="10" x1="989.551" y1="964.729" x2="989.551" y2="958.729"/>
	</g>
</g>
<g>
	<g>
		<path fill="#3991C3" d="M799.842,120.062c0,5.5-4.5,10-10,10h-151c-5.5,0-10-4.5-10-10V102.57c0-5.5,4.5-10,10-10h151
			c5.5,0,10,4.5,10,10V120.062z"/>
	</g>
	<text transform="matrix(1 0 0 1 678.3076 117.3159)" fill="#FFFFFF" font-family="'MyriadPro-Bold'" font-size="18">PM Tasks</text>
</g>
<g>
	<g>
		<path fill="#3991C3" d="M800.842,51.062c0,5.5-4.5,10-10,10h-151c-5.5,0-10-4.5-10-10V33.57c0-5.5,4.5-10,10-10h151
			c5.5,0,10,4.5,10,10V51.062z"/>
	</g>
	<text transform="matrix(1 0 0 1 655.4307 48.3159)" fill="#FFFFFF" font-family="'MyriadPro-Bold'" font-size="18">Assistant Tasks</text>
</g>
<g>
	<path fill="none" stroke="#3991C3" stroke-width="4" stroke-miterlimit="10" d="M799.842,111.316h136.709c5.5,0,10,4.5,10,10
		v112.13"/>
</g>
<g>
	<path fill="none" stroke="#3991C3" stroke-width="4" stroke-miterlimit="10" d="M799.842,42.316h136.709c5.5,0,10,4.5,10,10v69.302
		"/>
</g>
<g>
	<line fill="#FFFFFF" x1="494.841" y1="215.351" x2="494.841" y2="342.183"/>
	<g>
		
			<line fill="none" stroke="#3991C3" stroke-width="4" stroke-miterlimit="10" x1="494.841" y1="229.472" x2="494.841" y2="328.062"/>
		<g>
			<polygon fill="#3991C3" points="494.841,215.351 486.71,235.25 494.841,230.528 502.97,235.25 			"/>
		</g>
		<g>
			<polygon fill="#3991C3" points="494.841,342.183 486.71,322.285 494.841,327.006 502.97,322.285 			"/>
		</g>
	</g>
</g>
<g>
	<path fill="none" stroke="#3991C3" stroke-width="4" stroke-miterlimit="10" d="M629.842,42.316h-125c-5.5,0-10,4.5-10,10V154.57"
		/>
</g>
<g>
	<g>
		<path fill="none" stroke="#3991C3" stroke-width="4" stroke-miterlimit="10" d="M629.842,111.316h-125c-5.5,0-10,4.5-10,10v19.133
			"/>
		<g>
			<polygon fill="#3991C3" points="494.842,154.57 486.711,134.671 494.842,139.393 502.971,134.671 			"/>
		</g>
	</g>
</g>
<g>
	<g>
		<path fill="none" stroke="#3991C3" stroke-width="4" stroke-miterlimit="10" d="M715.342,233.446V194.96c0-5.5-4.5-10-10-10
			H587.463"/>
		<g>
			<polygon fill="#3991C3" points="573.342,184.96 593.24,176.83 588.519,184.96 593.24,193.089 			"/>
		</g>
	</g>
</g>
<g>
	<g>
		<path fill="#3991C3" d="M363.842,691.234c0,5.5-4.5,10-10,10h-151c-5.5,0-10-4.5-10-10v-17.492c0-5.5,4.5-10,10-10h151
			c5.5,0,10,4.5,10,10V691.234z"/>
	</g>
	<text transform="matrix(1 0 0 1 250.2539 688.4883)" fill="#FFFFFF" font-family="'MyriadPro-Bold'" font-size="18">Admin.</text>
</g>
<g>
	<g>
		<path fill="#3991C3" d="M363.842,746.234c0,5.5-4.5,10-10,10h-151c-5.5,0-10-4.5-10-10v-17.492c0-5.5,4.5-10,10-10h151
			c5.5,0,10,4.5,10,10V746.234z"/>
	</g>
	<text transform="matrix(1 0 0 1 214.292 743.4883)" fill="#FFFFFF" font-family="'MyriadPro-Bold'" font-size="18">Email Templates</text>
</g>
<g>
	<g>
		<path fill="#3991C3" d="M363.842,800.25c0,5.5-4.5,10-10,10h-151c-5.5,0-10-4.5-10-10v-17.492c0-5.5,4.5-10,10-10h151
			c5.5,0,10,4.5,10,10V800.25z"/>
	</g>
	<text transform="matrix(1 0 0 1 240.7773 797.5039)" fill="#FFFFFF" font-family="'MyriadPro-Bold'" font-size="18">Contracts</text>
</g>
<g>
	<g>
		<path fill="none" stroke="#3991C3" stroke-width="4" stroke-miterlimit="10" d="M469.098,621.6V673c0,5.5-4.5,10-10,10h-81.135"/>
		<g>
			<polygon fill="#3991C3" points="363.842,683 383.74,674.869 379.019,683 383.74,691.129 			"/>
		</g>
	</g>
</g>
<g>
	<g>
		<path fill="none" stroke="#3991C3" stroke-width="4" stroke-miterlimit="10" d="M469.098,661.742v65.959c0,5.5-4.5,10-10,10
			h-81.135"/>
		<g>
			<polygon fill="#3991C3" points="363.842,737.701 383.74,729.57 379.019,737.701 383.74,745.83 			"/>
		</g>
	</g>
</g>
<g>
	<g>
		<path fill="none" stroke="#3991C3" stroke-width="4" stroke-miterlimit="10" d="M469.098,716.768v65.957c0,5.5-4.5,10-10,10
			h-81.135"/>
		<g>
			<polygon fill="#3991C3" points="363.842,792.725 383.74,784.594 379.019,792.725 383.74,800.854 			"/>
		</g>
	</g>
</g>
<g>
	<g>
		<rect x="8.438" y="670.65" fill="#FFFFFF" width="105" height="22.434"/>
		<path fill="none" stroke="#3991C3" stroke-width="4" stroke-miterlimit="10" d="M113.438,683.084c0,5.5-4.5,10-10,10h-85
			c-5.5,0-10-4.5-10-10v-2.434c0-5.5,4.5-10,10-10h85c5.5,0,10,4.5,10,10V683.084z"/>
	</g>
	<text transform="matrix(1 0 0 1 23.8242 687.2139)" fill="#3991C3" font-family="'MyriadPro-Bold'" font-size="15">File Export</text>
</g>
<g>
	<g>
		<rect x="8.438" y="726.783" fill="#FFFFFF" width="105" height="22.434"/>
		<path fill="none" stroke="#3991C3" stroke-width="4" stroke-miterlimit="10" d="M113.438,739.217c0,5.5-4.5,10-10,10h-85
			c-5.5,0-10-4.5-10-10v-2.434c0-5.5,4.5-10,10-10h85c5.5,0,10,4.5,10,10V739.217z"/>
	</g>
	<text transform="matrix(1 0 0 1 23.8242 743.3467)" fill="#3991C3" font-family="'MyriadPro-Bold'" font-size="15">File Export</text>
</g>
<g>
	<g>
		<line fill="none" stroke="#3991C3" stroke-width="4" stroke-miterlimit="10" x1="192.842" y1="738" x2="128.852" y2="738"/>
		<g>
			<polygon fill="#3991C3" points="114.73,738 134.629,729.869 129.907,738 134.629,746.129 			"/>
		</g>
	</g>
</g>
<g>
	<g>
		
			<line fill="none" stroke="#3991C3" stroke-width="4" stroke-miterlimit="10" x1="192.842" y1="682.488" x2="128.852" y2="682.488"/>
		<g>
			<polygon fill="#3991C3" points="114.73,682.488 134.629,674.357 129.907,682.488 134.629,690.617 			"/>
		</g>
	</g>
</g>
<g>
	<g>
		<rect x="8.895" y="780.508" fill="#FFFFFF" width="105" height="22.434"/>
		<path fill="none" stroke="#3991C3" stroke-width="4" stroke-miterlimit="10" d="M113.895,792.941c0,5.5-4.5,10-10,10h-85
			c-5.5,0-10-4.5-10-10v-2.434c0-5.5,4.5-10,10-10h85c5.5,0,10,4.5,10,10V792.941z"/>
	</g>
	<text transform="matrix(1 0 0 1 24.2812 797.0713)" fill="#3991C3" font-family="'MyriadPro-Bold'" font-size="15">File Export</text>
</g>
<g>
	<g>
		
			<line fill="none" stroke="#3991C3" stroke-width="4" stroke-miterlimit="10" x1="193.299" y1="791.725" x2="129.309" y2="791.725"/>
		<g>
			<polygon fill="#3991C3" points="115.188,791.725 135.086,783.594 130.364,791.725 135.086,799.854 			"/>
		</g>
	</g>
</g>
<text transform="matrix(1 0 0 1 121.3057 923.7861)" fill="#165B8C" font-family="'MyriadPro-Bold'" font-size="20" text-decoration=" underline">REMOVED FROM WORKFLOW</text>
<g>
	<g>
		<path fill="#165B8C" d="M237.473,966.504c0,5.5-4.5,10-10,10h-151c-5.5,0-10-4.5-10-10v-17.492c0-5.5,4.5-10,10-10h151
			c5.5,0,10,4.5,10,10V966.504z"/>
	</g>
	<text transform="matrix(1 0 0 1 118.3408 963.7578)" fill="#FFFFFF" font-family="'MyriadPro-Bold'" font-size="18">Box.com</text>
</g>
<g>
	<g>
		<path fill="#165B8C" d="M441.473,966.504c0,5.5-4.5,10-10,10h-151c-5.5,0-10-4.5-10-10v-17.492c0-5.5,4.5-10,10-10h151
			c5.5,0,10,4.5,10,10V966.504z"/>
	</g>
	<text transform="matrix(1 0 0 1 321.4678 963.7578)" fill="#FFFFFF" font-family="'MyriadPro-Bold'" font-size="18">Dropbox</text>
</g>
</svg>
